<svg id="SvgjsSvg1001" width="288" height="288" xmlns="http://www.w3.org/2000/svg" version="1.1" xmlns:xlink="http://www.w3.org/1999/xlink" xmlns:svgjs="http://svgjs.com/svgjs"><defs id="SvgjsDefs1002"></defs><g id="SvgjsG1008"><svg xmlns="http://www.w3.org/2000/svg" viewBox="0 0 640 480" width="288" height="288"><g transform="translate(320.01 240.47)"><path fill="#efefef" d="M 685.808 383.197 c 11.023 -42.621 51.008 -194.582 -109.495 -231.842 C 442.205 120.222 371.358 61.4 234.588 162.714 c -83.568 61.904 -234.395 -19.773 -165.31 220.483 C 125.852 383.197 579.989 383.197 685.808 383.197 z" transform="matrix(.84 0 0 .84 -315 -209.994)" class="svgShape colorfaf0e4-1 selectable"></path><path fill="#cbcbcb" d="M 518.358 227.504 c -23.753 0 -46.26 5.326 -66.401 14.836 c 2.076 3.512 3.272 7.605 3.272 11.982 c 0 13.02 -10.553 23.572 -23.573 23.572 c -7.639 0 -14.423 -3.635 -18.732 -9.266 c -12.59 11.588 -23.265 25.223 -31.501 40.379 c 8.353 3.625 14.196 11.943 14.196 21.629 c 0 13.022 -10.554 23.574 -23.574 23.574 c -2.271 0 -4.464 -0.328 -6.54 -0.926 c -1.891 9.695 -2.89 19.709 -2.89 29.959 h 58.237 c 0 -53.852 43.653 -97.506 97.505 -97.506 c 53.851 0 97.505 43.654 97.505 97.506 h 58.234 C 674.098 297.232 604.37 227.504 518.358 227.504 z" transform="matrix(.84 0 0 .84 -315.002 -210)" class="svgShape colore8ceae-2 selectable"></path><path fill="#4e70cc" d="M 161.125 307.365 c 10.656 15.982 21.441 35.588 27.852 41.998 c 20.904 6.982 50.722 14.975 60.331 17.158 c 13.962 -3.307 28.292 -2.205 45.928 8.818 c -22.493 3.674 -95.79 1.469 -117.154 -14.33 C 156.716 345.211 161.125 315.248 161.125 307.365 z" transform="matrix(.84 0 0 .84 -315.002 -210)" class="svgShape colorcc7e4e-3 selectable"></path><polygon fill="#324e7b" points="-19.89 58.79 -26.35 58.79 20.68 -58.79 26.35 -56.81" transform="matrix(.84 0 0 .84 -29.75 62.08)" class="svgShape color5f5b78-4 selectable"></polygon><rect width="93.899" height="7.348" x="-46.95" y="-3.674" fill="#324e7b" rx="0" ry="0" transform="matrix(.84 0 0 .84 -85.9 108.37)" class="svgShape color5f5b78-5 selectable"></rect><path fill="#2e3238" d="M 115.936 219.772 c -4.813 -17.848 -7.26 -19.082 -8.822 -37.755 c -1.564 -18.674 2.853 -30.322 22.313 -35.709 c 19.459 -5.386 24.865 2.771 38.987 -1.937 c 14.772 -4.925 34.681 3.438 32.393 13.595 c -2.862 12.709 15.227 10.977 -7.952 22.677 C 164.352 196.915 139.966 222.738 115.936 219.772 z" transform="matrix(.84 0 0 .84 -314.997 -209.996)" class="svgShape color2f2e38-6 selectable"></path><path fill="#86a6df" d="M 195.391 175.692 c -7.339 -6.205 -32.498 -5.019 -37.53 0.934 c -5.032 5.952 -8.69 15.107 -15.494 17.52 c 0.896 -9.107 -9.068 -15.832 -13.586 -8.139 c -4.036 6.872 -1.881 17.177 5.198 18.059 c -6.542 7.738 -11.483 12.576 -18.042 15.706 c -3.78 9.903 -7.224 21.62 -16.952 33.128 c 14.343 8.387 30.475 22.705 37.022 28.242 c -0.13 -19.164 7.003 -39.67 12.646 -42.724 c 9.657 2.164 20.203 10.108 32.248 -15.773 c 2.309 1.001 7.321 1.768 8.496 0.379 c 2.053 -2.428 -2.927 -12.936 -2.368 -16.644 C 189.738 198.047 192.523 187.945 195.391 175.692 z" transform="matrix(.84 0 0 .84 -315 -209.994)" class="svgShape colored9864-7 selectable"></path><path fill="#2e3238" d="M 183.077 204.089 c -0.369 1.476 -1.565 2.449 -2.673 2.172 c -1.107 -0.277 -1.706 -1.699 -1.337 -3.175 c 0.37 -1.476 1.566 -2.449 2.674 -2.172 C 182.849 201.191 183.447 202.612 183.077 204.089 z" transform="matrix(.84 0 0 .84 -314.999 -210.006)" class="svgShape color2f2e38-8 selectable"></path><path fill="#4868bd" d="M 179.536 199.477 c 1.257 -1.978 4.414 -1.037 4.679 1.17 c -0.711 -0.39 -1.361 -0.983 -2.191 -1.108 C 181.247 199.286 180.334 199.431 179.536 199.477 z" transform="matrix(.84 0 0 .84 -315 -209.997)" class="svgShape colorbd7548-9 selectable"></path><path fill="#2e3238" d="M 177.521 194.398 c -1.072 -1.417 3.551 -3.896 7.234 -2.76 c 3.04 0.938 5.505 3.787 3.803 5.2 c -1.701 1.414 -3.071 -1.515 -4.974 -2.204 C 181.682 193.945 178.594 195.814 177.521 194.398 z" transform="matrix(.84 0 0 .84 -315.002 -209.995)" class="svgShape color2f2e38-10 selectable"></path><path fill="#4868bd" d="M 176.465 229.178 c -2.701 0.93 -6.323 -1.066 -5.752 -4.175 c 0.629 1.13 1.188 1.975 2.278 2.73 C 174.071 228.377 175.286 228.76 176.465 229.178 z" transform="matrix(.84 0 0 .84 -315 -210.006)" class="svgShape colorbd7548-11 selectable"></path><path fill="#4e70cc" d="M 139.151 195.48 c -1.108 -4.424 -3.031 -8.688 -5.297 -7.115 c -2.266 1.572 -3.099 10.605 2.74 10.993 C 136.392 196.933 135.901 195.2 139.151 195.48 z" transform="matrix(.84 0 0 .84 -315.006 -210)" class="svgShape colorcc7e4e-12 selectable"></path><path fill="#4868bd" d="M 148.653 238.419 c -6.95 -2.628 -14.149 -9.638 -13.007 -17.582 c 0.189 1.677 0.418 3.181 1.015 4.771 c 0.718 1.909 1.976 3.876 3.403 5.338 C 142.567 233.821 145.567 236.204 148.653 238.419 z" transform="matrix(.84 0 0 .84 -315.006 -210)" class="svgShape colorbd7548-13 selectable"></path><path fill="#4b6cc7" d="M 101.602 244.904 c -5.065 3.073 -25.352 20.577 -19.841 137.784 c 32.334 0 68.955 0 86.652 0 c -7.288 -38.213 -8.437 -62.969 -7.059 -76.195 c -6.366 -12.414 -14.927 -33.373 -22.944 -45.853 C 129.633 246.973 112.394 238.356 101.602 244.904 z" transform="matrix(.84 0 0 .84 -315 -210.001)" class="svgShape colorc74b50-14 selectable"></path><path fill="#3e65a3" d="M 124.617 329.412 c -4.71 4.709 -4.092 4.959 -6.48 7.348 c 7.348 10.656 27.431 35.963 37.394 45.928 c 7.432 0 19.189 0 19.189 0 S 137.344 334.557 124.617 329.412 z" transform="matrix(.84 0 0 .84 -315.001 -210.002)" class="svgShape colora33e42-15 selectable"></path><path fill="#86a6df" d="M 161.355 306.492 c -10.15 4.182 -28.538 14.719 -36.738 22.92 c 12.626 18.004 28.424 43.353 38.345 53.275 c 13.227 0 113.167 0 143.296 0 c -5.327 -5.326 -10.931 -6.246 -18.646 -7.9 c -7.716 -1.652 -16.534 -9.92 -38.304 -4.408 c -23.424 -4.686 -53.461 -9.92 -67.239 -16.258 C 173.25 337.035 168.042 319.559 161.355 306.492 z" transform="matrix(.84 0 0 .84 -315 -209.996)" class="svgShape colored9864-16 selectable"></path><path fill="#4868bd" d="M 275.762 379.014 c 4.157 -0.6 8.491 -0.547 12.665 -0.18 c 2.449 0.234 4.906 0.582 7.267 1.291 c 0.389 0.119 5.105 2.014 4.685 2.563 c -1.497 -1.117 -3.424 -1.533 -5.226 -1.879 c -2.533 -0.484 -5.108 -0.73 -7.677 -0.951 C 283.576 379.523 279.666 379.297 275.762 379.014 z" transform="matrix(.84 0 0 .84 -314.997 -210)" class="svgShape colorbd7548-17 selectable"></path><path fill="#385b94" d="M 118.137 337.586 c -0.017 0 -0.033 0 -0.049 0 c -0.295 -0.02 -0.559 -0.193 -0.69 -0.457 c -2.303 -4.604 -4.979 -9.283 -7.812 -14.24 c -4.614 -8.068 -9.385 -16.412 -13.155 -25.494 c -0.175 -0.422 0.025 -0.906 0.446 -1.08 c 0.423 -0.176 0.905 0.025 1.081 0.447 c 3.729 8.986 8.475 17.283 13.063 25.307 c 2.591 4.531 5.052 8.836 7.225 13.076 c 11.747 -16.346 41.086 -28.701 42.357 -29.23 c 0.423 -0.174 0.905 0.025 1.081 0.445 c 0.176 0.422 -0.023 0.906 -0.444 1.08 c -0.314 0.133 -31.543 13.279 -42.412 29.775 C 118.673 337.447 118.414 337.586 118.137 337.586 z" transform="matrix(.84 0 0 .84 -315 -210.003)" class="svgShape color94383c-18 selectable"></path><path fill="#5a8be3" d="M 676.989 383.197 c -43.539 0 -150.185 0 -196.204 0 V 153.964 c 0 -3.044 2.467 -5.511 5.511 -5.511 h 185.183 c 3.044 0 5.511 2.468 5.511 5.511 V 383.197 z" transform="matrix(.84 0 0 .84 -314.998 -209.999)" class="svgShape colore3a65a-19 selectable"></path><rect width="181.875" height="24.25" x="-90.938" y="-12.125" fill="#24334c" rx="0" ry="0" transform="matrix(.84 0 0 .84 171.27 -53.78)" class="svgShape color46244c-20 selectable"></rect><rect width="6.798" height="6.798" x="-3.399" y="-3.399" fill="#4b6cc7" rx="0" ry="0" transform="matrix(.84 0 0 .84 101.28 -57.71)" class="svgShape colorc74b50-21 selectable"></rect><rect width="6.798" height="6.798" x="-3.399" y="-3.399" fill="#e1e1e1" rx="0" ry="0" transform="matrix(.84 0 0 .84 109.77 -57.71)" class="svgShape colorf5e3ce-22 selectable"></rect><rect width="6.798" height="6.798" x="-3.399" y="-3.399" fill="#e1e1e1" rx="0" ry="0" transform="matrix(.84 0 0 .84 118.26 -57.71)" class="svgShape colorf5e3ce-23 selectable"></rect><rect width="6.798" height="6.798" x="-3.399" y="-3.399" fill="#4b6cc7" rx="0" ry="0" transform="matrix(.84 0 0 .84 126.74 -57.71)" class="svgShape colorc74b50-24 selectable"></rect><rect width="181.875" height="24.25" x="-90.938" y="-12.125" fill="#24334c" rx="0" ry="0" transform="matrix(.84 0 0 .84 171.27 -26.46)" class="svgShape color46244c-25 selectable"></rect><rect width="6.798" height="6.798" x="-3.399" y="-3.399" fill="#4b6cc7" rx="0" ry="0" transform="matrix(.84 0 0 .84 101.28 -30.4)" class="svgShape colorc74b50-26 selectable"></rect><rect width="6.798" height="6.798" x="-3.399" y="-3.399" fill="#4b6cc7" rx="0" ry="0" transform="matrix(.84 0 0 .84 109.77 -30.4)" class="svgShape colorc74b50-27 selectable"></rect><rect width="6.798" height="6.798" x="-3.399" y="-3.399" fill="#4b6cc7" rx="0" ry="0" transform="matrix(.84 0 0 .84 118.26 -30.4)" class="svgShape colorc74b50-28 selectable"></rect><rect width="6.798" height="6.798" x="-3.399" y="-3.399" fill="#e1e1e1" rx="0" ry="0" transform="matrix(.84 0 0 .84 126.74 -30.4)" class="svgShape colorf5e3ce-29 selectable"></rect><rect width="181.875" height="24.25" x="-90.938" y="-12.125" fill="#24334c" rx="0" ry="0" transform="matrix(.84 0 0 .84 171.27 .85)" class="svgShape color46244c-30 selectable"></rect><rect width="6.798" height="6.799" x="-3.399" y="-3.4" fill="#e1e1e1" rx="0" ry="0" transform="matrix(.84 0 0 .84 101.28 -3.08)" class="svgShape colorf5e3ce-31 selectable"></rect><rect width="6.798" height="6.799" x="-3.399" y="-3.4" fill="#4b6cc7" rx="0" ry="0" transform="matrix(.84 0 0 .84 109.77 -3.08)" class="svgShape colorc74b50-32 selectable"></rect><rect width="6.798" height="6.799" x="-3.399" y="-3.4" fill="#e1e1e1" rx="0" ry="0" transform="matrix(.84 0 0 .84 118.26 -3.08)" class="svgShape colorf5e3ce-33 selectable"></rect><rect width="6.798" height="6.799" x="-3.399" y="-3.4" fill="#4b6cc7" rx="0" ry="0" transform="matrix(.84 0 0 .84 126.74 -3.08)" class="svgShape colorc74b50-34 selectable"></rect><rect width="181.875" height="24.25" x="-90.938" y="-12.125" fill="#24334c" rx="0" ry="0" transform="matrix(.84 0 0 .84 171.27 28.17)" class="svgShape color46244c-35 selectable"></rect><rect width="6.798" height="6.799" x="-3.399" y="-3.4" fill="#e1e1e1" rx="0" ry="0" transform="matrix(.84 0 0 .84 101.28 24.23)" class="svgShape colorf5e3ce-36 selectable"></rect><rect width="6.798" height="6.799" x="-3.399" y="-3.4" fill="#4b6cc7" rx="0" ry="0" transform="matrix(.84 0 0 .84 109.77 24.23)" class="svgShape colorc74b50-37 selectable"></rect><rect width="6.798" height="6.799" x="-3.399" y="-3.4" fill="#e1e1e1" rx="0" ry="0" transform="matrix(.84 0 0 .84 118.26 24.23)" class="svgShape colorf5e3ce-38 selectable"></rect><rect width="6.798" height="6.799" x="-3.399" y="-3.4" fill="#e1e1e1" rx="0" ry="0" transform="matrix(.84 0 0 .84 126.74 24.23)" class="svgShape colorf5e3ce-39 selectable"></rect><path fill="#f8f8f8" d="M 542.19 160.493 c 0 0.837 -0.678 1.516 -1.516 1.516 h -10.84 c -0.838 0 -1.516 -0.679 -1.516 -1.516 l 0 0 c 0 -0.837 0.678 -1.516 1.516 -1.516 h 10.84 C 541.513 158.977 542.19 159.655 542.19 160.493 L 542.19 160.493 z" transform="matrix(.84 0 0 .84 -315 -210.002)" class="svgShape colorffffff-40 selectable"></path><path fill="#f8f8f8" d="M 564.007 160.493 c 0 0.837 -0.679 1.516 -1.516 1.516 h -10.84 c -0.838 0 -1.516 -0.679 -1.516 -1.516 l 0 0 c 0 -0.837 0.678 -1.516 1.516 -1.516 h 10.84 C 563.328 158.977 564.007 159.655 564.007 160.493 L 564.007 160.493 z" transform="matrix(.84 0 0 .84 -314.999 -210.002)" class="svgShape colorffffff-41 selectable"></path><path fill="#f8f8f8" d="M 585.823 160.493 c 0 0.837 -0.679 1.516 -1.516 1.516 h -10.84 c -0.838 0 -1.516 -0.679 -1.516 -1.516 l 0 0 c 0 -0.837 0.678 -1.516 1.516 -1.516 h 10.84 C 585.144 158.977 585.823 159.655 585.823 160.493 L 585.823 160.493 z" transform="matrix(.84 0 0 .84 -315.008 -210.002)" class="svgShape colorffffff-42 selectable"></path><path fill="#f8f8f8" d="M 607.639 160.493 c 0 0.837 -0.678 1.516 -1.516 1.516 h -10.84 c -0.837 0 -1.516 -0.679 -1.516 -1.516 l 0 0 c 0 -0.837 0.679 -1.516 1.516 -1.516 h 10.84 C 606.961 158.977 607.639 159.655 607.639 160.493 L 607.639 160.493 z" transform="matrix(.84 0 0 .84 -314.998 -210.002)" class="svgShape colorffffff-43 selectable"></path><path fill="#f8f8f8" d="M 629.455 160.493 c 0 0.837 -0.678 1.516 -1.516 1.516 H 617.1 c -0.837 0 -1.516 -0.679 -1.516 -1.516 l 0 0 c 0 -0.837 0.679 -1.516 1.516 -1.516 h 10.84 C 628.777 158.977 629.455 159.655 629.455 160.493 L 629.455 160.493 z" transform="matrix(.84 0 0 .84 -314.997 -210.002)" class="svgShape colorffffff-44 selectable"></path><path fill="#cbcbcb" d="M 57.919 382.76 c 0 0 39.795 -0.23 99.486 -0.578 c 29.845 -0.086 64.665 -0.186 101.972 -0.295 c 37.308 -0.031 77.101 -0.064 116.896 -0.1 c 39.794 0.066 79.588 0.133 116.895 0.193 c 37.308 0.139 72.127 0.267 101.973 0.377 c 59.691 0.397 99.485 0.66 99.485 0.66 c 0.1 0.002 0.179 0.082 0.178 0.18 c -0.001 0.1 -0.08 0.178 -0.178 0.178 c 0 0 -39.794 0.266 -99.485 0.662 c -29.846 0.109 -64.665 0.238 -101.973 0.377 c -37.307 0.061 -77.101 0.127 -116.895 0.191 c -39.795 -0.033 -79.589 -0.066 -116.896 -0.098 c -37.307 -0.109 -72.127 -0.209 -101.972 -0.295 c -59.691 -0.348 -99.486 -0.578 -99.486 -0.578 c -0.24 -0.002 -0.436 -0.199 -0.433 -0.439 C 57.486 382.955 57.681 382.762 57.919 382.76 z" transform="matrix(.84 0 0 .84 -314.998 -210.008)" class="svgShape colore8ceae-45 selectable"></path><path fill="#5068a9" d="M 323.396 328.625 c 0 0.609 -0.494 1.103 -1.103 1.103 H 211.593 c -0.608 0 -1.102 -0.494 -1.102 -1.103 v -62.076 c 0 -0.607 0.493 -1.102 1.102 -1.102 h 110.701 c 0.608 0 1.103 0.494 1.103 1.102 V 328.625 z" transform="matrix(.84 0 0 .84 -315 -210.006)" class="svgShape color6865b8-46 selectable"></path><path fill="#f8f8f8" d="M 317.373 298.174 c 0 4.262 -3.455 7.715 -7.717 7.715 H 224.23 c -4.262 0 -7.716 -3.453 -7.716 -7.715 v -1.172 c 0 -4.262 3.454 -7.715 7.716 -7.715 h 85.426 c 4.262 0 7.717 3.453 7.717 7.715 V 298.174 z" transform="matrix(.84 0 0 .84 -315 -210.006)" class="svgShape colorffffff-47 selectable"></path><path fill="#5068a9" d="M 229.879 291.27 c -2.416 0 -4.383 1.967 -4.383 4.383 c 0 0.988 0.342 1.893 0.896 2.627 l -3.299 4.385 c -0.274 0.363 -0.201 0.883 0.163 1.158 c 0.149 0.111 0.324 0.164 0.497 0.164 c 0.251 0 0.499 -0.113 0.661 -0.328 l 3.211 -4.266 c 0.66 0.4 1.426 0.643 2.253 0.643 c 2.417 0 4.384 -1.967 4.384 -4.383 C 234.263 293.236 232.296 291.27 229.879 291.27 z M 229.879 298.383 c -0.746 0 -1.423 -0.303 -1.916 -0.791 c -0.004 -0.004 -0.005 -0.008 -0.01 -0.01 c -0.002 -0.002 -0.004 -0.002 -0.006 -0.004 c -0.492 -0.494 -0.798 -1.174 -0.798 -1.926 c 0 -1.506 1.225 -2.729 2.73 -2.729 c 1.506 0 2.729 1.223 2.729 2.729 C 232.608 297.156 231.385 298.383 229.879 298.383 z" transform="matrix(.84 0 0 .84 -314.996 -210)" class="svgShape color6865b8-48 selectable"></path><path fill="#5068a9" d="M247.63 302.723h-7.523c-.456 0-.826-.371-.826-.826 0-.457.37-.828.826-.828h7.523c.456 0 .826.371.826.828C248.456 302.352 248.086 302.723 247.63 302.723zM258.377 302.723h-7.524c-.456 0-.826-.371-.826-.826 0-.457.37-.828.826-.828h7.524c.456 0 .826.371.826.828C259.203 302.352 258.833 302.723 258.377 302.723z" transform="matrix(.84 0 0 .84 -315 -210.006)" class="svgShape color6865b8-49 selectable"></path><path fill="#5068a9" d="M 269.124 302.723 h -7.522 c -0.457 0 -0.827 -0.371 -0.827 -0.826 c 0 -0.457 0.37 -0.828 0.827 -0.828 h 7.522 c 0.456 0 0.826 0.371 0.826 0.828 C 269.95 302.352 269.58 302.723 269.124 302.723 z" transform="matrix(.84 0 0 .84 -315.002 -210.006)" class="svgShape color6865b8-50 selectable"></path><path fill="#f8f8f8" d="M 240.106 275.072 c 0 1.293 -1.048 2.338 -2.34 2.338 c -1.292 0 -2.34 -1.045 -2.34 -2.338 c 0 -1.293 1.048 -2.34 2.34 -2.34 C 239.059 272.732 240.106 273.779 240.106 275.072 z" transform="matrix(.84 0 0 .84 -315.007 -209.999)" class="svgShape colorffffff-51 selectable"></path><path fill="#f8f8f8" d="M 230.955 275.072 c 0 1.293 -1.048 2.338 -2.34 2.338 c -1.292 0 -2.34 -1.045 -2.34 -2.338 c 0 -1.293 1.048 -2.34 2.34 -2.34 C 229.907 272.732 230.955 273.779 230.955 275.072 z" transform="matrix(.84 0 0 .84 -315 -209.999)" class="svgShape colorffffff-52 selectable"></path><path fill="#f8f8f8" d="M 221.804 275.072 c 0 1.293 -1.048 2.338 -2.34 2.338 c -1.292 0 -2.34 -1.045 -2.34 -2.338 c 0 -1.293 1.048 -2.34 2.34 -2.34 C 220.756 272.732 221.804 273.779 221.804 275.072 z" transform="matrix(.84 0 0 .84 -314.996 -209.999)" class="svgShape colorffffff-53 selectable"></path><path fill="#5068a9" d="M 413.917 367.766 c -6.247 -13.135 6.429 -46.203 43.08 -42.621 c 15.982 -27.557 68.892 -32.793 81.568 12.4 c 20.667 -5.236 38.854 14.605 31.874 30.221 C 549.863 367.766 462.417 367.766 413.917 367.766 z" transform="matrix(.84 0 0 .84 -315.001 -210)" class="svgShape color6865b8-54 selectable"></path><rect width="45.745" height="2.756" x="-22.872" y="-1.378" fill="#f8f8f8" rx="0" ry="0" transform="matrix(.84 0 0 .84 100.36 66.13)" class="svgShape colorffffff-55 selectable"></rect><rect width="45.745" height="2.756" x="-22.872" y="-1.378" fill="#f8f8f8" rx="0" ry="0" transform="matrix(.84 0 0 .84 100.36 73.3)" class="svgShape colorffffff-56 selectable"></rect><rect width="45.745" height="2.756" x="-22.872" y="-1.378" fill="#f8f8f8" rx="0" ry="0" transform="matrix(.84 0 0 .84 100.36 80.47)" class="svgShape colorffffff-57 selectable"></rect><rect width="45.745" height="2.756" x="-22.872" y="-1.378" fill="#f8f8f8" rx="0" ry="0" transform="matrix(.84 0 0 .84 100.36 87.63)" class="svgShape colorffffff-58 selectable"></rect><path fill="#5068a9" d="M 474.489 207.513 c 3.517 -7.395 -3.618 -26.007 -24.248 -23.99 c -8.996 -15.512 -38.777 -18.458 -45.912 6.979 c -11.633 -2.947 -21.87 8.221 -17.941 17.011 C 397.969 207.513 447.19 207.513 474.489 207.513 z" transform="matrix(.84 0 0 .84 -315 -209.999)" class="svgShape color6865b8-59 selectable"></path><path fill="#f8f8f8" d="M 428.471 195.085 l -7.024 -2.867 v -2.044 l 7.024 -2.867 v 1.697 l -5.751 2.296 v -0.208 l 5.751 2.295 V 195.085 z" transform="matrix(.84 0 0 .84 -314.996 -210.008)" class="svgShape colorffffff-60 selectable"></path><path fill="#f8f8f8" d="M 429.406 199.857 l 3.153 -16.076 h 2.026 l -3.152 16.076 H 429.406 z" transform="matrix(.84 0 0 .84 -315 -209.999)" class="svgShape colorffffff-61 selectable"></path><path fill="#f8f8f8" d="M 435.521 195.085 v -1.698 l 5.752 -2.295 v 0.208 l -5.752 -2.296 v -1.697 l 7.025 2.867 v 2.044 L 435.521 195.085 z" transform="matrix(.84 0 0 .84 -314.995 -210.008)" class="svgShape colorffffff-62 selectable"></path><path fill="#cbcbcb" d="M 319.418 222.719 c 0 0.609 -0.493 1.102 -1.102 1.102 h -73.141 c -0.608 0 -1.103 -0.493 -1.103 -1.102 v -84.712 c 0 -0.609 0.494 -1.102 1.103 -1.102 h 73.141 c 0.608 0 1.102 0.494 1.102 1.102 V 222.719 z" transform="matrix(.84 0 0 .84 -315 -209.992)" class="svgShape colore8ceae-63 selectable"></path><path fill="#5068a9" d="M 313.435 215.174 c 0 0.609 -0.494 1.103 -1.103 1.103 h -73.141 c -0.608 0 -1.102 -0.494 -1.102 -1.103 v -84.711 c 0 -0.608 0.493 -1.102 1.102 -1.102 h 73.141 c 0.608 0 1.103 0.494 1.103 1.102 V 215.174 z" transform="matrix(.84 0 0 .84 -314.998 -209.999)" class="svgShape color6865b8-64 selectable"></path><rect width="68.341" height="70.799" x="-34.17" y="-35.4" fill="#f8f8f8" rx="0" ry="0" transform="matrix(.84 0 0 .84 -83.06 -60.86)" class="svgShape colorffffff-65 selectable"></rect><path fill="#f8f8f8" d="M 264.931 135.589 c 0 1.292 -1.048 2.34 -2.34 2.34 c -1.293 0 -2.341 -1.047 -2.341 -2.34 c 0 -1.292 1.048 -2.339 2.341 -2.339 C 263.883 133.25 264.931 134.297 264.931 135.589 z" transform="matrix(.84 0 0 .84 -314.996 -209.996)" class="svgShape colorffffff-66 selectable"></path><path fill="#f8f8f8" d="M 255.779 135.589 c 0 1.292 -1.048 2.34 -2.34 2.34 c -1.293 0 -2.341 -1.047 -2.341 -2.34 c 0 -1.292 1.048 -2.339 2.341 -2.339 C 254.731 133.25 255.779 134.297 255.779 135.589 z" transform="matrix(.84 0 0 .84 -315 -209.996)" class="svgShape colorffffff-67 selectable"></path><path fill="#f8f8f8" d="M 246.628 135.589 c 0 1.292 -1.048 2.34 -2.34 2.34 c -1.293 0 -2.341 -1.047 -2.341 -2.34 c 0 -1.292 1.048 -2.339 2.341 -2.339 C 245.58 133.25 246.628 134.297 246.628 135.589 z" transform="matrix(.84 0 0 .84 -315.004 -209.996)" class="svgShape colorffffff-68 selectable"></path><path fill="#5068a9" d="M 304.642 152.254 H 258.85 c -0.305 0 -0.551 -0.247 -0.551 -0.551 c 0 -0.305 0.246 -0.551 0.551 -0.551 h 45.792 c 0.305 0 0.551 0.246 0.551 0.551 C 305.192 152.007 304.946 152.254 304.642 152.254 z" transform="matrix(.84 0 0 .84 -315 -209.998)" class="svgShape color6865b8-69 selectable"></path><path fill="#5068a9" d="M 304.642 157.031 h -56.447 c -0.305 0 -0.552 -0.247 -0.552 -0.551 c 0 -0.305 0.247 -0.551 0.552 -0.551 h 56.447 c 0.305 0 0.551 0.247 0.551 0.551 C 305.192 156.784 304.946 157.031 304.642 157.031 z" transform="matrix(.84 0 0 .84 -315.003 -210.003)" class="svgShape color6865b8-70 selectable"></path><path fill="#5068a9" d="M 304.642 161.807 h -56.447 c -0.305 0 -0.552 -0.246 -0.552 -0.551 c 0 -0.305 0.247 -0.551 0.552 -0.551 h 56.447 c 0.305 0 0.551 0.247 0.551 0.551 C 305.192 161.561 304.946 161.807 304.642 161.807 z" transform="matrix(.84 0 0 .84 -315.003 -209.998)" class="svgShape color6865b8-71 selectable"></path><path fill="#5068a9" d="M 304.642 166.584 h -56.447 c -0.305 0 -0.552 -0.247 -0.552 -0.551 s 0.247 -0.551 0.552 -0.551 h 56.447 c 0.305 0 0.551 0.246 0.551 0.551 S 304.946 166.584 304.642 166.584 z" transform="matrix(.84 0 0 .84 -315.003 -209.995)" class="svgShape color6865b8-72 selectable"></path><path fill="#5068a9" d="M 304.642 171.361 h -56.447 c -0.305 0 -0.552 -0.246 -0.552 -0.551 s 0.247 -0.551 0.552 -0.551 h 56.447 c 0.305 0 0.551 0.247 0.551 0.551 S 304.946 171.361 304.642 171.361 z" transform="matrix(.84 0 0 .84 -315.003 -210)" class="svgShape color6865b8-73 selectable"></path><path fill="#5068a9" d="M 277.955 176.137 h -29.761 c -0.305 0 -0.552 -0.246 -0.552 -0.551 s 0.247 -0.551 0.552 -0.551 h 29.761 c 0.305 0 0.552 0.246 0.552 0.551 S 278.26 176.137 277.955 176.137 z" transform="matrix(.84 0 0 .84 -314.999 -210.006)" class="svgShape color6865b8-74 selectable"></path><path fill="#5068a9" d="M 304.642 180.914 h -18.303 c -0.305 0 -0.551 -0.247 -0.551 -0.551 c 0 -0.305 0.246 -0.551 0.551 -0.551 h 18.303 c 0.305 0 0.551 0.246 0.551 0.551 C 305.192 180.667 304.946 180.914 304.642 180.914 z" transform="matrix(.84 0 0 .84 -315.002 -209.992)" class="svgShape color6865b8-75 selectable"></path><path fill="#5068a9" d="M 304.642 185.691 h -26.686 c -0.305 0 -0.551 -0.247 -0.551 -0.551 c 0 -0.305 0.246 -0.551 0.551 -0.551 h 26.686 c 0.305 0 0.551 0.247 0.551 0.551 C 305.192 185.444 304.946 185.691 304.642 185.691 z" transform="matrix(.84 0 0 .84 -315.002 -209.998)" class="svgShape color6865b8-76 selectable"></path><path fill="#5068a9" d="M 304.642 190.467 h -26.686 c -0.305 0 -0.551 -0.246 -0.551 -0.551 s 0.246 -0.551 0.551 -0.551 h 26.686 c 0.305 0 0.551 0.247 0.551 0.551 S 304.946 190.467 304.642 190.467 z" transform="matrix(.84 0 0 .84 -315.002 -210.003)" class="svgShape color6865b8-77 selectable"></path><path fill="#5068a9" d="M 304.642 195.244 h -26.686 c -0.305 0 -0.551 -0.246 -0.551 -0.551 s 0.246 -0.551 0.551 -0.551 h 26.686 c 0.305 0 0.551 0.246 0.551 0.551 S 304.946 195.244 304.642 195.244 z" transform="matrix(.84 0 0 .84 -315.002 -210)" class="svgShape color6865b8-78 selectable"></path><path fill="#5068a9" d="M 304.642 200.021 h -26.686 c -0.305 0 -0.551 -0.247 -0.551 -0.551 s 0.246 -0.551 0.551 -0.551 h 26.686 c 0.305 0 0.551 0.246 0.551 0.551 S 304.946 200.021 304.642 200.021 z" transform="matrix(.84 0 0 .84 -315.002 -210.005)" class="svgShape color6865b8-79 selectable"></path><path fill="#5068a9" d="M 292.868 204.797 h -14.913 c -0.305 0 -0.551 -0.246 -0.551 -0.551 s 0.246 -0.551 0.551 -0.551 h 14.913 c 0.305 0 0.552 0.247 0.552 0.551 S 293.173 204.797 292.868 204.797 z" transform="matrix(.84 0 0 .84 -314.994 -210)" class="svgShape color6865b8-80 selectable"></path><rect width="24.984" height="23.883" x="-12.492" y="-11.941" fill="#5068a9" rx="0" ry="0" transform="matrix(.84 0 0 .84 -96.02 -46.61)" class="svgShape color6865b8-81 selectable"></rect><path fill="#5068a9" d="M 692.724 279.916 c 5.262 -11.063 -5.414 -38.913 -36.282 -35.896 c -13.461 -23.206 -58.022 -27.616 -68.697 10.443 c -17.406 -4.409 -32.724 12.303 -26.845 25.453 C 578.228 279.916 651.878 279.916 692.724 279.916 z" transform="matrix(.84 0 0 .84 -315 -210)" class="svgShape color6865b8-82 selectable"></path><path fill="#f8f8f8" d="M 621.539 262.414 l -10.512 -4.289 v -3.059 l 10.512 -4.291 v 2.541 l -8.607 3.436 v -0.313 l 8.607 3.435 V 262.414 z" transform="matrix(.84 0 0 .84 -314.995 -209.996)" class="svgShape colorffffff-83 selectable"></path><path fill="#f8f8f8" d="M 622.938 269.557 l 4.718 -24.055 h 3.032 l -4.718 24.055 H 622.938 z" transform="matrix(.84 0 0 .84 -315 -210.005)" class="svgShape colorffffff-84 selectable"></path><path fill="#f8f8f8" d="M 632.088 262.414 v -2.539 l 8.606 -3.435 v 0.313 l -8.606 -3.436 v -2.541 l 10.512 4.291 v 3.059 L 632.088 262.414 z" transform="matrix(.84 0 0 .84 -314.996 -209.996)" class="svgShape colorffffff-85 selectable"></path><path fill="#5068a9" d="M 449.095 167.643 c -0.273 0 -0.548 -0.101 -0.762 -0.305 c -0.007 -0.006 -0.697 -0.664 -2.015 -1.756 c -0.47 -0.389 -0.534 -1.083 -0.146 -1.552 c 0.387 -0.469 1.082 -0.536 1.552 -0.145 c 1.386 1.148 2.102 1.831 2.132 1.86 c 0.439 0.42 0.455 1.118 0.035 1.559 C 449.675 167.529 449.385 167.643 449.095 167.643 z" transform="matrix(.84 0 0 .84 -315 -210.008)" class="svgShape color6865b8-86 selectable"></path><path fill="#5068a9" d="M 442.572 162.397 c -0.224 0 -0.451 -0.068 -0.646 -0.21 c -1.469 -1.065 -3.015 -2.124 -4.596 -3.149 c -0.511 -0.332 -0.656 -1.014 -0.325 -1.525 c 0.332 -0.511 1.015 -0.656 1.524 -0.325 c 1.613 1.046 3.191 2.127 4.69 3.214 c 0.493 0.357 0.603 1.047 0.245 1.54 C 443.251 162.24 442.914 162.397 442.572 162.397 z M 433.136 156.268 c -0.188 0 -0.379 -0.048 -0.554 -0.15 c -1.588 -0.925 -3.23 -1.833 -4.883 -2.697 c -0.539 -0.282 -0.747 -0.949 -0.465 -1.488 c 0.282 -0.539 0.946 -0.748 1.487 -0.465 c 1.682 0.879 3.354 1.803 4.97 2.745 c 0.525 0.307 0.703 0.982 0.397 1.508 C 433.885 156.072 433.515 156.268 433.136 156.268 z M 423.167 151.05 c -0.155 0 -0.315 -0.033 -0.466 -0.104 c -1.675 -0.783 -3.392 -1.54 -5.103 -2.251 c -0.562 -0.233 -0.829 -0.878 -0.595 -1.44 c 0.233 -0.563 0.877 -0.83 1.441 -0.595 c 1.74 0.723 3.487 1.494 5.191 2.29 c 0.551 0.258 0.789 0.914 0.53 1.465 C 423.979 150.815 423.582 151.05 423.167 151.05 z M 412.778 146.736 c -0.126 0 -0.253 -0.021 -0.377 -0.067 c -1.74 -0.635 -3.517 -1.239 -5.281 -1.797 c -0.58 -0.184 -0.902 -0.803 -0.719 -1.384 c 0.184 -0.58 0.801 -0.902 1.384 -0.718 c 1.794 0.568 3.602 1.183 5.371 1.828 c 0.572 0.209 0.867 0.841 0.658 1.413 C 413.65 146.458 413.228 146.736 412.778 146.736 z M 402.054 143.344 c -0.095 0 -0.191 -0.012 -0.287 -0.038 c -1.784 -0.48 -3.607 -0.929 -5.416 -1.332 c -0.595 -0.133 -0.97 -0.722 -0.836 -1.316 c 0.133 -0.595 0.726 -0.966 1.315 -0.835 c 1.841 0.411 3.693 0.866 5.509 1.355 c 0.588 0.158 0.938 0.763 0.779 1.351 C 402.985 143.02 402.54 143.344 402.054 143.344 z M 340.733 141.458 c -0.52 0 -0.981 -0.367 -1.082 -0.896 c -0.114 -0.598 0.278 -1.175 0.876 -1.289 c 1.858 -0.355 3.737 -0.677 5.585 -0.96 c 0.603 -0.089 1.164 0.322 1.256 0.923 c 0.092 0.602 -0.322 1.165 -0.924 1.256 c -1.82 0.278 -3.672 0.596 -5.504 0.946 C 340.871 141.451 340.802 141.458 340.733 141.458 z M 391.075 140.895 c -0.064 0 -0.129 -0.005 -0.193 -0.018 c -1.82 -0.323 -3.674 -0.612 -5.512 -0.859 c -0.604 -0.081 -1.026 -0.636 -0.946 -1.239 c 0.081 -0.604 0.63 -1.025 1.239 -0.946 c 1.869 0.251 3.754 0.544 5.604 0.874 c 0.599 0.107 0.998 0.679 0.892 1.278 C 392.064 140.52 391.6 140.895 391.075 140.895 z M 351.852 139.762 c -0.553 0 -1.029 -0.415 -1.093 -0.977 c -0.069 -0.605 0.365 -1.151 0.97 -1.22 c 1.878 -0.214 3.777 -0.393 5.644 -0.531 c 0.605 -0.048 1.137 0.41 1.182 1.017 c 0.045 0.607 -0.411 1.136 -1.018 1.181 c -1.839 0.137 -3.708 0.313 -5.558 0.523 C 351.935 139.76 351.894 139.762 351.852 139.762 z M 379.928 139.4 c -0.033 0 -0.066 -0.001 -0.101 -0.004 c -1.84 -0.167 -3.712 -0.298 -5.565 -0.388 c -0.608 -0.03 -1.076 -0.547 -1.048 -1.155 c 0.03 -0.608 0.547 -1.077 1.155 -1.047 c 1.884 0.092 3.787 0.224 5.658 0.394 c 0.605 0.056 1.053 0.592 0.997 1.198 C 380.974 138.97 380.492 139.4 379.928 139.4 z M 363.07 138.931 c -0.592 0 -1.081 -0.469 -1.102 -1.065 c -0.021 -0.608 0.457 -1.119 1.064 -1.139 c 1.58 -0.054 3.169 -0.081 4.723 -0.081 l 0.945 0.003 c 0.609 0.004 1.1 0.501 1.096 1.11 c -0.005 0.608 -0.483 1.132 -1.11 1.095 l -0.931 -0.003 c -1.528 0 -3.092 0.026 -4.648 0.079 C 363.096 138.931 363.082 138.931 363.07 138.931 z" transform="matrix(.84 0 0 .84 -314.996 -209.997)" class="svgShape color6865b8-87 selectable"></path><path fill="#5068a9" d="M 332.527 143.253 c -0.495 0 -0.944 -0.336 -1.068 -0.838 c -0.146 -0.591 0.215 -1.188 0.806 -1.334 c 0.904 -0.224 1.804 -0.437 2.699 -0.642 c 0.599 -0.14 1.184 0.235 1.32 0.828 c 0.137 0.594 -0.234 1.185 -0.828 1.32 c -0.884 0.203 -1.772 0.413 -2.663 0.633 C 332.704 143.243 332.615 143.253 332.527 143.253 z" transform="matrix(.84 0 0 .84 -315 -209.997)" class="svgShape color6865b8-88 selectable"></path><path fill="#5068a9" d="M330.142 144.372c0 1.863-1.51 3.372-3.373 3.372-1.862 0-3.372-1.51-3.372-3.372 0-1.863 1.51-3.373 3.372-3.373C328.632 140.999 330.142 142.509 330.142 144.372zM457.703 171.619c0 1.863-1.511 3.373-3.373 3.373s-3.372-1.51-3.372-3.373c0-1.863 1.51-3.372 3.372-3.372S457.703 169.756 457.703 171.619z" transform="matrix(.84 0 0 .84 -314.997 -210)" class="svgShape color6865b8-89 selectable"></path><path fill="#5068a9" d="M 418.002 224.281 c -0.595 0 -1.085 -0.474 -1.102 -1.072 c -0.049 -1.781 0.029 -2.821 0.032 -2.864 c 0.046 -0.607 0.577 -1.067 1.182 -1.015 c 0.606 0.045 1.061 0.574 1.017 1.181 c -0.001 0.01 -0.071 0.983 -0.026 2.638 c 0.017 0.608 -0.464 1.116 -1.071 1.132 C 418.022 224.281 418.013 224.281 418.002 224.281 z" transform="matrix(.84 0 0 .84 -314.998 -209.992)" class="svgShape color6865b8-90 selectable"></path><path fill="#5068a9" d="M 458.511 274.484 c -0.105 0 -0.213 -0.014 -0.319 -0.047 c -1.898 -0.574 -3.76 -1.217 -5.53 -1.906 c -0.567 -0.221 -0.848 -0.859 -0.627 -1.428 c 0.222 -0.568 0.861 -0.848 1.428 -0.625 c 1.718 0.668 3.524 1.291 5.369 1.85 c 0.582 0.176 0.912 0.793 0.735 1.375 C 459.422 274.178 458.985 274.484 458.511 274.484 z M 447.781 270.291 c -0.163 0 -0.329 -0.037 -0.485 -0.113 c -1.776 -0.875 -3.505 -1.83 -5.138 -2.84 c -0.518 -0.318 -0.679 -0.998 -0.358 -1.516 c 0.319 -0.52 0.999 -0.678 1.517 -0.359 c 1.573 0.971 3.24 1.893 4.952 2.736 c 0.547 0.27 0.771 0.93 0.503 1.475 C 448.579 270.065 448.188 270.291 447.781 270.291 z M 437.995 264.227 c -0.234 0 -0.473 -0.076 -0.673 -0.23 c -1.563 -1.209 -3.062 -2.504 -4.453 -3.852 c -0.438 -0.422 -0.448 -1.121 -0.025 -1.559 c 0.424 -0.438 1.121 -0.447 1.559 -0.025 c 1.334 1.291 2.77 2.533 4.268 3.692 c 0.482 0.371 0.571 1.064 0.198 1.545 C 438.651 264.078 438.325 264.227 437.995 264.227 z M 429.73 256.213 c -0.319 0 -0.636 -0.137 -0.853 -0.402 c -1.24 -1.514 -2.406 -3.117 -3.464 -4.768 c -0.328 -0.513 -0.18 -1.195 0.332 -1.524 c 0.512 -0.33 1.193 -0.18 1.523 0.333 c 1.012 1.578 2.127 3.113 3.313 4.56 c 0.387 0.473 0.316 1.166 -0.154 1.553 C 430.224 256.133 429.976 256.213 429.73 256.213 z M 423.511 246.525 c -0.408 0 -0.799 -0.227 -0.99 -0.617 c -0.856 -1.745 -1.631 -3.568 -2.301 -5.421 c -0.206 -0.572 0.09 -1.205 0.662 -1.411 c 0.57 -0.206 1.204 0.089 1.411 0.662 c 0.642 1.777 1.386 3.526 2.206 5.199 c 0.268 0.547 0.043 1.207 -0.504 1.475 C 423.839 246.488 423.673 246.525 423.511 246.525 z M 419.583 235.692 c -0.495 0 -0.945 -0.336 -1.069 -0.838 c -0.468 -1.899 -0.843 -3.843 -1.114 -5.779 c -0.085 -0.603 0.336 -1.16 0.94 -1.245 c 0.601 -0.09 1.159 0.336 1.244 0.939 c 0.261 1.861 0.621 3.731 1.071 5.557 c 0.145 0.591 -0.216 1.188 -0.807 1.333 C 419.76 235.682 419.67 235.692 419.583 235.692 z" transform="matrix(.84 0 0 .84 -315 -209.996)" class="svgShape color6865b8-91 selectable"></path><path fill="#5068a9" d="M 466.823 276.549 c -0.07 0 -0.142 -0.006 -0.215 -0.021 c -0.928 -0.184 -1.836 -0.379 -2.727 -0.582 c -0.594 -0.137 -0.965 -0.729 -0.828 -1.32 c 0.137 -0.594 0.73 -0.965 1.321 -0.828 c 0.87 0.199 1.759 0.389 2.662 0.568 c 0.598 0.119 0.986 0.699 0.867 1.295 C 467.8 276.185 467.339 276.549 466.823 276.549 z" transform="matrix(.84 0 0 .84 -314.995 -210.004)" class="svgShape color6865b8-92 selectable"></path><path fill="#5068a9" d="M 421.404 213.814 c 0 1.863 -1.511 3.372 -3.372 3.372 c -1.862 0 -3.373 -1.51 -3.373 -3.372 c 0 -1.863 1.511 -3.373 3.373 -3.373 C 419.894 210.441 421.404 211.951 421.404 213.814 z" transform="matrix(.84 0 0 .84 -314.995 -210)" class="svgShape color6865b8-93 selectable"></path><path fill="#5068a9" d="M 476.261 275.447 c 0 1.863 -1.511 3.371 -3.373 3.371 c -1.861 0 -3.372 -1.508 -3.372 -3.371 c 0 -1.863 1.511 -3.373 3.372 -3.373 C 474.75 272.074 476.261 273.584 476.261 275.447 z" transform="matrix(.84 0 0 .84 -314.998 -210.008)" class="svgShape color6865b8-94 selectable"></path><path fill="#5068a9" d="M 344.965 355.586 c -0.334 0 -0.663 -0.15 -0.88 -0.438 c -1.088 -1.434 -1.626 -2.279 -1.648 -2.314 c -0.326 -0.514 -0.174 -1.193 0.34 -1.52 c 0.515 -0.328 1.194 -0.176 1.521 0.338 c 0.005 0.008 0.518 0.813 1.544 2.166 c 0.367 0.484 0.272 1.178 -0.213 1.545 C 345.43 355.514 345.196 355.586 344.965 355.586 z" transform="matrix(.84 0 0 .84 -315.003 -209.992)" class="svgShape color6865b8-95 selectable"></path><path fill="#5068a9" d="M 430.043 394.113 c -0.524 0 -1.046 -0.004 -1.565 -0.008 c -0.608 -0.008 -1.097 -0.506 -1.091 -1.115 c 0.007 -0.605 0.499 -1.09 1.102 -1.09 c 0.003 0 0.008 0 0.012 0 c 1.818 0.02 3.67 0.004 5.553 -0.051 c 0.011 0 0.021 0 0.033 0 c 0.593 0 1.083 0.473 1.102 1.07 c 0.017 0.607 -0.462 1.115 -1.07 1.135 C 432.743 394.094 431.385 394.113 430.043 394.113 z M 422.899 393.922 c -0.021 0 -0.041 0 -0.061 -0.002 c -1.895 -0.102 -3.788 -0.246 -5.626 -0.428 c -0.605 -0.059 -1.049 -0.6 -0.988 -1.205 c 0.059 -0.605 0.571 -1.047 1.205 -0.988 c 1.807 0.178 3.667 0.318 5.53 0.422 c 0.606 0.031 1.073 0.551 1.039 1.16 C 423.967 393.467 423.48 393.922 422.899 393.922 z M 439.675 393.781 c -0.575 0 -1.06 -0.447 -1.1 -1.027 c -0.041 -0.609 0.418 -1.135 1.025 -1.176 c 1.816 -0.123 3.679 -0.285 5.535 -0.48 c 0.592 -0.07 1.147 0.373 1.211 0.98 c 0.064 0.604 -0.375 1.147 -0.98 1.211 c -1.883 0.199 -3.772 0.363 -5.615 0.49 C 439.726 393.779 439.699 393.781 439.675 393.781 z M 411.768 392.822 c -0.053 0 -0.105 -0.004 -0.159 -0.012 c -1.859 -0.271 -3.732 -0.588 -5.567 -0.945 c -0.597 -0.115 -0.988 -0.693 -0.872 -1.291 c 0.116 -0.598 0.697 -0.99 1.292 -0.873 c 1.801 0.35 3.64 0.662 5.464 0.928 c 0.604 0.088 1.021 0.646 0.933 1.248 C 412.777 392.426 412.308 392.822 411.768 392.822 z M 450.804 392.609 c -0.54 0 -1.012 -0.397 -1.09 -0.947 c -0.085 -0.604 0.333 -1.162 0.937 -1.246 c 1.818 -0.258 3.667 -0.551 5.491 -0.873 c 0.597 -0.1 1.171 0.297 1.277 0.897 c 0.104 0.6 -0.296 1.172 -0.896 1.277 c -1.849 0.322 -3.721 0.621 -5.563 0.881 C 450.907 392.605 450.854 392.609 450.804 392.609 z M 400.788 390.685 c -0.087 0 -0.176 -0.01 -0.264 -0.031 c -1.821 -0.447 -3.655 -0.945 -5.452 -1.484 c -0.583 -0.176 -0.914 -0.789 -0.739 -1.373 c 0.174 -0.584 0.787 -0.916 1.372 -0.74 c 1.762 0.529 3.56 1.02 5.345 1.455 c 0.591 0.147 0.953 0.744 0.809 1.334 C 401.734 390.35 401.283 390.685 400.788 390.685 z M 461.828 390.676 c -0.512 0 -0.969 -0.357 -1.078 -0.879 c -0.125 -0.594 0.258 -1.18 0.853 -1.303 c 1.812 -0.379 3.639 -0.789 5.428 -1.221 c 0.6 -0.141 1.188 0.223 1.33 0.814 c 0.143 0.592 -0.223 1.188 -0.813 1.33 c -1.812 0.435 -3.66 0.85 -5.494 1.232 C 461.978 390.668 461.902 390.676 461.828 390.676 z M 472.71 388.06 c -0.486 0 -0.931 -0.322 -1.063 -0.814 c -0.16 -0.586 0.188 -1.191 0.774 -1.35 c 1.753 -0.475 3.554 -0.99 5.353 -1.531 c 0.59 -0.174 1.197 0.156 1.373 0.738 c 0.175 0.584 -0.156 1.199 -0.738 1.375 c -1.819 0.545 -3.64 1.065 -5.41 1.545 C 472.902 388.049 472.806 388.06 472.71 388.06 z M 390.072 387.473 c -0.123 0 -0.249 -0.02 -0.371 -0.064 c -1.778 -0.635 -3.553 -1.32 -5.272 -2.037 c -0.563 -0.234 -0.828 -0.881 -0.594 -1.441 c 0.235 -0.563 0.881 -0.828 1.441 -0.594 c 1.686 0.701 3.425 1.373 5.167 1.996 c 0.573 0.205 0.872 0.836 0.667 1.41 C 390.949 387.191 390.524 387.473 390.072 387.473 z M 483.431 384.846 c -0.464 0 -0.895 -0.295 -1.047 -0.758 c -0.19 -0.58 0.125 -1.201 0.702 -1.393 c 1.74 -0.57 3.495 -1.172 5.27 -1.805 c 0.576 -0.203 1.203 0.096 1.409 0.67 c 0.203 0.572 -0.096 1.203 -0.669 1.408 c -1.791 0.639 -3.565 1.244 -5.32 1.822 C 483.66 384.828 483.545 384.846 483.431 384.846 z M 379.745 383.166 c -0.159 0 -0.323 -0.035 -0.477 -0.109 c -1.69 -0.811 -3.382 -1.682 -5.029 -2.586 c -0.534 -0.293 -0.73 -0.961 -0.438 -1.496 c 0.292 -0.533 0.963 -0.73 1.496 -0.436 c 1.615 0.885 3.271 1.736 4.926 2.531 c 0.548 0.264 0.779 0.922 0.516 1.471 C 380.55 382.935 380.156 383.166 379.745 383.166 z M 369.935 377.785 c -0.198 0 -0.399 -0.055 -0.58 -0.166 c -1.595 -0.99 -3.184 -2.037 -4.724 -3.115 c -0.499 -0.35 -0.62 -1.037 -0.271 -1.535 c 0.35 -0.498 1.037 -0.621 1.535 -0.272 c 1.507 1.055 3.063 2.08 4.622 3.049 c 0.518 0.32 0.676 1 0.355 1.518 C 370.664 377.6 370.304 377.785 369.935 377.785 z M 360.767 371.367 c -0.238 0 -0.477 -0.076 -0.68 -0.234 c -1.486 -1.168 -2.95 -2.385 -4.352 -3.621 c -0.456 -0.402 -0.5 -1.098 -0.098 -1.555 c 0.402 -0.457 1.099 -0.502 1.556 -0.098 c 1.37 1.207 2.802 2.398 4.255 3.539 c 0.479 0.377 0.563 1.07 0.187 1.547 C 361.417 371.225 361.094 371.367 360.767 371.367 z M 352.374 363.965 c -0.281 0 -0.562 -0.105 -0.776 -0.318 c -1.359 -1.348 -2.672 -2.732 -3.9 -4.115 c -0.404 -0.457 -0.363 -1.152 0.092 -1.557 c 0.455 -0.406 1.152 -0.363 1.556 0.092 c 1.198 1.35 2.478 2.699 3.805 4.014 c 0.433 0.43 0.436 1.127 0.007 1.559 C 352.94 363.857 352.657 363.965 352.374 363.965 z" transform="matrix(.84 0 0 .84 -315 -209.996)" class="svgShape color6865b8-96 selectable"></path><path fill="#5068a9" d="M 494.008 381.08 c -0.443 0 -0.861 -0.268 -1.029 -0.707 c -0.217 -0.568 0.067 -1.207 0.636 -1.424 c 0.849 -0.324 1.7 -0.656 2.557 -0.994 c 0.565 -0.225 1.206 0.053 1.43 0.619 c 0.225 0.566 -0.053 1.207 -0.618 1.43 c -0.864 0.342 -1.725 0.676 -2.581 1.004 C 494.272 381.057 494.14 381.08 494.008 381.08 z" transform="matrix(.84 0 0 .84 -314.994 -210.003)" class="svgShape color6865b8-97 selectable"></path><path fill="#5068a9" d="M 505.651 375.34 c 0 1.863 -1.51 3.371 -3.372 3.371 c -1.862 0 -3.372 -1.508 -3.372 -3.371 c 0 -1.863 1.51 -3.373 3.372 -3.373 C 504.142 371.967 505.651 373.477 505.651 375.34 z" transform="matrix(.84 0 0 .84 -315.005 -210.006)" class="svgShape color6865b8-98 selectable"></path><path fill="#5068a9" d="M 342.957 347.17 c 0 1.863 -1.51 3.373 -3.372 3.373 s -3.372 -1.51 -3.372 -3.373 c 0 -1.863 1.51 -3.371 3.372 -3.371 S 342.957 345.307 342.957 347.17 z" transform="matrix(.84 0 0 .84 -314.997 -210.003)" class="svgShape color6865b8-99 selectable"></path><path fill="#5068a9" d="M 587.116 352.408 c -0.049 0 -0.101 -0.002 -0.151 -0.01 c -1.759 -0.242 -2.74 -0.438 -2.781 -0.445 c -0.598 -0.119 -0.985 -0.701 -0.865 -1.297 c 0.118 -0.596 0.702 -0.992 1.296 -0.865 c 0.01 0 0.967 0.19 2.652 0.424 c 0.602 0.082 1.024 0.639 0.94 1.242 C 588.132 352.01 587.659 352.408 587.116 352.408 z" transform="matrix(.84 0 0 .84 -314.998 -210.006)" class="svgShape color6865b8-100 selectable"></path><path fill="#5068a9" d="M 603.205 353.332 c -0.601 0 -1.093 -0.482 -1.103 -1.084 c -0.01 -0.609 0.477 -1.111 1.084 -1.121 c 1.772 -0.029 3.562 -0.104 5.323 -0.219 c 0.601 -0.033 1.132 0.42 1.172 1.027 c 0.04 0.608 -0.419 1.133 -1.027 1.172 c -1.798 0.119 -3.625 0.195 -5.431 0.225 C 603.217 353.332 603.211 353.332 603.205 353.332 z M 597.827 353.289 c -0.012 0 -0.023 0 -0.035 0 c -1.81 -0.057 -3.635 -0.16 -5.424 -0.305 c -0.607 -0.049 -1.058 -0.582 -1.009 -1.188 c 0.049 -0.607 0.59 -1.049 1.188 -1.01 c 1.753 0.143 3.541 0.242 5.313 0.297 c 0.608 0.019 1.086 0.529 1.068 1.137 C 598.909 352.818 598.419 353.289 597.827 353.289 z M 613.938 352.617 c -0.551 0 -1.027 -0.412 -1.094 -0.973 c -0.072 -0.604 0.36 -1.152 0.965 -1.225 c 1.768 -0.209 3.539 -0.469 5.264 -0.77 c 0.597 -0.102 1.171 0.297 1.275 0.897 s -0.297 1.17 -0.896 1.275 c -1.764 0.307 -3.574 0.572 -5.383 0.787 C 614.025 352.615 613.981 352.617 613.938 352.617 z M 624.529 350.758 c -0.499 0 -0.951 -0.342 -1.071 -0.85 c -0.141 -0.592 0.227 -1.186 0.818 -1.326 c 1.74 -0.412 3.465 -0.877 5.124 -1.383 c 0.584 -0.184 1.199 0.148 1.376 0.732 c 0.179 0.582 -0.15 1.197 -0.732 1.375 c -1.704 0.521 -3.474 0.998 -5.26 1.42 C 624.699 350.748 624.613 350.758 624.529 350.758 z M 634.81 347.613 c -0.443 0 -0.862 -0.27 -1.03 -0.709 c -0.217 -0.568 0.069 -1.205 0.638 -1.422 c 1.66 -0.633 3.301 -1.328 4.878 -2.064 c 0.553 -0.254 1.208 -0.02 1.465 0.533 c 0.258 0.551 0.02 1.207 -0.532 1.465 c -1.625 0.758 -3.314 1.475 -5.025 2.127 C 635.074 347.592 634.94 347.613 634.81 347.613 z M 644.543 343.06 c -0.385 0 -0.758 -0.201 -0.961 -0.56 c -0.3 -0.529 -0.112 -1.203 0.417 -1.502 c 1.537 -0.869 3.05 -1.807 4.493 -2.783 c 0.504 -0.34 1.189 -0.211 1.53 0.295 c 0.342 0.504 0.209 1.189 -0.295 1.531 c -1.492 1.01 -3.055 1.979 -4.643 2.875 C 644.913 343.014 644.727 343.06 644.543 343.06 z M 653.43 337.033 c -0.322 0 -0.642 -0.139 -0.859 -0.41 c -0.382 -0.473 -0.308 -1.168 0.166 -1.549 c 1.371 -1.105 2.704 -2.279 3.962 -3.486 c 0.438 -0.42 1.137 -0.408 1.559 0.033 c 0.421 0.439 0.406 1.137 -0.033 1.559 c -1.302 1.25 -2.683 2.465 -4.102 3.609 C 653.917 336.955 653.672 337.033 653.43 337.033 z M 661.178 329.607 c -0.259 0 -0.518 -0.09 -0.729 -0.273 c -0.456 -0.404 -0.501 -1.1 -0.099 -1.557 c 1.15 -1.309 2.267 -2.689 3.319 -4.105 c 0.364 -0.488 1.053 -0.588 1.542 -0.227 c 0.489 0.363 0.59 1.053 0.228 1.543 c -1.088 1.465 -2.243 2.893 -3.434 4.246 C 661.787 329.48 661.483 329.607 661.178 329.607 z M 667.578 320.994 c -0.199 0 -0.401 -0.053 -0.583 -0.168 c -0.516 -0.322 -0.673 -1.002 -0.35 -1.518 c 0.918 -1.471 1.803 -3.014 2.628 -4.588 c 0.282 -0.539 0.947 -0.744 1.489 -0.463 c 0.539 0.283 0.747 0.949 0.464 1.488 c -0.852 1.623 -1.765 3.215 -2.713 4.73 C 668.305 320.813 667.945 320.994 667.578 320.994 z M 672.572 311.494 c -0.146 0 -0.298 -0.029 -0.44 -0.092 c -0.558 -0.244 -0.813 -0.895 -0.568 -1.451 c 0.697 -1.598 1.357 -3.252 1.961 -4.922 c 0.208 -0.572 0.841 -0.869 1.411 -0.662 c 0.573 0.207 0.869 0.838 0.662 1.412 c -0.62 1.713 -1.298 3.414 -2.015 5.055 C 673.402 311.248 672.997 311.494 672.572 311.494 z" transform="matrix(.84 0 0 .84 -314.998 -209.999)" class="svgShape color6865b8-101 selectable"></path><path fill="#5068a9" d="M 676.249 301.344 c -0.104 0 -0.208 -0.014 -0.313 -0.045 c -0.583 -0.172 -0.917 -0.785 -0.744 -1.369 c 0.254 -0.861 0.497 -1.734 0.731 -2.623 c 0.156 -0.588 0.76 -0.938 1.347 -0.785 c 0.589 0.156 0.94 0.758 0.785 1.348 c -0.239 0.908 -0.489 1.805 -0.75 2.686 C 677.164 301.035 676.726 301.344 676.249 301.344 z" transform="matrix(.84 0 0 .84 -315 -210.003)" class="svgShape color6865b8-102 selectable"></path><path fill="#5068a9" d="M 581.342 348.871 c 0 1.863 -1.511 3.373 -3.373 3.373 c -1.862 0 -3.372 -1.51 -3.372 -3.373 c 0 -1.863 1.51 -3.373 3.372 -3.373 C 579.831 345.498 581.342 347.008 581.342 348.871 z" transform="matrix(.84 0 0 .84 -315.005 -210)" class="svgShape color6865b8-103 selectable"></path><path fill="#5068a9" d="M 682.017 290.635 c 0 1.863 -1.51 3.373 -3.372 3.373 s -3.373 -1.51 -3.373 -3.373 c 0 -1.863 1.511 -3.373 3.373 -3.373 S 682.017 288.772 682.017 290.635 z" transform="matrix(.84 0 0 .84 -314.998 -210)" class="svgShape color6865b8-104 selectable"></path></g></svg></g></svg>