<svg xmlns="http://www.w3.org/2000/svg" width="2000" height="559"><path fill="#3080fd" d="m390 5 2.9.6c37.6 8.3 70 24.9 99.2 50l5.7 4.6c2.5 2 4.2 4.3 6.2 6.8l2.2 2.2a254 254 0 0 1 10 10.6C518 82 518 82 518 84h2l1 4h2l1 2c4.7-.7 8.7-2.5 13-4.3 38.3-16 81.8-18 121-3.7l3 1a152 152 0 0 1 41.2 23.7q7 5.2 13.4 11.1l1.6 1.5 3.8 3.7v2l1.8.7c20.5 11.7 33.3 48.2 39.5 69.7A158 158 0 0 1 767 256l1.7.5a90 90 0 0 1 15.6 6.6l2.2 1.2c9.8 5.4 18.1 12.1 26.3 19.7l5.8 5 2.4 2v2l4 2v2h2q3 3.5 5.6 7.2l1.7 2.2a155 155 0 0 1 30 112.7A158 158 0 0 1 845 474l-1.7 2.9a205 205 0 0 1-18 24.3A90 90 0 0 1 813 513l-2.4 2a153 153 0 0 1-100 37.1H476.4l-187.1.1H162.6c-38.8.1-73.5-8.1-104.6-32.2l-3-2.2a142 142 0 0 1-28.8-31.1l-3-4.1a122 122 0 0 1-19.7-44.4l-1.2-4.8A80 80 0 0 1-.5 412v-3.4l-.3-17.3C-1 357 13.1 328 33 301l1.7-2.4L36 297h2l.8-1.7c1.4-2.7 3-4.4 5.2-6.6l2.1-2C48 285 48 285 50 285v-2q3.5-3 7.1-5.6l2.2-1.6L66 271l1.8-1.3c15.3-11 33-17.5 51.2-21.7l3-.7c7.6-1.6 15.3-1.9 23-2.3l-.4-1.9c-2-10.5-2-21-2-31.6v-3A190 190 0 0 1 164 118l1.6-3 5.8-10.4a214 214 0 0 1 33.7-43l2-2 3.5-3.4C212 55 212 55 214 55l1-3c1.6-1.5 1.6-1.5 3.6-3l2.3-1.7 2.5-1.8 2.6-1.9a227 227 0 0 1 90.3-39.1A183 183 0 0 1 390 5m-78 50-2.1.6q-7 2-13.9 4.4l-3.2 1a149 149 0 0 0-61.8 43v2h-2l-4.6 5.6-1.3 1.7a164 164 0 0 0-31.2 123.2c2.4 15.3 7.6 30 12.3 44.8l1.1 3.4 2.7 8.3h-2.1l-30.3-.2c-30.8-.2-60.8 1.2-86.6 20.2v2l-1.8.9c-2.4 1.1-2.4 1.1-5.2 3.1v2l-1.8.8c-7.2 4-11.8 11.5-16.2 18.2l-1.7 2.5A102 102 0 0 0 48 418.2 107 107 0 0 0 74 469l2.3 3c14.9 17.8 40.1 28.2 62.7 31a282 282 0 0 0 20 .3l12.3.1h13.4l47.4.3a48418 48418 0 0 0 352.4 0l120.7-.3a111 111 0 0 0 47.7-8.2A113 113 0 0 0 781 477l2.5-2c19-15.9 29.6-41.9 32.5-66q2.4-48.3-29.6-84.7c-1.3-1.5-1.3-1.5-3.4-1.3v-2c-18.8-17.2-40.4-24.7-65-30l-3-.6-2.9-.6-2.1-.8c-1.4-4.2 0-7.4 1.2-11.5l1.4-5.2.7-2.7.7-2.6.6-2.4c6.4-24.5 5.2-51.4-5.6-74.6l-.9-1.9A109 109 0 0 0 685 153h-2l-2-4h-2v-2a116 116 0 0 0-72-29l-2.7-.1c-33.3-.8-61.8 12-86.5 33.5-1 1-1 1-2.1 1.8l-1.9 1.6C512 156 512 156 508 156c-1.5-1.8-1.5-1.8-3-4.4l-1.6-2.9-1.7-3-3.5-6.1-1.7-3A155 155 0 0 0 470 100h-2v-2h-2v-2h-2v-2h-2l-1-3c-18.5-17.8-43.6-29.2-68-36l-2.6-.7c-24-6.4-54.6-6.4-78.4.7"/><path fill="#3080fd" d="m652 337 2 1c-6.2 17.9-30 38-45 49.3-2 1.6-3.4 3.2-5 5.2l-2 2.5h-2l-2 4h-2l-.7 1.6c-2.9 5.2-7.1 9.2-11.3 13.4l-9.9 11.1-6.8 8-1.6 1.9-1.4 1.8C563 438 563 438 561 438v2c-1.6 1.7-1.6 1.7-3.8 3.6l-2.2 1.8c-2 1.6-2 1.6-5 2.6v2a92 92 0 0 1-7.3 5.8A205 205 0 0 1 465 493l-2.6.6a175 175 0 0 1-83.4-1.5 180 180 0 0 1-81.8-45c-2-2.1-2-2.1-4.2-3.1v-2l-1.8-.8a16 16 0 0 1-5.2-4.2v-2l-2-.8c-2-1.2-2-1.2-3-4.2h-2c-1.6-1.8-1.6-1.8-3.5-4.3a225 225 0 0 0-12.1-14l-8-9-3.8-4C250 397 250 397 250 395l-3-1-3.2-3.7a48 48 0 0 0-10.3-9L232 380v-2l-1.8-.8a22 22 0 0 1-5.6-4.5l-1.7-1.8-1.9-1.9-7.7-7.6-2.6-2.6-2.7-2.6c-2-2.2-2-2.2-2-4.2h-2v-5c2-.8 2-.8 5-1q4 2.2 7.8 5.3l4.5 3.3 2.4 1.7A345 345 0 0 0 389 419l4 .4A352 352 0 0 0 597.4 374c19.2-10.6 38-22.6 54.5-37.1m417.9-264h21.3c2.9.1 2.9.1 3.9 1.1l.2 8.5.2 10.8.2 15.3.4 34.4h72l.6-45.3v-6.4l.2-10.9v-3.7c.2-2.7.2-2.7 1.2-3.7h32c1.4 2.9 1.1 5.4 1.1 8.6v159.6c-.1 2.8-.1 2.8-1.1 3.8h-33v-74l-4 1-6.8.1h-28l-34.2-.1-1 73h-33c-1.2-3.5-1.1-6-1-9.7v-27.5l.2-14 .6-113.3v-3.8c.3-5.2 3.5-3.8 8-3.8"/><path fill="#3081fd" d="M1302 326.8h16.3c10.4 0 10.4 0 12.7 1.2v176h-30l-3-13-5 2v2c-11.7 10.8-24.6 12.9-39.9 12.4A59 59 0 0 1 1213 487a71 71 0 0 1-14.8-53 63 63 0 0 1 6.8-23l1.4-2.6a61 61 0 0 1 36.4-28.6c16.4-3.7 32.9-1 47 7.6q3.3 2.6 6.2 5.6l.5-17.4V373q.6-18.2.4-36.5v-3l-.1-2.5c.4-3.5 1.8-4 5.1-4.2m-63 93.2a39 39 0 0 0-4 7l-1.7 3.5c-3.2 9-2.2 19.5 1.4 28 4.4 8.5 10.3 14 19.1 17.6 8.6 2.4 19 2 27-1.8q5.2-2.9 9.2-7.3v-2h2a46 46 0 0 0 4.7-35c-2.8-7.8-8.9-15-16.5-18.9-5-2.1-9.7-2.6-15.1-2.5h-2.4A31 31 0 0 0 1239 420"/><path fill="#3080fd" d="M1462.5 386.1A61 61 0 0 1 1478 399l1.8 2.1a69.6 69.6 0 0 1-11.1 94.9c-14 10.5-29.8 12.2-46.7 11a58 58 0 0 1-28-15l.2 61.3c-.2 2.7-.2 2.7-2.2 4.7-5 1.8-10.7 1.2-16 1.2h-9.5c-2.6-.2-4.1-1-6.5-2.2l-.1-167.3v-3.9c.1-2.8.1-2.8 1.1-3.8q6.7-.6 13.4-.7l3.8-.3 3.6-.1 3.4-.2c2.8.3 2.8.3 4.6 1.7 1.6 2.2 2 4.1 2.4 6.8l.5 2.7.3 2.1c3 0 3.9-1.6 6-3.7 17-15.4 44.4-15.6 63.5-4.2m-61.8 32.8a38 38 0 0 0-5.7 10.1l-1 2.8a40 40 0 0 0 1.7 27 38 38 0 0 0 18 17.3 43 43 0 0 0 28.2-1.8q5.2-2.9 9.1-7.3v-2h2c4.1-8.2 4.1-8.2 6-17l.2-2.2a39 39 0 0 0-9.2-27.8q-7.7-8.7-19.4-9.4h-6.9c-9.7.3-16.3 3-23 10.3m43.1-299.3h3c15.5.3 28.7 6.3 40 17a65 65 0 0 1 17.5 47.5v3.4a65 65 0 0 1-18.8 45.1c-13.5 12.8-28.5 16-46.4 15.7-12-.5-21-5.4-30.3-12.5l-2.2-1.6-1.6-1.2.1 62.4c-.1 2.6-.1 2.6-1.1 3.6l-6.8.1h-21.3c-2.9-.1-2.9-.1-3.9-1.1l-.1-6.8V248l.1-124.9 13.3-.6 3.8-.1 3.7-.2 3.4-.1c2.8 0 2.8 0 5.8 1 .7 1.9.7 1.9 1.2 4.3l.5 2.3q.5 3.7.3 7.4l1.4-1.3a53 53 0 0 1 38.4-16.1M1414 158a39 39 0 0 0-9.3 29.3c.8 10.6 5 17.8 12.6 25 8.1 6.5 17.7 6.7 27.7 5.7a42 42 0 0 0 17-9v-2h2c6.3-11.8 9-21.5 5.3-34.7a34 34 0 0 0-6.3-12.3h-2l-1-3a35.6 35.6 0 0 0-46 1m187.8-38.4h3c14.8.3 28.2 5.9 39 16.2A64 64 0 0 1 1662 172l.4 3.1c1.9 18.6-1.5 37-13.4 51.9h-2l-.8 1.8c-3.6 6.7-10.6 10.2-17.1 13.5l-2 1a61 61 0 0 1-42.3 3q-7.4-2.7-13.8-7.3l-3-2v-2l-4-2v2.5l-.8 56.4v3.5c-.2 2.6-.2 2.6-1.2 3.6l-6.8.1h-21.3c-2.9-.1-2.9-.1-3.9-1.1l-.1-6.8V248l.1-124.9 21.7-.9 3.5-.1c2.8 0 2.8 0 4.8 1 .6 1.9.6 1.9 1.1 4.3l.5 2.3q.6 3.7.4 7.4l1.4-1.3a53 53 0 0 1 38.4-16.1M1571 159c-8.2 10.4-9 21.5-7.8 34.3a33 33 0 0 0 11.6 19.1 40 40 0 0 0 28.2 5.6q5.2-1.5 10-4l3.1-1.6 1.9-1.4v-2l1.8-.7c4.9-2.9 6.6-9.6 8.5-14.7 2.2-11.3.6-22.2-6-31.8l-2.3-2.8h-2v-2a35.6 35.6 0 0 0-47 2"/><path fill="#3081fd" d="M917.9 331.9h70.3l39.8.1v17.4l.1 3.6v3.4c-.1 2.6-.1 2.6-1.1 3.6l-7.3.1h-45.5L949 360l1 43 71 1v26l-72 1v46h79v27l-101.6.1h-8.5c-1.9-.1-1.9-.1-2.9-1.1l-.1-8.7V335.8c.1-3.7.1-3.7 3-4"/><path fill="#2f80fd" d="M1332.2 134.5c13 13.9 13.1 31.3 13 49.2v19.2l-.1 14.2-.1 27.9h-29c-2.2-10.1-2.2-10.1-3-15l-1.9 2.5-2.1 2.5h-2v2c-11.3 10.3-24.5 11.8-39 11.3a47 47 0 0 1-16-3.3l-2.1-.8q-13.5-6.2-19.5-19.8a36 36 0 0 1-1.8-13.8V208c.1-6 1-10.8 4.4-16l1.4-2.5c6.5-10 18.8-14.6 30-17 4.4-.8 8.7-.7 13.1-.7h3l30.5.2-.4-4.7-.2-2.7c-.9-5.6-4-9.4-8.2-13a34 34 0 0 0-26.5-1.4c-6.8 2.8-8.9 8.3-11.7 14.8h-32c-2-5.8.8-12.3 3.2-17.7a55 55 0 0 1 31.6-25.5c22.4-5.7 47.6-3.3 65.4 12.7m-66.7 65.6a19 19 0 0 0-1.5 12.9c2 3.8 4.6 6 8.7 7.5a35 35 0 0 0 23.3-2.1 33 33 0 0 0 14-24.4l-18.9-.3c-13.8-.3-13.8-.3-25.6 6.4"/><path fill="#3080fd" d="M1677 123h36l5.6 14 10.3 25.4q3.5 8.7 6.8 17.5 4.4 11.7 9.3 23.1 6.9-14.4 12.9-29.3l7-17 .8-2L1779 123h35a51 51 0 0 1-5.2 15.8l-13.6 30.4q-2.5 5.4-4.7 10.8l-6.2 14-4.3 10q-3 7.4-6.8 14.5l-3 7.2-6.5 15.5-1.2 2.8q-4 9.4-8.5 18.6l-10 22.2-1.5 3.4-1.4 3.1c-1.1 2.6-1.1 2.6-1.6 5l-.5 1.7c-3 1.5-6.1 1.1-9.4 1.1h-2.2l-23.4-.1c-.8-2.4-1.1-3.6-.3-6l1-2.2 1.3-2.6 1.4-2.6q5.5-11.2 10.3-22.7 4.2-10 9.2-19.7c1.2-2.3 1.2-2.3 2.1-5.2h-2.8l-3.2-1a36 36 0 0 1-3-7.2l-1.5-4.5-.8-2.2q-1.5-4.1-3.5-8.1-7-15.3-13.2-31l-16.7-40.3-1.4-3.3-2.7-6.5-1.3-3-1-2.6c-.9-2.3-.9-2.3-.9-5.3m-64 266 2.1 1.4a55 55 0 0 1 17.2 20l1 1.8a60 60 0 0 1 6.1 30.1l.1 3.7a64 64 0 0 1-16.6 43.4 68 68 0 0 1-48.9 18 61 61 0 0 1-22-4.4l-2.2-.9A59 59 0 0 1 1521 474l-1.6-3a70 70 0 0 1-2.5-49.7 66 66 0 0 1 26.5-34c20.3-13.4 50-12 69.6 1.7m-58 29c-7.9 11.5-8.2 24.7-5.8 38.1 2.1 7.8 7.4 13 13.4 18a30 30 0 0 0 22.2 2.7A30 30 0 0 0 1602 463c4.8-11.4 6-25.2 2-37a35 35 0 0 0-14-15l-1.7-1.1c-11.8-4.5-25-1-33.2 8.1"/><path fill="#3081fd" d="M1830.8 386.6A47 47 0 0 1 1847 412l1.2 3.7q2.1 9.4 2 19.2V498c0 4.8 0 4.8-1.2 5.9l-7 .1h-20c-4.9 0-4.9 0-6-1.1a157 157 0 0 1-.2-13.5l-.2-28.2-.1-17.6c0-16.5 0-16.5-7.5-30.7a28 28 0 0 0-21.1-4.5 26 26 0 0 0-13.9 6.5h-2l-.9 1.8-2.1 4-1 2-1.1 1.8c-3 8.1-2.1 17.7-2.2 26.3l-.2 16.6-.2 12.4-.3 24.1-25.7.1h-2.2l-5.1-.1c-1-1-1-1-1.1-3v-32.4l.1-85.6a18 18 0 0 1 9.8-2.3h16.7c2.5.3 2.5.3 4.5 2.3a111 111 0 0 1 1.6 11l.4 3 2.3-2.3a52 52 0 0 1 66.5-8"/><path fill="#3080fd" d="M1153 384.7a52 52 0 0 1 21.6 36c1 7.2.6 14.5.6 21.8v19.3l-.1 14.3-.1 27.9h-33c-.8-4-1.1-7.2-1-11.3V487l.1-24v-15c.2-13 .1-25.6-8.5-35.9-5.6-4-13.3-4.5-19.9-3.7-8 1.8-14 4.6-18.7 11.6-5.6 10.4-5.2 21-5.3 32.4l-.2 16.2-.2 14-.3 21.4h-33V382c28-1 28-1 30 0q.7 3.7 1.1 7.6l.3 2.1.6 5.3 1.8-2a53 53 0 0 1 64.1-10.3"/><path fill="#2f80fd" d="M1896.7 348.8h14.7c9.5 0 9.5 0 10.6 1.2v31l23.1-.2h3.8c3.1.2 3.1.2 6.1 2.2.4 2.6.4 2.6.3 5.8v11c-.1 9-.1 9-1.3 10.2l-7.1.1h-2.1l-22.8-.1.6 43v3.7a48 48 0 0 0 2.4 16.3 55 55 0 0 0 13.6 1.4l12.3.4c2.1.2 2.1.2 3.1 1.2a121 121 0 0 1 .1 13.5v10.9c-.1 2.6-.1 2.6-1.1 3.6q-6.6.3-13.1.2l-6.6.1c-13.3.1-25.4-1.8-35.3-11.2-8.7-10-9.6-22.4-9.4-35.2l.1-15 .1-11.1.2-21.8h-12.8l-2.7.1h-2.6c-1.9-.1-1.9-.1-2.9-1.1v-27q7.4-1.1 15-1h6l.1-2.8q.7-10.2 1.8-20.5l.5-3.8c.8-3.7 1.4-4.8 5.3-5.1"/><path fill="#2e80fd" d="M340 191c2.7-.3 2.7-.3 6.1-.3h3.7l3.8.1h3.9l9.5.2q4 7.4 6.7 15.5 3.8 10.8 7.8 21.5 4.3 11.2 8.2 22.6l5.5 15.2 1 2.5 13.9 37.5.8 2.2q2.3 5.9 3.1 12l-12.9.1h-3.7l-3.5.1h-3.3c-2.6-.2-2.6-.2-4.6-2.2l-1.4-3.9-.8-2.3-.7-2.4-1.6-4.8-.6-2L377 292l-48-1-2 9q-.7 2.6-1.7 5l-1 2.5-.9 2.5-1 2.6c-2.3 6.3-2.3 6.3-3.4 7.4l-5.6.1h-10.6l-8.8-.1c-1.3-4.2-.4-6 1.5-10q3.8-8.4 6.8-17.2 4-11.6 8.2-23l16.9-45.8.9-2.5a839 839 0 0 0 9-25.6c.7-1.9.7-1.9 2.7-4.9m13 32a880 880 0 0 0-12 33.6l-1.2 3.7C338 265 338 265 337 270h33c-2.3-7.8-2.3-7.8-4.9-15.5l-1-2.8-1-3L354 223z"/><path fill="#2f80fd" d="M434 190.8h10.6l27-.1h3.5A60 60 0 0 1 510 201v2h2v2h2l2.4 4.2 1.3 2.3c2.7 5 3.7 9.5 4 15.1l.2 2.2a41 41 0 0 1-9 29.3 44 44 0 0 1-32.1 13.3l-11 .3-15.8.3-1 48h-24c-1.7-1.7-1.1-3.6-1.1-6V194.2c.2-4 2.6-3.2 6.2-3.3m19 22.2v37l13 .2h3.6c8.4.1 15.6-.2 22.3-5.6 4.2-5.2 4.6-10 4.5-16.6-.6-4.5-2.3-7.7-5.4-11-2.5-2-2.5-2-5-3l-2-1-8.4-.6h-2.4c-10.8-1.6-10.8-1.6-20.2.6"/><path fill="#3080fd" d="m1680.2 381 10.2.5c8.5.4 8.5.4 9.6 1.5l.1 4.7V501c-.1 2-.1 2-1.1 3h-33V382c5.1-.6 9.2-1.1 14.2-1M544.3 190.9h16.4c2.3.1 2.3.1 3.3 1.1l.1 5v119.9c-.1 2.1-.1 2.1-1.1 3.1l-5.6.1h-10.6l-8.8-.1-.1-116.1V194c.2-4.2 2.8-3.2 6.4-3.2"/><path fill="#2572fd" d="M755 544c-4.8 3-9 4.8-14.7 5.7l-4 .7q-12.7 1.8-25.6 1.7H476.3l-187.1.1H162.6c-33 .1-33 .1-39.6-3.2v-2l2 .2c11.6 1 23.2 1 34.9 1h545.6c15.2 0 29.3-.5 44-4.7 2.5-.5 2.5-.5 5.5.5"/><path fill="#2e7ffd" d="M680.3 328c9.6 9.8 13 22.4 12.9 35.8q-.5 10.4-6.2 19.2c-2.7 2.5-2.7 2.5-5 4a67 67 0 0 1-3.1-12.9 58 58 0 0 0-21.6-36.1 96 96 0 0 0-36.3-13c0-3 0-3 1.4-5 18.2-14.2 42.5-5.8 57.9 8"/><path fill="#2f80fd" d="M242.1 320c1.9 2 1.9 2 1.9 5l-3 .5a74 74 0 0 0-35 13.5l-2.3 1.7c-14.3 11.7-17.8 29-20.7 46.3-5.4-2.4-7.2-6.3-9.6-11.6a40 40 0 0 1-1.8-14.7v-2.8c.3-12 4.3-20.8 12.4-29.9h2l.8-1.8c4-7 13.8-10 21.2-12.2a44 44 0 0 1 34.1 6"/><path fill="#1063fd" d="M138 502h2.4a39097 39097 0 0 0 256.2 1.1 32378 32378 0 0 0 236.2-.8l86.5-.4q7 0 13.7 1.1c-7 3.8-15.4 3.1-23.1 3.1H144q-3-.2-6-1.1z"/><path fill="#2e7ffd" d="M1698 332v2h2c4 5.8 4 12.2 3 19q-3.5 7.9-11.6 11.4a34 34 0 0 1-18.8-.5c-5.3-3.9-9.3-7.3-10.6-13.9a22 22 0 0 1 4-16c3.3-4 6.1-5.6 11.1-6.7 8.1-.6 14.1.1 20.9 4.7"/><path fill="#2c80fd" d="m917.8 331.9 47.9.5 19.3.2 38 .4v1a805 805 0 0 1-57.5 1.1H955q-18.5-.2-37.1-1.1v168h108v-23h-78v-1a109 109 0 0 1 15.5-1.1h39.3l25.2.1v27l-101.6.1h-8.5c-1.9-.1-1.9-.1-2.9-1.1l-.1-8.7V335.8c.1-3.7.1-3.7 2.9-4"/><path fill="#2e81fd" d="M1170 73h32c1.4 2.9 1.1 5.4 1.1 8.6v159.6c-.1 2.8-.1 2.8-1.1 3.8h-33v-74l-4 1-6.9.1h-38.4l-24.7-.1-1-3 69-.1h2c4.9 0 4.9 0 6 1.1l.1 6.8v40.3l-.1 25.9h29V76h-29v68h-1z"/><path fill="#2075fe" d="M1069.8 72.9h21.3c2.9.1 2.9.1 3.9 1.1l.2 6.4v2l.3 23.7.2 12.4.3 24.5h2.1l41.4-.1h10c2.5.1 2.5.1 5.5 1.1l7.7.6h2.1l5.2.4v1l-69 .1h-2c-4.9 0-4.9 0-6-1.1l-.1-6.5V99.8l.1-24.8h-29v168h21v1l-23 1c-1.2-3.5-1.1-6-1-9.7v-27.5l.2-14 .6-113.3v-3.8c.3-5.2 3.5-3.8 8-3.8"/><path fill="#2178fd" d="M434 190.8h10.6l27-.1h3.5A60 60 0 0 1 510 201v2h2v2l2 1-3 1-2-2.3c-19-18.6-61-10.4-79-10.7v124h21v-10.5l-.1-26.9v-8.7c.1-1.9.1-1.9 1.1-2.9l7-.3h2.2l6.8-.2c13-.3 13-.3 26-1.5l-1 3q-6.8 1.3-13.8 1.3h-2l-7 .3-16.2.4-1 48h-24c-1.7-1.7-1.1-3.6-1.1-6V194.2c.2-4 2.6-3.2 6.2-3.3"/><path fill="#0a69fd" d="m123 547 2 .2c11.6 1 23.2 1 34.9 1h86.4l39.2.1h2.5l185.5.3h2.7l247.8.4v1l-569 1v1q-11.1.4-22.2-1l-2.2-.2c-5.3-.7-5.3-.7-7.6-1.8z"/><path fill="#2b7afe" d="m1390 382-1 3-27-1v171h29v-68h1v68l2 1c-4.6 4.6-12 3.2-18 3.2h-9.5c-2.6-.2-4.1-1-6.5-2.2l-.1-167.3v-3.9c.1-2.8.1-2.8 1.1-3.8q6-.5 12.3-.6l3.5-.2 3.4-.1 3-.1c2.5 0 4.5.3 6.8 1"/><path fill="#2177fd" d="m1560 123-1 5-1-3h-26v171h29v-68h1l1 67.2c0 2.8 0 2.8-1 3.8l-6.8.1h-21.3c-2.9-.1-2.9-.1-3.9-1.1l-.1-6.8V248l.1-124.9 12.8-.6 3.6-.1 3.5-.2 3.3-.1c2.5 0 4.4.3 6.8 1"/><path fill="#1d74fd" d="m1402 123 1 3-29-1v171h29l1-3v6l-24.1.1h-4c-2.9-.1-2.9-.1-3.9-1.1l-.1-6.8V248l.1-124.9 15.7-.7 3.3-.2 3.1-.1q4 0 7.9 1"/><path fill="#1758fd" d="M1745.6 380.7h9.9q1.3 0 2.5.3l2 3h-28v118h31v2l-25.7.1h-2.2l-5.1-.1c-1-1-1-1-1.1-3v-32.4l.1-85.6c5.4-2.9 10.6-2.3 16.6-2.3"/><path fill="#1658fd" d="M539 191h15.4l3.3-.1h3c2.3.1 2.3.1 3.3 1.1l.1 5v119.9c-.1 2.1-.1 2.1-1.1 3.1l-5.6.1h-10.6l-8.8-.1 1-2h22V193l-22 1z"/><path fill="#1447fd" d="m138 502 98.5.5q75.3.2 150.5 1.5v1l-104.5.5h-2.2l-128.5.6H144a27 27 0 0 1-6.1-1.1z"/><path fill="#1a86fd" d="m1687 381.4 3.4.1c8.5.4 8.5.4 9.6 1.5l.1 4.7V501c-.1 2-.1 2-1.1 3h-33v-2h31V384h-31v-2a92 92 0 0 1 21-.6"/><path fill="#1e74fd" d="M1085 382v2h-28v118h29v-67h1l1 69h-33V382c25-1 25-1 30 0"/><path fill="#106bfe" d="M963.5 476.9h39.3l25.2.1v27H916l-1-2h111v-23h-78v-1a109 109 0 0 1 15.5-1.1"/><path fill="#2478fd" d="m1094 169 69-.1h2c4.9 0 4.9 0 6 1.1l.1 6.8v40.3l-.1 25.9h14.2q8-.3 15.8 1v1h-32v-74l-4 1-6.9.1h-38.4l-24.7-.1z"/><path fill="#166afd" d="M1896.7 348.8h14.7c9.5 0 9.5 0 10.6 1.2v31l23.1-.2h3.8c3.1.2 3.1.2 6.1 2.2.3 2.6.3 2.6.3 5.9v3.5l-.1 3.7v3.8l-.2 9.1-3 1v-26h-31c-1.5-3-1.1-5.5-1.1-8.8v-12.6l.1-10.6h-26v6h-1c-.6-3.4-.6-3.4-1-7 2-2 2-2 4.7-2.2"/><path fill="#1b73fd" d="M1025 332h3v17.4l.1 3.6v3.4c-.1 2.6-.1 2.6-1.1 3.6l-6.6.1h-39.2L956 360v-2h-8v-1h78z"/><path fill="#0e6afd" d="M1021 404v26l-65 1v-2h-8v-1h71v-22h-63v-1l51.2-.8 3.7-.1z"/><path fill="#0746fe" d="M1094 169h76v1l-5 1v1h-70z"/><path fill="#1c6dfd" d="M1391 487h1v68l2 1c-3.4 3.4-7 3.1-11.5 3.1h-16.1c-2.4-.1-2.4-.1-5.4-1.1v-8h1v5h29z"/><path fill="#0b69fe" d="M350.4 47.8h3.7c8.3 0 16.8 0 24.9 2.2l2 3-3.8-.5q-12.6-1-25-.8h-2.7c-11.7 0-22.7.5-34 3.5a14 14 0 0 1-8.5-.2 23 23 0 0 1 8.9-3.5l3-.7a151 151 0 0 1 31.5-3"/><path fill="#0b69fd" d="M1063 83h1v160h21v1l-23 1-1-3h2z"/><path fill="#2277fe" d="M1093 170h2v75h-28v-1l26-1z"/><path fill="#2072fe" d="m1613 389 2.3 1.5c3.8 2.8 7 5.6 9.7 9.5l-2 2-1-3h-2l-2-2c-12-12.6-29.3-15.8-46.1-16.2-6.2.4-11.7 2.6-17.4 5-3.5 1.2-3.5 1.2-6 .4l-1.5-1.2 4.5-1.9 2.5-1c19.3-7 42.2-4.9 59 6.9"/><path fill="#125efd" d="M429 502.9h9.8c2.2.1 2.2.1 4.2 1.1v2h-97v-1l36.3-1.1q23.4-.9 46.8-1"/><path fill="#175dfe" d="m1095 143 44.2-.1h10.2c2.6.1 2.6.1 5.6 1.1l7.7.6h2.1l5.2.4v1h-76z"/><path fill="#2177fd" d="m916 332 107 1v1c-21 1.4-42 1.1-63 1h-44z"/><path fill="#2075fc" d="M1170 73h32l-2 4-29-1v68h-1z"/><path fill="#207efd" d="M1302 326.8h16.3c10.4 0 10.4 0 12.7 1.2l-1 3-30-1v68h-1l-1-61h-1c-.2-6-.2-6 0-8 2-2 2-2 5-2.2"/><path fill="#1b73fe" d="M1849 447h1l.1 43.7v10c-.1 2.3-.1 2.3-1.1 3.3l-7.1.1h-2.1l-22.8-.1-1-2h31v-19h1z"/><path fill="#2579fe" d="M1329 427h1l1 77h-30l-1-3h2l1-2v3h26z"/><path fill="#1d70fe" d="m397 493 43.3.7h2.5c2.2.3 2.2.3 5.2 2.3a71 71 0 0 1-14.2 1.1H412q-6.5.2-13.1-1.1z"/><path fill="#2277fe" d="M600.6 72.8h6.6q10 0 19.8 1.2l1 3-2.8-.2a213 213 0 0 0-47 .8q-4.1.5-8.2.4l3-1v-2a138 138 0 0 1 27.6-2.2"/><path fill="#0764fe" d="M143 291h64l1 2-57 1.2-3.4.1-2.6-.3z"/><path fill="#2075fd" d="M1878.3 381h5.7v2h6v1h-20v24h19v1q-10 1.2-20 1c-1-1-1-1-1.1-3.6v-14.9l.1-9.5c3.5-1 6.6-1.1 10.3-1"/><path fill="#0f6ffe" d="m1706 292 1 3 30 1 2-4v6c-3 1.5-6.1 1.1-9.4 1.1h-2.2l-23.4-.1c-.6-1.9-.6-1.9-1-4 1.4-1.7 1.4-1.7 3-3"/><path fill="#2473fd" d="m469 419-1 2c-17.4 4.3-36.2 3.1-54 3v-1l3.7-.2 4.9-.2 2.4-.2c8 .2 8 .2 15-2.4q6.5-.7 12.9-1.1l3.6-.3 3.6-.3 3.2-.2c2.7-.1 2.7-.1 5.7.9"/><path fill="#1c71fe" d="m1468 124-1 2-2.7-.7a86 86 0 0 0-42.3.7l-1-2a61 61 0 0 1 47 0"/><path fill="#1e71fd" d="M1791 379c18.2-.6 30.4.2 45 12l-1 2h-2v-2l-1.7-.8-4.5-2.4c-9.3-5-18-6-28.4-6.4-5.2-.2-5.2-.2-7.4-2.4"/><path fill="#1d72fd" d="M1556 502q4 .3 7.9.9a67 67 0 0 0 28.2-.6 11 11 0 0 1 5.9.7h-3v2a61 61 0 0 1-18.2 2.3h-2.8a61 61 0 0 1-20-3.3z"/><path fill="#2177fd" d="M1281 191h31c1.1 4.4.6 5.9-1 10l-2-3 1-4h-23v-2h-6z"/><path fill="#2278fe" d="m1297.7 119.8 2.4.2a46 46 0 0 1 15.9 4l1 3-2.3-.6-3.2-.8-3-.8c-8-1.8-15.5-2-23.5-1.9h-3.2l-7.8.1 2-1v-2q10.8-1.5 21.7-.2"/><path fill="#2b8efd" d="M334 2h35c-3 3-3 3-6 3.3L337 5V3z"/><path fill="#1770fe" d="M1779 123h35c-1.1 6.8-1.1 6.8-3 10h-2q.7-4 2-8l-33 1z"/><path fill="#1872fd" d="M1677 123h36l2 6-2 2-2-6h-31v2l-3-1z"/><path fill="#0a52fe" d="M1745.6 380.7h9.9q1.3 0 2.5.3l2 3-30 1v5h-1v-7c5.2-3 10.8-2.3 16.6-2.3"/><path fill="#136bfe" d="m494 267-1 3q-7.1 1.3-14.2 1.1h-2.4L452 271v-2l25.3-.7h2.1c5-.2 9.7-1.3 14.6-1.3"/><path fill="#1f71fd" d="M343 49v2l-3 .3q-12.5 1.4-24.8 4.2c-3.1.5-5.2.3-8.2-.5a54 54 0 0 1 36-6"/><path fill="#1872fe" d="M1234 155c1 3 1 3 0 8l29-1 1 3h-32c-1.2-3.5-.9-5.4 0-9z"/><path fill="#1b6ffd" d="m1278 503-1 2a55 55 0 0 1-21.5 2.2q-6.3 0-12.5-1.2c2-2 2-2 4-2.2h2.5l2.7.1 5.6.2c5.4 0 10.1-.3 15.3-1.8 1.9-.3 1.9-.3 4.9.7"/><path fill="#3987fe" d="m1404 228 4 4-1 2-2-1v65h-1z"/><path fill="#1a6ffd" d="M1591 120c27.6-1 27.6-1 38 6q-6.8-.6-13.5-2a93 93 0 0 0-16.8-1.6c-5.5-.2-5.5-.2-7.7-2.4"/><path fill="#186afe" d="m652 337 2 1a31 31 0 0 1-6.4 10.6q-4 4.5-7.6 9.4l-3-1 9-11-3 1c.4-2.7.8-3.8 2.8-5.7l2.3-1.6 2.2-1.5z"/><path fill="#1d6afe" d="M660 316c-1 1-1 1-2.9 1h-5.2l-5.7-.1c-6-.1-11.3.6-17.2 2.1v-3c9.1-3.4 22.2-5.2 31 0"/><path fill="#116bfe" d="m1918 501 36 1-1 2h-32v-2z"/><path fill="#0959fd" d="m1682.6 381.4 2.1.1q6.7.5 13.3 1.5l-1 2-31-1v-2a71 71 0 0 1 16.6-.6"/><path fill="#0b69fe" d="m1302 499 1 3h28v2h-30l-1-3h2z"/><path fill="#1971fd" d="M340 191c2.7-.3 2.7-.3 6.1-.3h3.7l3.8.1h3.9l9.5.2-1 3-25-1-1 4-2-3z"/><path fill="#0d65fd" d="m1390 382-1 3-29-1 1-2 12.3-.6 3.5-.1 3.3-.2 3.2-.1q3.4 0 6.7 1"/><path fill="#1e73fd" d="M1121.1 378.9h14.6c2.3.1 2.3.1 5.3 1.1v2l-10.9-.4-3.1-.2h-3l-2.8-.2c-2.2-.2-2.2-.2-4.2-1.2v2l-6 1 1-3c3-1.2 6-1.1 9.1-1.1"/><path fill="#186efd" d="m627 74 1 3-37-2v-1c24.8-1.4 24.8-1.4 36 0"/><path fill="#237bfd" d="M1238 466q4.3 2 8.2 5c4.4 3 8.7 4.6 13.8 6v2a32 32 0 0 1-20.1-8.7c-1.9-2.3-1.9-2.3-1.9-4.3"/><path fill="#2479fd" d="m1773 388 2 1-13 13h-3v-6h4l5-5c2.7-1.9 2.7-1.9 5-3"/><path fill="#1762fd" d="M452 210h27l-2 1v2q-12.6.3-25-2z"/><path fill="#1d72fd" d="M381 6a77 77 0 0 1 29 4l-2 2c-2.4-.2-2.4-.2-6-1l-21-4z"/><path fill="#196cfd" d="M1291 245h-2v2a43 43 0 0 1-10 1.1h-8.8l-7.2-.1c3.9-2.1 7-2.4 11.4-2.6 15.6-.7 15.6-.7 16.6-.4"/><path fill="#0b45fd" d="m1299 327 23.2-.1h3.8c3 .1 3 .1 5 1.1l-1 3-2-1-5.3-.3h-3.2l-3.3-.2-9.5-.3q-3.8-.3-7.7-1.2z"/><path fill="#2173fd" d="M718 289a127 127 0 0 1 22 5c-3 2-3 2-4.9 1.9l-2.1-.6-2.3-.5-2.4-.7-2.4-.6-5.9-1.5v-2z"/><path fill="#1e6ffd" d="m1691 328 2 2c-4.5 1.5-9 1-13.7 1-3.2-.1-3.2-.1-5.6.6l-1.7.4-2-2c6.3-3.8 14-3.5 21-2"/><path fill="#1c73fd" d="M1619 245h-2v2a51 51 0 0 1-15.6 1h-5.4l-1-2 9.8-1 2.7-.4 2.7-.3c1.3 0 1.3 0 2.5-.2 2.3-.1 4.1.2 6.3.9"/><path fill="#166cfe" d="M1177 73h25l-2 4v-2h-1.9l-8.5.1h-3l-2.8.1h-2.6c-2.2-.2-2.2-.2-4.2-2.2"/><path fill="#0f55fd" d="M1878.3 381h5.7v2h6v1h-22v-2a32 32 0 0 1 10.3-1"/><path fill="#237afd" d="M1637 133c5.7.6 7.6 3.5 11.1 7.6 5.9 7.4 5.9 7.4 5.9 10.4-3.9-1.3-4.6-3-6.8-6.2-3-4.4-6-7.6-10.2-10.8z"/><path fill="#2173fd" d="M382 51c6.7.5 12.6 1.9 19 4l-1 3-16-4v-2z"/><path fill="#1c6dfd" d="M363 48a58 58 0 0 1 10.3.9c2.1.3 2.1.3 5.7 1.1l2 3-21-2z"/><path fill="#2173fd" d="m490 414 2 3-7.2 1.5-2 .4c-3.7.8-7 1.3-10.8 1.1 2-3 2-3 5.7-4l4.4-.7 2.3-.4z"/><path fill="#1b71fd" d="m640 350-7.3 5.4-2.1 1.6-2 1.5-1.9 1.4C625 361 625 361 622 362v-3c1.3-1.3 1.3-1.3 3.2-2.5l2-1.4 2.1-1.4 2.1-1.4 2-1.3 1.9-1.2c1.7-.8 1.7-.8 4.7.2"/><path fill="#186cfd" d="M1439 380v1l-2.9.1c-7.2.5-14 1-21 2.7l-2.1.2-2-2c9.2-4 18.3-2.9 28-2"/><path fill="#1368fd" d="M123 547c13.6.8 13.6.8 20 3v1c-7 .2-13.2 0-20-2z"/><path fill="#1f73fe" d="m628 320-3 2 9 2-1 3-12-2c0-3 0-3 1-5 3.5-1.2 3.5-1.2 6 0"/><path fill="#1c85fd" d="M1201 75h2v7h-1l-1 26h-1l-.1-24v-4c.1-3 .1-3 1.1-5"/><path fill="#2476fd" d="M454 30c5 .5 8.3 2.9 12.3 5.6l2 1.2L473 40c-1.6.7-1.6.7-4 1a64 64 0 0 1-10.1-6.1L456 33l-2-1z"/><path fill="#2177fd" d="M172 353h2l1 20h-2c-1.1-2.3-1.1-3.6-1.1-6.1v-7.6z"/><path fill="#206ffd" d="M337 410c2.5.2 2.5.2 5.4.8l2.9.5c3.7 1 6 2 8.7 4.7q-9.7-1-19-4z"/><path fill="#1862fd" d="M765 230c3.6 3.6 3 9.1 3 14-1 3.8-1 3.8-2 6h-1z"/><path fill="#1d65fd" d="m215 313 6.9.3 3.8.2 3.3.5 2 3-21-1v-1l5-1z"/><path fill="#186cfd" d="m1288 119 1 2h6v1l-21 1 2-1v-2z"/><path fill="#2775fe" d="m1247.2 503.8 6.8.2v1l12 1v1h-11.2q-5.9.3-11.8-1c2-2 2-2 4.2-2.2"/><path fill="#2170fd" d="M116 497q3.8.6 7.5 1.7l2 .5c5.2 1.4 5.2 1.4 7.5 4.8-8-.8-8-.8-12-3l-7-2z"/><path fill="#0f56fe" d="M1954 382c1 1 1 1 1.1 3.3v5.5l-.1 2.2a28 28 0 0 1-3-9l-8-1v-1c3.7-1 6.3-1 10 0"/><path fill="#2276fd" d="m268 383 16 8v2c-5.7-1.6-10.8-4.3-16-7z"/><path fill="#2373fd" d="M318 7v1c-10.4 2.5-10.4 2.5-16 1v2l-3-1c1-2 1-2 2.8-2.7A39 39 0 0 1 318 7"/><path fill="#1c70fd" d="M387 419v2h5v1l-7.2-.4-2-.2q-5.5-.3-10.8-1.4v-1c5-1.5 9.9-.6 15 0"/><path fill="#1a77fd" d="m1706 292 1 3 12 2v1l-15 1-1-4c1.4-1.7 1.4-1.7 3-3"/><path fill="#1f6efe" d="m566 76 2 3c-11.5 3.6-11.5 3.6-17 2q4.7-2.4 9.8-3.6l3-.8z"/><path fill="#2074fe" d="M1455 383a31 31 0 0 1 14 8v2q-5-2.5-9.7-5.1l-3-1.7-2.3-1.2z"/><path fill="#2283fd" d="M1891 372h1c.1 7.4.1 7.4-1 11h-7v-2h5l-.1-2.8c.1-3.2.1-3.2 2.1-6.2"/><path fill="#1e69fd" d="m1248 241 16 4c-4.5 2.3-4.5 2.3-8 1.3l-2-.7q-3.6-1-7-2.6z"/><path fill="#2175fd" d="M107 543a72 72 0 0 1 15 4l-3 2c-2.3-.5-2.3-.5-4.7-1.4l-2.4-.9-1.9-.7v-2z"/><path fill="#1a70fd" d="m1446 503 2 3a81 81 0 0 1-22 0v-1z"/><path fill="#226ffe" d="m633.2 120.2 2.3.6 2.3.6 5.2 1.6-1 3-14-4c3-2 3-2 5.2-1.8"/><path fill="#246efd" d="m1905 496 12 4-1 3-4.9-1.9-2.7-1c-2.4-1.1-2.4-1.1-4.4-3.1z"/><path fill="#216dfd" d="m648 78.6 2.6.5c2.9 1 3.8 2.3 5.4 4.9q-8-1.7-16-4c3.5-2.3 4-2.2 8-1.4"/><path fill="#206bfe" d="m1419.1 503 3.3.5 2.6.5-1 3-4.8-.9-2.7-.5c-2.5-.6-2.5-.6-5.5-2.6 3-1.5 5-.6 8.1 0"/><path fill="#1668fe" d="m397 493 14 1v3q-3 0-5.9-.3l-3.3-.2-2.8-.5z"/><path fill="#2272fd" d="m1847 424 1 3h2v13h-1l-1-5h-1z"/><path fill="#2575fe" d="M1592 122q-4.5 2.3-9.2 3.6l-2.8.8-2 .6c1-3 1-3 4.2-4.7 3.5-1.5 6-1.3 9.8-.3"/><path fill="#1366fd" d="M589 116h24l-2 3-1.7-.5q-3.3-.7-6.6-.8l-2.5-.1-2.5-.2h-2.5l-6.2-.4z"/><path fill="#0f62fd" d="m688 375 2 2c-4 7.6-4 7.6-8 10l-1-4 1.8-.6c3-2 3.8-4.2 5.2-7.4"/><path fill="#2074fd" d="M182 377h1c1.1 6.6 1.1 6.6 0 10-3.2-1.4-4-2-6-5 .4-2.2.4-2.2 1-4l3 4z"/><path fill="#156dfd" d="m1265.9 378.8 2.2-.1 1.9.3 2 3-19-1v-1q6.4-1 12.9-1.2"/><path fill="#2384fd" d="M1470 196c1 3 1 3 .1 5l-1.3 2.1-1.3 2.2c-1.8 2-2.9 2.3-5.5 2.7l2-1 2-5c1.8-4.9 1.8-4.9 4-6"/><path fill="#1c6cfd" d="M469 419c-1 2-1 2-2.6 2.6q-5.2.7-10.4.4c2-3 2-3 3.8-3.5l2.1-.2 2.1-.3c2 0 2 0 5 1"/><path fill="#2576fe" d="M217 314v1h-7v2l-9 2 1-3a30 30 0 0 1 15-2"/><path fill="#1d70fe" d="M504 147c2.7 2.4 3.8 4.6 5 8l3-1v3c-2.2 0-2.2 0-5-1a45 45 0 0 1-4-8z"/><path fill="#2872fe" d="M434 71c5 .5 8.1 3 12 6l-2 2-5-2.9-2.8-1.6L434 73z"/><path fill="#2074fd" d="m461 492-1 2c-2 .5-2 .5-4.3.8l-2.4.2c-2.6 0-4-.7-6.3-2l8.3-1.7c2.7-.3 2.7-.3 5.7.7"/><path fill="#1764fe" d="m1442 379 12 3-1 2-11-2z"/><path fill="#1c6ffd" d="m616 117 4.8.4 2.6.2a17 17 0 0 1 6.6 2.4c-8 1.4-8 1.4-12 0z"/><path fill="#1d6efd" d="M1792 381a18 18 0 0 1-7.7 3.1l-2.4.5-1.9.4-1-2c8.3-3.6 8.3-3.6 13-2"/><path fill="#2375fe" d="m89 536 11 4c-4 2-4 2-6.1 1.3l-2.2-1.2-2-1.2-1.7-.9z"/><path fill="#227bfd" d="m1287 469 2 2a30 30 0 0 1-10 6v-3c1.8-1.4 1.8-1.4 4-2.7l2.3-1.3z"/><path fill="#206ffd" d="m1665 353 9 9-3 1-7-7z"/><path fill="#1b6cfe" d="M1425 243c2.4.2 2.4.2 5.1.9l2.8.6 2.1.5-1 3-11-3z"/><path fill="#2479fd" d="M1324 129a32 32 0 0 1 10 9c-3.8 0-4.5-1-7.2-3.5l-2.2-2-1.6-1.5z"/><path fill="#247afd" d="M1778 126h2c-.6 4.1-2 7.3-4 11l-2-2z"/><path fill="#217cfe" d="M1585 407c3.4 1 6 2 9 4l-1 3-10-5z"/><path fill="#2073fd" d="M481 487v2l-4.8.6q-1.4 0-2.7.3c-2.5.1-2.5.1-5.5-.9l4.8-1.6 2.7-.8c2.5-.6 2.5-.6 5.5.4"/><path fill="#1f76fd" d="M1914 367h2c1.4 2.7 1 5 1 8l-3 1z"/><path fill="#206efe" d="M205 346c3.3.4 4.6.6 7 3l-6-1 1 4h-3v-5z"/><path fill="#237afd" d="M228 315c4 .5 7.5.9 11 3v3l-2.3-1-5.7-2v-2z"/><path fill="#1e7afe" d="m50 283 3 2-3 1v2l-2 .3-2 .7-1 3-2-2 5-5h2z"/><path fill="#1e72fd" d="m1459 498 2 1v2l-8 3-2-2 3.9-2 2.2-1.2z"/><path fill="#2993fe" d="m1554 466 3.4 2.9 1.9 1.6 3.7 3.5c-5.4-.6-5.4-.6-7.9-2.3-1.1-1.7-1.1-1.7-1.1-5.7"/><path fill="#1f68fd" d="M1615 393c4.4.5 6.8 3.2 10 6l-2 3-1-3h-2z"/><path fill="#247cfe" d="M1424 379h18v3l-3-1-7.7-.6h-2.1l-5.2-.4z"/><path fill="#1d6dfe" d="M642 327q4.1 1.1 8 3l-1 3-10-4z"/><path fill="#2578fd" d="M533 406c-8.3 3.6-8.3 3.6-13 2 3.8-2.5 8.7-4.2 13-2"/><path fill="#1d77fd" d="M1248 381c-3.4 2.3-6 2.5-10 3l-1-2c4.1-1.6 6.7-2.3 11-1"/><path fill="#1f73fe" d="m581 116.8 6 .2c-1 1.6-1 1.6-3 3-3.7-.3-3.7-.3-7-1 2-2 2-2 4-2.2"/><path fill="#2376fd" d="M460 89a20 20 0 0 1 8 7h-4v-2h-2l-3-4z"/><path fill="#1767fe" d="m482 416-1 3-9 1c2-3 2-3 4.4-3.7 2.6-.3 2.6-.3 5.6-.3"/><path fill="#074afe" d="M1911 349h10v4l-4-1v-2h-6z"/><path fill="#1259fe" d="m1681 327 4.9.4 2.7.2c2.4.4 2.4.4 4.4 2.4-3.5 1.2-4.3.8-7.7-.4l-2.4-1q-1-.2-1.9-.6z"/><path fill="#1a6ffe" d="m1312.6 122.7 3.4 1.3 1 3-11-3c3-2 3-2 6.6-1.3"/><path fill="#1c75fd" d="M123 547c6.6.8 6.6.8 10 3-7.7.1-7.7.1-10-1z"/><path fill="#1668fd" d="M1944 475h9v3h-5v-2z"/><path fill="#146bfe" d="M1260 406h10l-2 3c-3 .4-3 .4-6 0z"/><path fill="#126afd" d="m0 371 3 1-1 13H1z"/><path fill="#2177fd" d="m1236 230 7 6-2 3c-2.5-2.2-2.5-2.2-5-5z"/><path fill="#1f6efe" d="M1479 131c3.3 1.8 4.9 2.8 7 6-3 0-3 0-5.7-2.5l-2.3-2.5z"/><path fill="#247afd" d="M751 299c3.8.4 6 1.5 9 4-6.6-.7-6.6-.7-10-3z"/><path fill="#2671fd" d="M785 265c3.4.6 5.4 1.8 8 4-3 1-3 1-5.7-.3L785 267z"/><path fill="#278bfe" d="M1720 228h3c1.5 3 1 5.7 1 9-2.7-2.7-3-5.4-4-9"/><path fill="#258bfe" d="M150 155h2c-.5 3.7-1.1 6.7-3 10l-2-1z"/><path fill="#2274fd" d="M1603 148c5.8.8 5.8.8 8 3-3.6 1.2-4.6.5-8-1z"/><path fill="#2478fe" d="M673 91c4.6.4 7.6.9 11 4-3 1-3 1-5 .2l-2.2-1.1-2.2-1.2-1.6-.9z"/><path fill="#2579fe" d="M664 85c5.8 1.8 5.8 1.8 8 4-3 1-3 1-6.2-.4L663 87z"/><path fill="#2378fd" d="M1437 408c4.3.5 6.2 1.7 9 5-4 0-5.8-1.7-9-4z"/><path fill="#2475fd" d="m238 382 6 4-1 4c-2.5-2.3-2.5-2.3-5-5z"/><path fill="#1d6efd" d="M1274 382c5.4-.4 5.4-.4 8.4 1.5l1.6 1.5c-2 1-2 1-4 .4l-2.1-.8-2.2-1-1.7-.6z"/><path fill="#2065fd" d="M1108 382v3l-6 2-2-2c5.8-3 5.8-3 8-3"/><path fill="#236efe" d="M218 355c4.4.5 6.7 2 10 5l-2 1c-2-1-2-1-4.1-2.4l-2.2-1.4-1.7-1.2z"/><path fill="#146efd" d="m916 332 13 1v1l-13 1z"/><path fill="#0c69fd" d="m1331 328-1 3-9-2c4.4-2.2 5.5-2 10-1"/><path fill="#257afe" d="m141.6 291.3 2.4.7 1 2-9-1c3-2 3-2 5.6-1.7"/><path fill="#1e77fd" d="M1234 155c1.1 3.3.8 4.7 0 8l-3-1 1-6z"/><path fill="#247bfd" d="M1335 139c2 2.3 2 2.3 4 5l-1 4-4-8z"/><path fill="#2379fd" d="M625 75h7v2l3 1h-7v-2z"/><path fill="#206bfd" d="m302.2 57 1.8 1-4.4 1-2.4.7c-2.2.3-2.2.3-4.2-.7 6.4-3.2 6.4-3.2 9.2-2"/><path fill="#2572fe" d="M73 528c3 1 4.8 1.8 7 4l-3 1c-2.7-2-2.7-2-5-4z"/><path fill="#268efe" d="M1528 484c3.3.6 4.8 1.5 7 4l-1 3c-4.9-3.6-4.9-3.6-6-7"/><path fill="#2276fd" d="m551.3 397.9 1.7 1.1-7 2-2-2c4.4-2.2 4.4-2.2 7.3-1.1"/><path fill="#1e63fe" d="m1228 386 3 1-5 4-3-2c2.3-1.6 2.3-1.6 5-3"/><path fill="#1b6dfd" d="M1312 192c1.3 3.8.4 5.4-1 9-2-3-2-3-1.6-5.2l.6-1.8h2z"/><path fill="#1e71fd" d="M1628 127c5.5.6 5.5.6 7.9 2.6l1.1 1.4-2 1q-3.7-1.8-7-4z"/><path fill="#1864fd" d="M1556 122c2.1.4 2.1.4 4 1l-1 5-1-3c-2-.7-2-.7-4-1z"/><path fill="#268efe" d="M698 106c4.3.5 6.2 1.7 9 5l-3 1v-2l-1.9-.9C700 108 700 108 698 106"/></svg>