<?xml version="1.0" encoding="utf-8"?>
<!-- Generator: Adobe Illustrator 19.0.0, SVG Export Plug-In . SVG Version: 6.00 Build 0)  -->
<svg version="1.1" id="Layer_1" xmlns="http://www.w3.org/2000/svg" xmlns:xlink="http://www.w3.org/1999/xlink" x="0px" y="0px"
	 viewBox="-200.4 -52.1 440.7 117.8" style="enable-background:new -200.4 -52.1 440.7 117.8;" xml:space="preserve">
<style type="text/css">
	.st0{fill:#28B16D;}
</style>
<g>
	<path class="st0" d="M103.5,28.9c-0.2,0.1-0.5,0.3-0.7,0.5c-3.2,4.2-8.3,6.7-13.6,6.5c-4.8,0.3-9.5-0.6-13.8-2.7
		C68.5,29.8,63.9,23,63.1,15.4c-0.3-2-0.4-4-0.4-6v-24.9c0-3.3,1-4.3,4.3-4.3h7.3c2.9,0,4.1,1.3,4.1,4.2V9.7c-0.1,3.3,0.9,6.6,3,9.3
		c5,5.5,13.4,5.9,18.9,0.9c1.3-1.2,2.4-2.7,3.2-4.3c0.3-0.8,0.4-1.6,0.4-2.4v-28.8c0-3.5,1-4.5,4.5-4.5h7.1c2.9,0,4.2,1.3,4.2,4.2
		v54c0.4,10-5.2,19.4-14.2,23.8c-5.8,3-12.3,4.2-18.8,3.6c-4-0.1-7.9-1.1-11.6-2.7c-3.4-1-5.6-4.4-5.1-7.9v-4.1
		c-0.2-1.4,0.8-2.8,2.2-3c0.6-0.1,1.3,0.1,1.8,0.4c2,0.9,3.9,2.1,6,2.9c4.6,1.9,9.6,2.2,14.4,1c5.4-1.3,9.2-6.2,9.2-11.7V29.7
		C103.5,29.4,103.5,29.2,103.5,28.9z M-55.3-18.6c2.6-1,5.2-1.9,7.9-2.7c6.1-1.6,12.6-1.5,18.7,0.5c9,3,15.5,10.9,16.7,20.2
		C-11,4.6-11.2,9.9-12.6,15c-2.3,8.3-8.6,15-16.7,17.9c-11.2,4.8-24.1,3.6-34.3-3c-1.6-1.1-3-2.3-4.3-3.6c-1.8-1.7-2.8-4-2.9-6.4
		v-61.3c-0.1-2.1,1-4.1,2.9-5.1l8-4.7c2.7-1.5,4.6,0,4.6,2.7V-18.6z M-55.3,7v10.9c-0.1,1,0.4,2,1.3,2.5c4.1,2.8,9.1,3.8,14,2.8
		c5-0.6,9.3-4,11-8.8c1.2-3.1,1.7-6.5,1.4-9.8c-0.1-4.1-1.9-8.1-5-10.8c-6.5-4.6-15.3-4.4-21.6,0.4c-0.5,0.6-0.8,1.3-0.8,2
		C-55.3-0.3-55.3,3.4-55.3,7z M-133.1-52.1c19.9,0.7,36.9,14.8,41.1,34.4c4.8,20.9-6.2,42.2-26,50.5c-16.5,6.8-35.6,2.5-47.6-10.7
		c-2.4-2.7-2.4-2.7-5.5-0.9l-19.8,11.9c-3.4,2-4.8,1.6-6.8-1.8l-1.8-3.3c-1.3-1.6-1.1-4,0.6-5.4c0.3-0.3,0.7-0.5,1-0.6l20.4-11.9
		c3.1-1.8,3-1.8,2.1-5.1c-7.1-22.8,5.4-47.1,28-54.8c1.9-0.7,3.9-1.2,6-1.5C-138.6-51.7-135.9-51.7-133.1-52.1z M-99.4-7.8
		c0.2-19.2-15.1-35-34.2-35.4c-19,0-34.6,15.2-35,34.2c-0.8,19.3,14.3,35.6,33.6,36.4c0.1,0,0.3,0,0.4,0
		c19.3,0.2,35.1-15.3,35.2-34.6C-99.4-7.5-99.4-7.7-99.4-7.8z M37.4,28.3c-0.3,0.2-0.6,0.4-0.9,0.7c-2.6,3.7-6.6,6.1-11.1,6.5
		c-9.1,1.8-18.5-1.3-24.8-8.2c-3.9-4.5-6.3-10.1-6.7-16C-6.9,5.2-6-1-3.3-6.5c3.7-7.4,10.6-12.7,18.6-14.4
		c10.6-2.9,21.9-1.5,31.4,3.8l1,0.6c3.6,1.8,5.7,5.6,5.4,9.6v36.1c0.1,0.8,0.1,1.7,0,2.5c-0.2,1.5-1.5,2.6-3,2.5h-9.4
		c-2,0-3.1-1.3-3.3-3.5C37.4,30.7,37.4,28.3,37.4,28.3z M37.4-5.2c0.1-1.1-0.5-2.2-1.5-2.7c-2.5-1.3-5.4-2-8.2-2.1
		c-7.8-1.4-15.4,3.6-17.3,11.3c-0.9,3.7-0.9,7.6,0,11.4c2.1,7.7,10,12.3,17.7,10.2c2.2-0.6,4.2-1.7,5.9-3.2c2.3-1.7,3.6-4.4,3.4-7.3
		C37.2,6.6,37.2,0.7,37.4-5.2L37.4-5.2z M170.8,28.3c-0.3,0.2-0.7,0.5-1,0.8c-2.4,3.5-6.1,5.8-10.3,6.4c-6.6,1.3-13.4,0.1-19.2-3.3
		c-5.9-3.8-9.7-10.1-10.4-17.1c-0.3-2-0.4-4-0.4-6v-24.9c0-3.3,1-4.3,4.3-4.3h7.4c1.9-0.2,3.6,1.3,3.8,3.2c0,0.3,0,0.7-0.1,1V9.6
		c-0.1,3.5,1,7,3.2,9.7c5.2,5.3,13.8,5.4,19.1,0.1c1.1-1.1,2.1-2.4,2.7-3.9c0.1-0.7,0.1-1.4,0-2v-29.1c0-3.3,1.1-4.4,4.5-4.4h7.1
		c2.9,0,4.1,1.3,4.1,4.2V30c0,3.2-1.2,4.4-4.3,4.4h-6.6c-2.9,0-4-1.1-4-4C170.8,30.4,170.8,28.3,170.8,28.3z M196.5-10.6v-21.6
		c-0.1-2,0.9-3.9,2.7-4.8l8-4.7l0.7-0.4c1.3-0.7,3-0.2,3.7,1.1c0.3,0.5,0.4,1,0.3,1.5v17.2c0,2,0,2.1,2.1,2.1h20.3
		c4,0,4.8,0.8,4.9,4.8v3.8c0,2.6-1.2,3.8-3.8,3.8h-21.3c-2.3,0-2.3,0-2.3,2.3V8.7c0,2,0.3,4,0.9,6c1.8,5.8,7.6,9.5,13.7,8.6
		c3.2-0.2,6.2-1.4,8.6-3.5l0.8-0.5c0.9-0.9,2.2-1.1,3.3-0.6c1.2,0.7,1.1,1.8,1.1,2.9v5.1c0.1,2.1-1,4.2-2.8,5.3
		c-3.9,2.6-8.6,3.9-13.3,3.9c-5.2,0.2-10.4-0.9-15.1-3.3c-6.8-3.8-11.2-10.6-11.9-18.3c-0.4-4-0.6-7.9-0.5-11.9
		C196.4-2.1,196.5-6.3,196.5-10.6z"/>
	<path class="st0" d="M-111.4-3.7V7.5c0,2.6-1.1,3.6-3.6,3.6h-8.6c-2,0-2.9-0.8-2.9-2.9v-9c-0.1-3.7-2.8-6.9-6.5-7.4
		c-3.9-0.5-7.5,2.1-8.3,6c-0.1,1.4-0.1,2.7,0,4.1v6.3c0,2.1-0.9,3.1-3,3.1h-8.9c-1.8,0.2-3.4-1.1-3.6-2.8c0-0.2,0-0.4,0-0.6v-22.3
		c-0.1-1.8,0.8-3.4,2.4-4.2c5.6-3.2,11.2-6.4,16.7-9.8c2.2-1.5,5-1.5,7.2,0c5.6,3.4,11.3,6.7,17,10c1.3,0.7,2.1,2.1,2,3.6v11.4
		L-111.4-3.7z"/>
</g>
</svg>
