<?xml version="1.0" encoding="UTF-8"?>
<svg version="1.1" xmlns="http://www.w3.org/2000/svg" width="7047" height="3951">
<path d="M0 0 C1.95273868 -0.00701913 3.90547712 -0.01410598 5.85821533 -0.02125549 C12.06693854 -0.0406693 18.2756245 -0.04568944 24.484375 -0.046875 C25.54097321 -0.04731686 26.59757141 -0.04775871 27.68618774 -0.04821396 C57.74401342 -0.05481103 87.70128391 -0.02359749 117.64172363 2.94665527 C120.39421224 3.21893639 123.1476612 3.47959303 125.90136719 3.73925781 C208.46792201 11.61136452 289.42864014 28.29112366 368.234375 54.203125 C368.95562561 54.43988953 369.67687622 54.67665405 370.41998291 54.92059326 C443.30850795 78.89316984 513.11414168 111.3675077 579.234375 150.203125 C580.17829102 150.75661621 581.12220703 151.31010742 582.09472656 151.88037109 C599.66411946 162.23611051 616.56199389 173.5924408 633.45593262 185.00274658 C635.05435306 186.0816173 636.65450885 187.15791593 638.25488281 188.23388672 C656.07790969 200.22015212 673.2520923 213.0593908 690.234375 226.203125 C690.83556152 226.66783203 691.43674805 227.13253906 692.05615234 227.61132812 C709.55679372 241.16713281 726.62656072 255.324578 743.01953125 270.203125 C745.00850002 271.99916029 747.02000694 273.76265803 749.046875 275.515625 C754.28190796 280.08191123 759.36248995 284.81555151 764.44824219 289.54638672 C766.18623562 291.15847302 767.93228143 292.76141013 769.6796875 294.36328125 C778.76671423 302.73986547 787.55026197 311.41176637 796.296875 320.140625 C796.88559387 320.72675568 797.47431274 321.31288635 798.08087158 321.91677856 C803.85936682 327.67521728 809.58336888 333.41989278 814.88061523 339.63110352 C816.56952395 341.59230878 818.37301986 343.40595452 820.234375 345.203125 C823.42698812 348.3529253 826.40598779 351.61531989 829.328125 355.015625 C831.54383148 357.55823899 833.82536092 360.03422698 836.109375 362.515625 C840.15516244 366.95078146 843.98121446 371.51270528 847.75 376.18359375 C850.70051675 379.76967779 853.74271295 383.26785628 856.796875 386.765625 C861.76282726 392.4650627 866.57614769 398.24790107 871.234375 404.203125 C872.01554687 405.18796875 872.79671875 406.1728125 873.6015625 407.1875 C885.72333436 422.48615465 897.57933259 437.9757855 908.70849609 454.01367188 C910.33720841 456.3506786 911.98161693 458.67605421 913.62890625 461 C921.79851142 472.54708509 929.64390336 484.26776269 937.234375 496.203125 C937.82863281 497.13640625 938.42289063 498.0696875 939.03515625 499.03125 C948.46508603 513.88090784 957.52259416 528.92133004 966.234375 544.203125 C966.82154297 545.23179687 967.40871094 546.26046875 968.01367188 547.3203125 C1009.83941711 620.89002725 1042.30595524 699.10390733 1104.984375 1000.578125 C1105.07325989 1001.76143906 1105.07325989 1001.76143906 1105.16394043 1002.96865845 C1105.56307101 1008.37778946 1105.91035059 1013.78902142 1106.234375 1019.203125 C1106.2827652 1019.9710437 1106.3311554 1020.7389624 1106.38101196 1021.53015137 C1107.46486486 1039.18166474 1107.42182731 1056.85041882 1107.41967773 1074.52783203 C1107.41959717 1077.9494361 1107.42644229 1081.37090427 1107.44018555 1084.79248047 C1107.56543789 1116.52910787 1106.47935355 1148.15861021 1103.484375 1179.765625 C1103.40200592 1180.65326538 1103.31963684 1181.54090576 1103.23477173 1182.45544434 C1095.1375562 1269.03664282 1076.40030737 1354.13261503 1019.234375 1511.203125 C1018.71939453 1512.3900293 1018.20441406 1513.57693359 1017.67382812 1514.79980469 C1000.66699923 1553.79970173 981.6645416 1591.97536157 959.84130859 1628.51269531 C958.28340557 1631.12103493 956.73640266 1633.73556272 955.19140625 1636.3515625 C942.65946663 1657.49586009 929.19448948 1677.9776409 915.234375 1698.203125 C914.41090576 1699.39977783 914.41090576 1699.39977783 913.57080078 1700.62060547 C906.39238416 1711.02734952 898.81745313 1721.1035634 891.1171875 1731.12890625 C888.22669533 1734.89417121 885.37788938 1738.68677304 882.55444336 1742.50244141 C875.76416259 1751.66857476 868.5662315 1760.46655688 861.234375 1769.203125 C860.74050293 1769.79222656 860.24663086 1770.38132812 859.73779297 1770.98828125 C857.03963638 1774.20183701 854.32714249 1777.40280959 851.60400391 1780.59521484 C850.16852079 1782.2804362 848.7384901 1783.97019309 847.30859375 1785.66015625 C841.80573406 1792.14416678 836.19274973 1798.49604559 830.39404297 1804.71728516 C827.68214033 1807.62707123 825.0180546 1810.56470225 822.421875 1813.578125 C819.76614074 1816.65183196 816.95452415 1819.50657822 814.05537442 1822.34964725 C812.39017984 1824.04454131 810.85932076 1825.78503998 809.32885307 1827.60095644 C803.92993824 1833.80230398 798.03984526 1839.53352672 792.22272587 1845.33782196 C790.88753174 1846.67375639 789.55255715 1848.00991026 788.21778151 1849.34626281 C784.54603346 1853.02107569 780.8711762 1856.6927655 777.1958085 1860.3639577 C773.19915613 1864.35717286 769.20541025 1868.35329312 765.2112965 1872.34904718 C758.20979535 1879.35262178 751.2064381 1886.35433602 744.20186615 1893.35483932 C736.6875166 1900.86483624 729.17423443 1908.37589874 721.6622982 1915.88830948 C721.18756338 1916.36307299 720.71282857 1916.8378365 720.22370784 1917.32698678 C717.80297229 1919.74787872 715.38225452 1922.16878843 712.96154303 1924.58970443 C695.44701355 1942.10564087 677.93006729 1959.61915873 660.41183662 1977.13139343 C643.06428249 1994.47302421 625.71776446 2011.81569033 608.37263298 2029.15974426 C607.8338701 2029.69847273 607.29510722 2030.2372012 606.7400182 2030.79225477 C601.81921725 2035.71274251 596.89842906 2040.63324301 591.97765617 2045.55375882 C579.74541153 2057.78536408 567.51300693 2070.01680937 555.28049374 2082.24814606 C554.44495071 2083.08360911 554.44495071 2083.08360911 553.59252802 2083.9359502 C526.49924368 2111.02661331 499.40411648 2138.11543306 472.30883789 2165.20410156 C462.90670125 2174.60394653 453.50457277 2184.00379965 444.10247803 2193.40368652 C443.5193556 2193.986672 442.93623317 2194.56965748 442.33544036 2195.17030919 C415.2252337 2222.27417123 388.11633669 2249.37934302 361.00777722 2276.48485253 C359.24777003 2278.24466166 357.48776227 2280.00447022 355.7277544 2281.76427867 C344.06404652 2293.42666677 332.4003612 2305.08907744 320.736691 2316.75150322 C297.52907712 2339.95664062 274.32133065 2363.16164542 251.11349307 2386.3665591 C250.00828673 2387.4716262 248.90308048 2388.5766934 247.79787432 2389.68176069 C192.49035502 2444.98232892 137.18086053 2500.2809215 27.234375 2610.203125 C23.32394202 2608.61377238 20.68860136 2605.93545905 17.76990098 2602.98819864 C17.22678265 2602.44776071 16.68366432 2601.90732278 16.12408785 2601.35050795 C14.29216199 2599.52516219 12.46748921 2597.69273201 10.64265728 2595.86029625 C9.31712713 2594.53654783 7.99115862 2593.21323824 6.66479006 2591.8903299 C2.99730742 2588.2298451 -0.6638685 2584.56310728 -4.32410498 2580.89537877 C-8.29826863 2576.91526665 -12.27820379 2572.94093311 -16.25742549 2568.96587908 C-23.23876999 2561.99023394 -30.21636655 2555.01085709 -37.19155884 2548.02906036 C-44.67790652 2540.53564375 -52.16636643 2533.04434631 -59.6575222 2525.55573654 C-60.1302477 2525.08316891 -60.6029732 2524.61060128 -61.09002371 2524.12371341 C-63.50038382 2521.71417729 -65.91077836 2519.30467562 -68.32118423 2516.89518527 C-85.78050251 2499.44234292 -103.23489889 2481.98458506 -120.68662453 2464.52415085 C-137.97759949 2447.224563 -155.27041991 2429.92682361 -172.56580162 2412.63164139 C-173.65116967 2411.54628126 -174.73653762 2410.46092104 -175.82190547 2409.37556071 C-180.18339703 2405.01410652 -184.54490311 2400.65266686 -188.90642699 2396.291245 C-201.09978786 2384.09816178 -213.29281546 2371.90474533 -225.48559856 2359.71108437 C-226.04088555 2359.15575771 -226.59617253 2358.60043105 -227.1682864 2358.02827631 C-244.86848449 2340.32676982 -262.56724991 2322.62383161 -280.26497364 2304.9198513 C-281.12627376 2304.05824677 -281.12627376 2304.05824677 -282.00497389 2303.17923609 C-291.33006257 2293.85083853 -300.65505806 2284.5223478 -309.98004887 2275.19385239 C-346.95450088 2238.20551567 -383.93256922 2201.22079871 -420.91430664 2164.23974609 C-422.08287222 2163.0712009 -423.25143772 2161.90265562 -424.42000312 2160.73411025 C-426.75435668 2158.39979687 -429.08871054 2156.06548379 -431.42306458 2153.7311709 C-436.65707569 2148.49725121 -441.89108326 2143.26332799 -447.12508407 2138.029398 C-448.28431499 2136.87018285 -449.44354624 2135.71096804 -450.60277783 2134.55175357 C-481.57050459 2103.58447209 -512.53577449 2072.61473422 -543.50011367 2041.6440655 C-544.04070945 2041.10335955 -544.58130523 2040.56265359 -545.1382827 2040.00556261 C-554.99126451 2030.15057236 -554.99126451 2030.15057236 -559.81329445 2025.32752627 C-571.70528996 2013.43303487 -583.59756289 2001.53882104 -595.49061799 1989.64538908 C-596.0266408 1989.10934874 -596.5626636 1988.57330841 -597.11492952 1988.02102443 C-599.27524411 1985.86064063 -601.43556068 1983.70025882 -603.59587836 1981.53987811 C-623.6383484 1961.49682208 -643.67922709 1941.45217749 -663.71692614 1921.40435164 C-665.63778572 1919.48253446 -667.55865243 1917.56072442 -669.47952461 1915.63891983 C-670.18665185 1914.9314468 -670.18665185 1914.9314468 -670.90806448 1914.20968138 C-678.82827951 1906.2856847 -686.75045645 1898.36365156 -694.67314545 1890.44212851 C-701.56182846 1883.55417878 -708.44869587 1876.66441733 -715.33407009 1869.77316006 C-719.26053112 1865.84344289 -723.18777906 1861.914521 -727.1172137 1857.98777704 C-730.69143341 1854.4159693 -734.26334938 1850.84187453 -737.8334364 1847.26593623 C-739.11778721 1845.98028456 -740.40297512 1844.69546847 -741.68909886 1843.41159038 C-753.29604965 1831.8232762 -753.29604965 1831.8232762 -758.43397723 1825.75510398 C-760.41894668 1823.4417063 -762.5828231 1821.32848474 -764.765625 1819.203125 C-768.31480657 1815.6913595 -771.68530957 1812.11303599 -774.9296875 1808.3203125 C-777.1176867 1805.79713045 -779.37855613 1803.34757981 -781.640625 1800.890625 C-785.78807758 1796.34787815 -789.69795195 1791.66192538 -793.55859375 1786.875 C-795.68185838 1784.3045345 -797.88374349 1781.84393137 -800.140625 1779.390625 C-804.20435279 1774.93112546 -807.92446477 1770.26788773 -811.61767578 1765.50317383 C-814.50293986 1761.78690972 -817.46420766 1758.16088367 -820.515625 1754.578125 C-827.00256881 1746.85557284 -832.94674884 1738.7247513 -838.95654297 1730.62939453 C-840.5696155 1728.46600521 -842.1957707 1726.31383998 -843.83203125 1724.16796875 C-875.57140574 1682.49092366 -903.15990265 1637.39035667 -927.765625 1591.203125 C-928.60154776 1589.64452335 -929.43748429 1588.08592908 -930.2734375 1586.52734375 C-932.81144703 1581.77339654 -935.29740167 1576.993629 -937.765625 1572.203125 C-938.30380859 1571.16075684 -938.84199219 1570.11838867 -939.39648438 1569.04443359 C-971.07179312 1507.42523559 -996.24741201 1441.9606199 -1014.765625 1375.203125 C-1014.98434265 1374.41675659 -1015.2030603 1373.63038818 -1015.42840576 1372.82019043 C-1035.23252777 1301.44674213 -1047.91935599 1228.13134066 -1052.765625 1154.203125 C-1052.84233429 1153.07067352 -1052.84233429 1153.07067352 -1052.92059326 1151.91534424 C-1059.09842324 1060.45320773 -1053.30870573 967.81397567 -918.16650391 552.64208984 C-916.45831805 549.668096 -914.81607381 546.66143157 -913.1784668 543.64819336 C-894.72770107 509.81081384 -873.00399776 477.44964157 -850.390625 446.265625 C-849.85518066 445.52602539 -849.31973633 444.78642578 -848.76806641 444.02441406 C-842.91160088 435.9732684 -836.87045715 428.06694357 -830.765625 420.203125 C-830.29415039 419.5951709 -829.82267578 418.9872168 -829.33691406 418.36083984 C-818.6456264 404.60026485 -807.65214509 391.10242122 -796.24951172 377.92529297 C-794.74779611 376.18243316 -793.25718136 374.4306565 -791.76953125 372.67578125 C-785.43067169 365.20763201 -778.91528291 357.94253575 -772.23144531 350.78222656 C-770.77196764 349.20995781 -769.32522326 347.62699255 -767.8828125 346.0390625 C-763.06144574 340.73197657 -758.18432799 335.52202633 -753.03125 330.53125 C-751.10430899 328.551152 -749.30011027 326.53167741 -747.49609375 324.44140625 C-743.7784962 320.16104854 -739.84736705 316.13661204 -735.828125 312.140625 C-735.16361328 311.47224609 -734.49910156 310.80386719 -733.81445312 310.11523438 C-729.87593067 306.18435211 -725.81937538 302.4612055 -721.60717773 298.82641602 C-719.03598428 296.55996165 -716.66051928 294.15572757 -714.265625 291.703125 C-710.60851324 287.99634643 -706.87597929 284.45007009 -702.9140625 281.0703125 C-700.73316762 279.17491659 -698.61106754 277.2228598 -696.4934082 275.25732422 C-691.28535158 270.42486845 -685.95068823 265.84066875 -680.4140625 261.3828125 C-677.79287381 259.22555101 -675.27408219 256.990015 -672.765625 254.703125 C-667.59032297 249.99904356 -662.21622753 245.58319841 -656.765625 241.203125 C-656.19150879 240.7400293 -655.61739258 240.27693359 -655.02587891 239.79980469 C-640.99331577 228.48261909 -626.69396571 217.58400819 -612.14160156 206.94384766 C-609.95652261 205.34298319 -607.77840609 203.73312622 -605.6015625 202.12109375 C-536.16993956 151.01124696 -458.71318113 109.26556527 -341.765625 63.203125 C-341.01488708 62.93111267 -340.26414917 62.65910034 -339.49066162 62.37884521 C-252.32374446 30.8898404 -160.41968616 10.99824209 0 0 Z M-342.765625 262.203125 C-343.90467285 262.72261719 -345.0437207 263.24210937 -346.21728516 263.77734375 C-368.37225282 273.90051986 -389.95548004 284.57312021 -411.09228516 296.68505859 C-414.193188 298.44591831 -417.3201069 300.15434902 -420.45336914 301.85668945 C-456.83782987 321.70237888 -491.05468227 345.8328269 -523.765625 371.203125 C-524.70148438 371.92628906 -524.70148438 371.92628906 -525.65625 372.6640625 C-533.15466935 378.46412191 -540.47834996 384.42977794 -547.68359375 390.58984375 C-550.50197529 392.99393813 -553.37734453 395.32080494 -556.265625 397.640625 C-561.0205355 401.50702667 -565.53224145 405.58841368 -570 409.77905273 C-572.86840321 412.46818074 -575.77331899 415.10089755 -578.73828125 417.68359375 C-590.75708382 428.15383905 -602.05085589 439.3854374 -613.328125 450.640625 C-613.94030884 451.25022064 -614.55249268 451.85981628 -615.18322754 452.48788452 C-623.96311414 461.23419423 -623.96311414 461.23419423 -632.25073242 470.44311523 C-634.93941809 473.56684367 -637.80611234 476.52481046 -640.640625 479.515625 C-645.45495827 484.63469499 -650.04652511 489.84583386 -654.43359375 495.33984375 C-657.25566866 498.8048034 -660.19502533 502.1557603 -663.140625 505.515625 C-668.74970499 511.94232443 -674.07739826 518.53892967 -679.28515625 525.29296875 C-680.89197337 527.3661444 -682.51508691 529.42584934 -684.140625 531.484375 C-691.46572813 540.78415031 -698.46864958 550.24530588 -705.21191406 559.97412109 C-706.83797334 562.30691827 -708.4832629 564.62516761 -710.1328125 566.94140625 C-718.7712294 579.10276648 -726.90349985 591.52737121 -734.765625 604.203125 C-735.44560547 605.2972168 -736.12558594 606.39130859 -736.82617188 607.51855469 C-746.17039652 622.58224862 -755.0727941 637.8174298 -763.34277344 653.50439453 C-764.67560691 656.0323872 -766.01948549 658.55412977 -767.3671875 661.07421875 C-769.86847446 665.76585378 -772.32415101 670.48013566 -774.765625 675.203125 C-775.21196289 676.06180176 -775.65830078 676.92047852 -776.11816406 677.80517578 C-814.28753271 751.53120786 -840.52380574 832.26372283 -868.58135986 1009.93933105 C-868.75383158 1012.0582367 -868.93559338 1014.17610333 -869.12060547 1016.29394531 C-872.7535967 1059.25285205 -872.71265776 1104.14677621 -868.94921875 1147.09179688 C-868.75106485 1149.37056672 -868.56267145 1151.65003135 -868.375 1153.9296875 C-861.90072479 1231.66012109 -845.42467896 1307.57874616 -819.765625 1381.203125 C-819.41661133 1382.20472656 -819.41661133 1382.20472656 -819.06054688 1383.2265625 C-801.41315732 1433.71909351 -778.8272405 1483.05466372 -751.765625 1529.203125 C-750.89878655 1530.70387701 -750.03286424 1532.20515865 -749.16796875 1533.70703125 C-729.70461427 1567.350939 -707.520156 1599.468976 -683.765625 1630.203125 C-682.96995117 1631.23493896 -682.96995117 1631.23493896 -682.15820312 1632.28759766 C-676.41354867 1639.723988 -670.48853304 1646.97474945 -664.3828125 1654.1171875 C-661.95870744 1656.95918065 -659.60831101 1659.85602565 -657.265625 1662.765625 C-653.20736732 1667.75480918 -648.92046934 1672.47983115 -644.5390625 1677.18359375 C-642.47684715 1679.40682974 -640.47398587 1681.67422581 -638.48568159 1683.96376276 C-624.85315316 1699.56073206 -610.04549525 1714.06585215 -595.3958435 1728.69517269 C-592.08032521 1732.00721848 -588.76775209 1735.32220791 -585.45478672 1738.63680696 C-579.66162856 1744.43202771 -573.86663497 1750.22540785 -568.07040215 1756.01755333 C-559.45176167 1764.63013315 -550.83601674 1773.2456053 -542.22084387 1781.8616536 C-527.72532173 1796.35848661 -513.22748187 1810.85299962 -498.72830391 1825.34617615 C-484.37940669 1839.68914941 -470.03155023 1854.03316248 -455.68507195 1868.3785553 C-454.79190937 1869.27164914 -453.89874679 1870.16474298 -452.97851868 1871.08490026 C-448.44230939 1875.6207712 -443.90611859 1880.15666062 -439.36993491 1884.69255716 C-407.268725 1916.79166857 -375.16519945 1948.88846288 -343.06030273 1980.98388672 C-335.28623816 1988.75565954 -327.51218175 1996.52744053 -319.73815918 2004.29925537 C-319.25598168 2004.78129592 -318.77380418 2005.26333647 -318.27701524 2005.75998431 C-295.84137813 2028.18927163 -273.407055 2050.61987304 -250.97306848 2073.05081127 C-249.51576578 2074.50791591 -248.05846251 2075.96501999 -246.60115913 2077.42212395 C-236.94314037 2087.07882287 -227.2851442 2096.7355444 -217.62716317 2106.39228105 C-197.95403523 2126.0628738 -178.28076387 2145.73332312 -158.60740662 2165.40368652 C-157.25068511 2166.7602021 -157.25068511 2166.7602021 -155.86655508 2168.14412203 C-95.50196831 2228.49951345 -35.13405726 2288.85157992 25.234375 2349.203125 C28.85194884 2347.67229308 31.16421716 2345.52312932 33.92940551 2342.75764215 C34.61908609 2342.07198218 34.61908609 2342.07198218 35.32269961 2341.37247049 C36.87058557 2339.83115528 38.41121463 2338.28278356 39.95200825 2336.73438072 C41.07288726 2335.61528375 42.19420458 2334.49662564 43.3159214 2333.37836844 C46.4151813 2330.28610166 49.50813579 2327.18759307 52.60015012 2324.08808362 C55.95835004 2320.72393224 59.32232425 2317.36556349 62.68558329 2314.00647128 C68.58544183 2308.11231064 74.48155313 2302.21442197 80.3752594 2296.3141098 C89.13946284 2287.54011011 97.90936009 2278.77181837 106.68043299 2270.00468651 C121.43498581 2255.2564178 136.1847971 2240.50341554 150.93186378 2225.74766159 C165.54339908 2211.12752067 180.15677803 2196.50922698 194.7727108 2181.89348221 C195.68086346 2180.9853372 196.58901611 2180.07719219 197.52468855 2179.14152763 C201.2109482 2175.45530889 204.8972202 2171.7691025 208.58350904 2168.08291295 C218.88912375 2157.77756828 229.1944128 2147.471898 239.49945354 2137.16597939 C240.20342214 2136.46195128 240.20342214 2136.46195128 240.92161233 2135.74370039 C255.88089471 2120.78310964 270.83874439 2105.82108732 285.79555225 2090.85802269 C286.28080884 2090.37256316 286.76606543 2089.88710364 287.26602676 2089.38693322 C295.14658723 2081.5030639 303.02705448 2073.6191014 310.90751704 2065.73513422 C342.15224057 2034.47652684 373.40057925 2003.22153866 404.65258789 1971.97021484 C405.64005579 1970.98276734 406.6275236 1969.99531974 407.61499132 1969.00787206 C409.58758305 1967.0353205 411.56017508 1965.06276925 413.5327673 1963.09021818 C417.95569321 1958.66738369 422.37861559 1954.24454567 426.80153119 1949.82170087 C427.78113193 1948.84211591 428.760733 1947.86253128 429.74033441 1946.88294699 C455.91311059 1920.71061615 482.08342616 1894.53582537 508.25281829 1868.36011088 C509.62299394 1866.98960482 509.62299394 1866.98960482 511.02084991 1865.59141176 C514.69421146 1861.91716196 518.36757294 1858.24291209 522.04092146 1854.56864926 C534.82787343 1841.77853609 547.61565169 1828.9892496 560.40396332 1816.2004959 C576.88651684 1799.71734549 593.36737209 1783.23250003 609.84530119 1766.74472658 C618.56279808 1758.02211168 627.28164894 1749.30085546 636.00246497 1740.58155899 C641.8248432 1734.75991454 647.64540311 1728.93645637 653.46447404 1723.11150611 C656.78191176 1719.79081513 660.10013113 1716.47091566 663.42054269 1713.15319805 C666.44214794 1710.13400875 669.46143949 1707.11252548 672.47891435 1704.08920828 C673.56322064 1703.00360356 674.64835957 1701.91882966 675.7344397 1700.83499954 C680.93056646 1695.64877003 686.05336925 1690.44085567 690.8223456 1684.85341469 C693.01078038 1682.29571203 695.31508304 1679.85371622 697.609375 1677.390625 C701.88277471 1672.76531547 705.92321229 1668.00230599 709.87109375 1663.09375 C712.02752079 1660.45613676 714.23626404 1657.88069196 716.47436523 1655.31298828 C722.58023707 1648.29789932 728.28194931 1641.03957771 733.8828125 1633.6171875 C736.12579467 1630.64717881 738.40122734 1627.7074735 740.7109375 1624.7890625 C747.89883287 1615.69948615 754.65070193 1606.42813747 761.1015625 1596.80078125 C763.37059468 1593.42641726 765.73349128 1590.13759798 768.14453125 1586.86328125 C772.25637587 1581.24027511 776.06063786 1575.45569129 779.796875 1569.578125 C780.48378418 1568.49982422 781.17069336 1567.42152344 781.87841797 1566.31054688 C828.54581451 1492.69377027 865.70955664 1413.24753292 889.234375 1329.203125 C889.44000061 1328.46852051 889.64562622 1327.73391602 889.85748291 1326.97705078 C910.07288473 1254.45800036 923.2402208 1178.68303193 923.4375 1103.23828125 C923.44452354 1101.56498692 923.45161034 1099.89169286 923.45875549 1098.21839905 C923.47815062 1092.90080375 923.48318978 1087.5832521 923.484375 1082.265625 C923.48481686 1081.35905907 923.48525871 1080.45249313 923.48571396 1079.51845551 C923.49254212 1052.80027735 923.288862 1026.22090872 920.48760986 999.62249756 C920.22101586 997.07549353 919.96692906 994.52743448 919.71435547 991.97900391 C913.06727182 925.62814815 899.11488649 860.51376484 878.234375 797.203125 C878.00878906 796.51647766 877.78320312 795.82983032 877.55078125 795.12237549 C870.8795487 774.83250701 863.5005927 754.897809 855.234375 735.203125 C854.96838501 734.56908752 854.70239502 733.93505005 854.42834473 733.28179932 C837.23895717 692.41157532 817.22204171 653.11777161 794.234375 615.203125 C793.35386475 613.7500293 793.35386475 613.7500293 792.45556641 612.26757812 C774.20810274 582.2548201 754.24588872 553.05386878 732.109375 525.765625 C729.68055686 522.77074084 727.3064929 519.73696449 724.94360352 516.68994141 C720.62355841 511.12470239 716.16579622 505.79258256 711.390625 500.60546875 C709.19895605 498.16366367 707.15328126 495.6444476 705.109375 493.078125 C700.58192377 487.47460701 695.69087407 482.25371567 690.72607422 477.03662109 C690.11779785 476.3967627 689.50952148 475.7569043 688.8828125 475.09765625 C688.34833496 474.53925049 687.81385742 473.98084473 687.26318359 473.40551758 C685.49110373 471.48181933 683.78440302 469.52192929 682.07836914 467.54003906 C677.94252011 462.79978756 673.53442821 458.35928989 669.08203125 453.91796875 C667.79358559 452.628088 667.79358559 452.628088 666.47911072 451.31214905 C664.67260485 449.50496639 662.86485038 447.69903108 661.0559082 445.89428711 C658.3050069 443.14874107 655.55948279 440.39789954 652.81445312 437.64648438 C651.04979968 435.8824918 649.28483603 434.1188095 647.51953125 432.35546875 C646.70782974 431.54174301 645.89612823 430.72801727 645.05982971 429.88963318 C640.81550964 425.66251762 636.50026397 421.58373604 631.95281982 417.68345642 C629.37817675 415.46556441 626.90845706 413.14429794 624.421875 410.828125 C619.81911662 406.57506284 615.07691212 402.56078718 610.19140625 398.6328125 C607.40433278 396.34277327 604.69218267 393.98952329 601.98632812 391.60522461 C594.7607151 385.24521898 587.30221547 379.30790798 579.61328125 373.51953125 C576.65465431 371.29146216 573.72839981 369.02905076 570.82421875 366.73046875 C561.62482539 359.45425486 552.22559844 352.64392835 542.49609375 346.09375 C539.13955485 343.83216397 535.85662163 341.49513762 532.609375 339.078125 C525.38318349 333.76931252 517.80852159 328.99525028 510.234375 324.203125 C509.44272949 323.70151855 508.65108398 323.19991211 507.83544922 322.68310547 C423.6228915 269.50241348 331.19135947 230.1177819 73.234375 184.203125 C72.17444336 184.14527832 71.11451172 184.08743164 70.02246094 184.02783203 C-21.55891873 179.27530278 -114.23235218 189.33149969 -342.765625 262.203125 Z " fill="#1EDBCF" transform="translate(3333.765625,-0.203125)"/>
<path d="M0 0 C2.34682912 2.1331402 4.73565836 4.20897698 7.1328125 6.28515625 C11.29306924 9.99604728 14.90370082 13.92411187 18.4453125 18.22265625 C18.86651367 18.71556152 19.28771484 19.2084668 19.72167969 19.71630859 C31.10060064 33.03922752 39.61254314 47.55711753 47.4453125 63.22265625 C47.7753125 23.29265625 48.1053125 -16.63734375 48.4453125 -57.77734375 C118.0753125 -57.77734375 187.7053125 -57.77734375 259.4453125 -57.77734375 C259.45989502 -38.44970459 259.47447754 -19.12206543 259.48950195 0.79125977 C259.49967848 13.69942756 259.50990531 26.60759517 259.52082825 39.51576233 C259.52152078 40.33589264 259.52221331 41.15602295 259.52292682 42.0010057 C259.54630473 69.62322819 259.57377003 97.24544504 259.60429382 124.86766052 C259.60528939 125.76953671 259.60628496 126.6714129 259.60731069 127.60061867 C259.62897206 147.20347029 259.65129496 166.80632111 259.67429878 186.4091712 C259.68557674 196.02318756 259.69670861 205.63720408 259.70776367 215.2512207 C259.70886624 216.20790225 259.7099688 217.1645838 259.71110478 218.15025571 C259.74673749 249.12764841 259.77273354 280.10504004 259.79370219 311.08244585 C259.81531144 342.93070864 259.84670272 374.7789473 259.89030363 406.62718793 C259.89646537 411.13133558 259.90251593 415.63548338 259.90849876 420.13963127 C259.90967965 421.02606315 259.91086053 421.91249503 259.91207719 422.82578848 C259.93075772 437.06257066 259.93920612 451.29934119 259.94377374 465.53613412 C259.94859236 479.8684889 259.96432013 494.20079947 259.99097816 508.53313053 C260.00646661 517.03553363 260.0137961 525.53784942 260.00908179 534.04026582 C260.00675145 539.73710504 260.01543046 545.43386245 260.03263661 551.1306759 C260.04210455 554.36563285 260.04550081 557.6003766 260.03870813 560.83534545 C259.99950908 581.63722847 260.98240462 602.29124568 267.4453125 622.22265625 C267.89003906 623.599375 267.89003906 623.599375 268.34375 625.00390625 C270.68229501 631.47987704 274.18823326 636.83763293 278.4453125 642.22265625 C278.94546875 642.86203125 279.445625 643.50140625 279.9609375 644.16015625 C286.86450243 651.97024991 298.22643581 656.90409152 308.4453125 658.22265625 C309.13496094 658.3309375 309.82460938 658.43921875 310.53515625 658.55078125 C329.10651461 661.10308366 349.39583952 657.68612703 367.4453125 656.22265625 C367.4453125 712.65265625 367.4453125 769.08265625 367.4453125 827.22265625 C349.79653858 833.10558089 349.79653858 833.10558089 340.7578125 834.84765625 C339.70819336 835.05293945 338.65857422 835.25822266 337.57714844 835.46972656 C318.1124871 839.11039223 298.23384992 840.80274034 278.4453125 841.22265625 C277.43742676 841.24457031 276.42954102 841.26648437 275.39111328 841.2890625 C224.39522681 842.21611997 168.19723399 837.03576967 127.4453125 803.22265625 C126.86894043 802.75311523 126.29256836 802.28357422 125.69873047 801.79980469 C96.07092306 777.61549015 78.15482756 746.23809527 69.4453125 709.22265625 C68.81625 710.04507813 68.1871875 710.8675 67.5390625 711.71484375 C62.25349708 718.61434608 56.96096251 725.50449516 51.4453125 732.22265625 C51.02588379 732.73376953 50.60645508 733.24488281 50.17431641 733.77148438 C39.09870093 747.18735325 27.13928692 759.46310492 13.4453125 770.22265625 C12.65898437 770.89941406 11.87265625 771.57617188 11.0625 772.2734375 C-2.68848634 784.06307626 -18.46782939 793.93907573 -34.5546875 802.22265625 C-35.49989258 802.71088867 -36.44509766 803.19912109 -37.41894531 803.70214844 C-80.69171535 825.81575723 -127.41754303 837.07842494 -175.5546875 842.22265625 C-176.60624023 842.34125 -177.65779297 842.45984375 -178.74121094 842.58203125 C-216.28592065 846.65533524 -256.11881221 846.35678984 -293.5546875 841.22265625 C-294.62221252 841.07700226 -294.62221252 841.07700226 -295.71130371 840.92840576 C-355.26649352 832.69052046 -412.60636777 813.61827026 -463.5546875 781.22265625 C-464.21436523 780.8045166 -464.87404297 780.38637695 -465.55371094 779.95556641 C-480.5485215 770.3766193 -494.99567931 759.74181365 -508.5546875 748.22265625 C-509.62488077 747.32668049 -510.69520071 746.43085601 -511.765625 745.53515625 C-528.29520812 731.61860199 -544.59524833 716.74968783 -558.5546875 700.22265625 C-559.85599609 698.73765625 -559.85599609 698.73765625 -561.18359375 697.22265625 C-569.06882928 688.20439404 -576.40583529 678.83224098 -583.5546875 669.22265625 C-584.09770508 668.49530273 -584.64072266 667.76794922 -585.20019531 667.01855469 C-638.82938666 594.90752675 -667.12303821 508.18038989 -668.12548828 302.08251953 C-657.41344408 229.64564239 -630.68791302 159.91855365 -586.5546875 101.22265625 C-586.09433105 100.60922363 -585.63397461 99.99579102 -585.15966797 99.36376953 C-577.47675818 89.16604191 -569.50760124 79.23053699 -560.890625 69.8046875 C-559.64592853 68.4288608 -558.40637819 67.04761366 -557.20703125 65.63208008 C-551.68817103 59.15240831 -545.68288519 53.16475977 -539.66796875 47.15063477 C-537.81739783 45.29788157 -535.97498674 43.43726919 -534.1328125 41.57617188 C-528.02544528 35.44001179 -521.86152643 29.61827435 -515.06445312 24.2355957 C-512.6113397 22.26809374 -510.27540538 20.21642194 -507.9453125 18.10546875 C-503.5763133 14.18422413 -499.01071569 10.60398737 -494.3046875 7.09765625 C-493.44770264 6.45803955 -492.59071777 5.81842285 -491.70776367 5.15942383 C-426.38514914 -43.13695297 -348.69243772 -71.63990137 -267.5546875 -76.77734375 C-266.6776416 -76.83374023 -265.8005957 -76.89013672 -264.89697266 -76.94824219 C-172.1433807 -82.62257958 -70.57004795 -64.48642312 0 0 Z M-368.5546875 170.22265625 C-369.09480469 170.65980957 -369.63492188 171.09696289 -370.19140625 171.54736328 C-384.22920408 182.99602183 -397.63241977 195.73434962 -408.5546875 210.22265625 C-408.96847656 210.76003418 -409.38226563 211.29741211 -409.80859375 211.85107422 C-425.86019422 232.7286843 -438.42575265 255.54623694 -447.5546875 280.22265625 C-447.82909668 280.95532715 -448.10350586 281.68799805 -448.38623047 282.44287109 C-474.4485767 352.9256417 -470.24833936 437.67623056 -439.18994141 505.79248047 C-432.09847862 520.81198875 -423.63556689 535.02873817 -413.5546875 548.22265625 C-413.13396973 548.7846875 -412.71325195 549.34671875 -412.27978516 549.92578125 C-401.85104244 563.84644797 -389.91818211 577.69850872 -376.3046875 588.59765625 C-370.78830645 593.02116935 -370.78830645 593.02116935 -368.140625 595.3046875 C-316.35076141 639.61379301 -246.62307004 655.58727736 -179.86328125 650.71875 C-164.51445978 649.39436022 -149.51143265 646.89248826 -134.5546875 643.22265625 C-133.68505371 643.01302246 -132.81541992 642.80338867 -131.91943359 642.58740234 C-91.2447543 632.55580781 -53.80367075 611.4328436 -23.34375 582.82421875 C-20.83319338 580.48243905 -18.26980405 578.22529834 -15.6796875 575.97265625 C35.04920692 530.19490192 60.40056599 463.8887539 64.1328125 396.7890625 C64.24114987 394.60046289 64.3458273 392.41167611 64.4453125 390.22265625 C64.48140625 389.43487793 64.5175 388.64709961 64.5546875 387.83544922 C66.23384215 344.35583856 57.07209014 297.55989443 36.4453125 259.09619141 C35.42449371 257.18365151 34.43271966 255.258101 33.4453125 253.328125 C18.45595287 224.26450707 -4.32768844 197.11774638 -29.5546875 176.22265625 C-30.05387695 175.80435547 -30.55306641 175.38605469 -31.06738281 174.95507812 C-46.39834624 162.15999663 -62.85737 151.45051574 -80.5546875 142.22265625 C-81.2657666 141.84544434 -81.9768457 141.46823242 -82.70947266 141.07958984 C-119.7717551 121.62505387 -162.16697017 114.00128504 -203.6796875 113.97265625 C-205.00444092 113.97164413 -205.00444092 113.97164413 -206.35595703 113.97061157 C-265.80021261 114.04243334 -322.27085508 132.53808426 -368.5546875 170.22265625 Z " fill="#303AB2" transform="translate(4763.5546875,3101.77734375)"/>
<path d="M0 0 C7.96727882 7.49264181 15.36318706 15.28619883 22 24 C22.79921875 25.04414063 23.5984375 26.08828125 24.421875 27.1640625 C32.09812147 37.4334536 38.27301099 48.54602199 44 60 C44.33 20.4 44.66 -19.2 45 -60 C114.63 -60 184.26 -60 256 -60 C256.01981934 -40.8791748 256.03963867 -21.75834961 256.06005859 -2.05810547 C256.07358494 10.71176169 256.08714463 23.48162875 256.10116577 36.25149536 C256.10250057 37.46849925 256.10250057 37.46849925 256.10386233 38.71008908 C256.13386747 66.03515332 256.16658206 93.36021361 256.20132446 120.68527222 C256.2030249 122.02349134 256.2030249 122.02349134 256.20475969 123.3887452 C256.22941414 142.77993217 256.25450716 162.17111856 256.28005161 181.56230439 C256.29257689 191.07246063 256.30500531 200.582617 256.31738281 210.09277344 C256.31861614 211.03912185 256.31984946 211.98547026 256.32112016 212.96049589 C256.3610126 243.60536509 256.39451573 274.2502372 256.42468691 304.89511738 C256.45573919 336.40052016 256.49327452 367.90590877 256.53890612 399.41129397 C256.54535602 403.86657132 256.55173222 408.32184878 256.55806351 412.77712631 C256.55931181 413.65394356 256.56056012 414.53076081 256.56184625 415.43414828 C256.58170879 429.5186323 256.59478649 443.60311474 256.60529328 457.6876085 C256.61601564 471.86534861 256.63396608 486.04306524 256.65916704 500.22078712 C256.67390233 508.63229026 256.68322325 517.0437575 256.68456683 525.45527367 C256.68601561 531.09024017 256.69475486 536.72516644 256.70915592 542.36011461 C256.71713426 545.56052234 256.72107798 548.7608374 256.71827881 551.96125616 C256.44420337 601.31492506 256.44420337 601.31492506 278.71484375 643.83203125 C292.01281204 656.19131943 309.86209897 657 327 657 C339.21 656.01 351.42 655.02 364 654 C364 710.43 364 766.86 364 825 C346.38551333 830.87149556 346.38551333 830.87149556 337.25 832.625 C336.19707764 832.8302832 335.14415527 833.03556641 334.05932617 833.24707031 C314.57862725 836.89315205 294.8019359 838.59649647 275 839 C273.97503418 839.02191406 272.95006836 839.04382812 271.89404297 839.06640625 C212.43176308 840.14118763 155.21419875 831.15917261 111 789 C109.81277344 787.89205078 109.81277344 787.89205078 108.6015625 786.76171875 C86.13560934 765.20228651 73.95577211 736.52995412 66 707 C65.46596558 707.74552124 65.46596558 707.74552124 64.92114258 708.50610352 C47.88965854 732.18893634 28.48418658 755.64205606 4.64208984 772.80664062 C2.9101911 774.06526701 1.21446686 775.36396455 -0.48046875 776.671875 C-10.47245508 784.30683979 -21.08240287 790.77963246 -32 797 C-32.7626416 797.43699219 -33.5252832 797.87398437 -34.31103516 798.32421875 C-81.50566657 825.07504536 -136.41587753 836.63810678 -190 841 C-191.14476807 841.09571289 -192.28953613 841.19142578 -193.46899414 841.29003906 C-279.35316417 847.59616011 -365.03168153 833.95773058 -514 744 C-514.54269531 743.54898926 -515.08539063 743.09797852 -515.64453125 742.63330078 C-523.22762343 736.31477053 -530.41208881 729.7824645 -537.28125 722.69140625 C-539.19934733 720.79260012 -541.05076972 719.09004826 -543.12890625 717.39453125 C-545.51756501 715.40235734 -547.45931228 713.50277177 -549.4375 711.125 C-551.65483053 708.51951533 -553.91104073 706.06041227 -556.375 703.6875 C-560.08617402 700.03405535 -563.30703395 696.04853954 -566.56640625 691.9921875 C-568.61506856 689.47328649 -570.71173557 687.00934605 -572.84057617 684.55834961 C-588.91273657 665.96335236 -602.72164224 645.26225766 -615 624 C-615.37801758 623.35224609 -615.75603516 622.70449219 -616.14550781 622.03710938 C-646.20171956 570.31943828 -664.35539063 512.66323028 -672.1875 453.5 C-672.3424292 452.34008545 -672.4973584 451.1801709 -672.65698242 449.98510742 C-675.44599932 427.72914731 -676.38023184 405.51983073 -676.31805801 383.10095978 C-676.31240122 381.02626976 -676.30959099 378.95158797 -676.30697632 376.87689209 C-676.26838012 355.788492 -675.73783222 334.93091269 -673 314 C-672.91278687 313.32072449 -672.82557373 312.64144897 -672.73571777 311.94158936 C-662.82018756 234.9793543 -636.37295154 160.08292798 -589 98 C-588.52224121 97.37206543 -588.04448242 96.74413086 -587.55224609 96.09716797 C-578.90027803 84.78305588 -569.73407887 73.8933099 -560.14453125 63.36328125 C-558.77363184 61.8525451 -557.41546254 60.33009399 -556.07421875 58.79296875 C-550.91411766 52.91145547 -545.4597343 47.35325588 -539.9375 41.8125 C-539.18154541 41.05195313 -538.42559082 40.29140625 -537.64672852 39.5078125 C-532.92586719 34.79978937 -528.06260558 30.3362519 -523 26 C-521.91704718 25.05052926 -520.83496904 24.10005966 -519.75390625 23.1484375 C-450.92628949 -36.88971381 -364.7135446 -72.08518419 0 0 Z M-254 115 C-254.96470215 115.1556543 -255.9294043 115.31130859 -256.92333984 115.47167969 C-304.20300391 123.36080931 -347.45584966 145.71504365 -382.6796875 177.90234375 C-384.6870432 179.71707441 -386.73567609 181.45391687 -388.8125 183.1875 C-430.87307657 220.09607823 -454.87171968 275.87172255 -464 330 C-464.17644043 330.99128906 -464.35288086 331.98257813 -464.53466797 333.00390625 C-469.91150892 364.33772668 -469.47945087 399.71967023 -464 431 C-463.83371094 432.00675781 -463.66742188 433.01351562 -463.49609375 434.05078125 C-456.83704302 473.65980151 -441.88593064 511.60370613 -418 544 C-417.58008789 544.57540527 -417.16017578 545.15081055 -416.72753906 545.74365234 C-411.38839663 553.02297495 -405.63777119 559.77092336 -399.46484375 566.34765625 C-397.50451132 568.45711064 -395.63945317 570.58945942 -393.8125 572.8125 C-391.18999408 575.91318363 -388.26614988 578.51356467 -385.171875 581.13671875 C-382.88880599 583.09539486 -380.70133397 585.13760008 -378.5 587.1875 C-326.06005202 634.27969073 -256.37346556 652.51148901 -187.15478516 648.79345703 C-152.79002245 646.3929606 -118.96491748 638.26469276 -88 623 C-86.85724609 622.4419165 -86.85724609 622.4419165 -85.69140625 621.87255859 C-68.57368152 613.42964141 -52.8053825 603.03139936 -38 591 C-37.47583496 590.57879883 -36.95166992 590.15759766 -36.41162109 589.72363281 C-21.27622471 577.4783438 -6.75061008 563.54806333 5 548 C5.77859375 547.02675781 6.5571875 546.05351562 7.359375 545.05078125 C25.47627923 522.32926732 38.86984494 496.54763529 48 469 C48.4343335 467.69482422 48.4343335 467.69482422 48.87744141 466.36328125 C61.67296243 427.02025488 65.04535741 381.98671179 59 341 C58.86577637 340.08686035 58.73155273 339.1737207 58.59326172 338.23291016 C48.4487276 271.49018897 14.62465286 209.02709979 -40 168 C-41.1716205 167.07815279 -42.34210759 166.15486402 -43.51171875 165.23046875 C-81.63277448 135.46471291 -128.16264042 118.34632646 -176 113 C-176.77609619 112.9057373 -177.55219238 112.81147461 -178.35180664 112.71435547 C-187.72657769 111.70022929 -197.14400613 111.75628959 -206.5625 111.75 C-207.47184296 111.74932526 -208.38118591 111.74865051 -209.31808472 111.74795532 C-224.40953069 111.76568599 -239.08895027 112.49094122 -254 115 Z " fill="#303AB2" transform="translate(6683,3104)"/>
<path d="M0 0 C0.68958675 -0.00044186 1.37917351 -0.00088371 2.08965683 -0.00133896 C24.28184124 -0.00878766 46.27313086 0.42989497 68.3125 3.25 C69.34718414 3.3808197 69.34718414 3.3808197 70.402771 3.51428223 C119.86257351 9.82697273 167.85496113 22.7155806 213.3125 43.25 C214.29508789 43.69311523 215.27767578 44.13623047 216.29003906 44.59277344 C251.22184581 60.49621322 283.45328335 81.2094546 313.3125 105.25 C314.77623047 106.42175781 314.77623047 106.42175781 316.26953125 107.6171875 C321.56675013 111.89941479 326.70304523 116.31806412 331.73046875 120.9140625 C333.83639293 122.81927076 335.96265559 124.69150832 338.10546875 126.5546875 C350.56110519 137.43463719 362.20773295 149.00375771 373.3125 161.25 C374.15425781 162.16523437 374.99601562 163.08046875 375.86328125 164.0234375 C380.7708116 169.39714085 385.46128277 174.9214893 389.99902344 180.61083984 C390.91067556 181.74854102 391.82844415 182.88135732 392.75097656 184.01025391 C409.09855748 204.03733795 423.66368201 225.97440914 435.94580078 248.71923828 C436.87564049 250.44105293 437.81448021 252.15803094 438.76123047 253.87060547 C466.39622246 303.89712007 481.84431134 359.46277935 488.5625 416 C488.64576538 416.69816833 488.72903076 417.39633667 488.81481934 418.11566162 C491.02844046 436.92921533 491.55301823 455.56972472 491.5625 474.5 C491.56351212 476.32230637 491.56351212 476.32230637 491.56454468 478.181427 C491.54654402 498.67307387 490.86720707 518.91209343 488.3125 539.25 C488.22764343 539.9255896 488.14278687 540.6011792 488.05535889 541.29724121 C479.37700489 609.21286691 456.31029634 675.1222786 418.3125 732.25 C417.85810547 732.93707031 417.40371094 733.62414063 416.93554688 734.33203125 C407.24163637 748.92171527 396.58436398 762.84562122 385.3125 776.25 C384.61060547 777.08724609 384.61060547 777.08724609 383.89453125 777.94140625 C378.51089705 784.34917652 373.11697151 790.63509551 367.1015625 796.46484375 C365.26089734 798.30148999 363.56694904 800.21355946 361.875 802.1875 C356.27399215 808.67957728 350.17182213 814.60531172 343.6640625 820.1796875 C341.16856692 822.37671849 338.74509796 824.63861222 336.32202148 826.91479492 C329.86050048 832.97977611 323.27786265 838.76267491 316.3125 844.25 C315.68424316 844.75080078 315.05598633 845.25160156 314.40869141 845.76757812 C291.49041195 864.02460394 267.31353491 880.16491218 241.50878906 894.06152344 C239.33795096 895.23622774 237.18054102 896.43311372 235.0234375 897.6328125 C212.55069475 909.97225527 188.67542051 919.39265167 164.3125 927.25 C163.38550293 927.55599121 162.45850586 927.86198242 161.50341797 928.17724609 C115.93291479 943.17151698 67.01987492 951.27916237 19.078125 951.453125 C17.77309525 951.46013931 16.46806549 951.46715363 15.12348938 951.47438049 C10.93648785 951.49376109 6.74954187 951.49881466 2.5625 951.5 C1.49120409 951.50066278 1.49120409 951.50066278 0.39826584 951.50133896 C-21.76043533 951.50852423 -43.68688119 951.13981705 -65.6875 948.25 C-66.70481201 948.1191803 -66.70481201 948.1191803 -67.74267578 947.98571777 C-165.9827021 935.32187553 -257.76429167 895.46901227 -331.17578125 828.515625 C-332.51776604 827.3051255 -333.86542237 826.10003726 -335.24731445 824.93530273 C-341.94755079 819.24364623 -348.09496379 812.99320736 -354.29663086 806.77124023 C-356.2454687 804.81704376 -358.19959272 802.86824853 -360.15429688 800.91992188 C-366.21016158 794.86753561 -372.1848859 788.81776368 -377.6875 782.25 C-378.533125 781.28578125 -379.37875 780.3215625 -380.25 779.328125 C-388.56687255 769.67842031 -396.15222042 759.51607636 -403.6875 749.25 C-404.2148877 748.53859863 -404.74227539 747.82719727 -405.28564453 747.09423828 C-462.72615133 669.41581929 -489.0001132 572.25543933 -488.875 476.5 C-488.87406342 475.56291199 -488.87312683 474.62582397 -488.87216187 473.66033936 C-488.67628423 382.55118598 -464.9560373 291.44231321 -410.6875 212.25 C-410.27935059 211.6631543 -409.87120117 211.07630859 -409.45068359 210.47167969 C-401.05934822 198.45599462 -392.22373248 186.83902118 -382.66333008 175.72851562 C-380.78588964 173.5414448 -378.92595897 171.34191455 -377.08447266 169.12451172 C-369.68011074 160.26313234 -361.74912489 152.03236766 -353.54980469 143.90649414 C-351.42055061 141.79569754 -349.29960919 139.67680599 -347.1796875 137.55664062 C-345.80255672 136.18442059 -344.42496884 134.8126591 -343.046875 133.44140625 C-342.425849 132.82149307 -341.804823 132.2015799 -341.16497803 131.56288147 C-336.82716862 127.27109454 -332.31486335 123.22641009 -327.6875 119.25 C-327.17109451 118.80067612 -326.65468903 118.35135223 -326.12263489 117.88841248 C-316.95819581 109.9224405 -307.39541319 102.53719733 -297.6875 95.25 C-297.06117676 94.775625 -296.43485352 94.30125 -295.78955078 93.8125 C-230.78678894 44.61933221 -151.94793092 13.83570388 -44.6875 1.25 C-43.58462646 1.1454248 -42.48175293 1.04084961 -41.34545898 0.93310547 C-27.60054427 -0.18439978 -13.78061597 0.0040429 0 0 Z M-47.6875 198.25 C-49.23195801 198.49943359 -49.23195801 198.49943359 -50.80761719 198.75390625 C-100.7348727 207.10346276 -147.08713738 229.09965434 -184.03125 263.78125 C-186.16299623 265.76252002 -188.32540094 267.64207027 -190.5625 269.5 C-201.07129106 278.65422755 -210.08897422 289.54893116 -218.46435547 300.64160156 C-219.5940897 302.12716825 -220.75098599 303.59197353 -221.91015625 305.0546875 C-259.44440044 353.14756663 -275.89424643 414.46332223 -275.9375 474.75 C-275.93817474 475.60249329 -275.93884949 476.45498657 -275.93954468 477.33331299 C-275.84637913 552.03815343 -249.30691321 621.97249876 -197.6875 676.25 C-196.88070801 677.09981445 -196.88070801 677.09981445 -196.05761719 677.96679688 C-188.32579429 686.05148749 -180.29671529 693.31972803 -171.33398438 700.01367188 C-169.77629892 701.18332181 -168.23900112 702.3799808 -166.703125 703.578125 C-132.6196687 729.92371555 -91.07752979 746.47888043 -48.6875 753.25 C-47.77597168 753.39953125 -46.86444336 753.5490625 -45.92529297 753.703125 C27.24088358 765.14343028 103.95449465 749.50489249 164.3125 706.25 C171.92581209 700.67358281 179.1353312 694.68829234 186.08203125 688.296875 C188.14546274 686.40328813 190.24824581 684.57173836 192.375 682.75 C199.61095118 676.41491021 206.02924154 669.60443071 212.0234375 662.0859375 C213.49067559 660.26816472 214.99348752 658.47821414 216.5390625 656.7265625 C248.47391965 620.30587257 267.2215437 573.56500081 275.3125 526.25 C275.47766113 525.28513672 275.64282227 524.32027344 275.81298828 523.32617188 C280.89158133 491.75171336 280.70641072 456.76096328 275.3125 425.25 C275.05509033 423.74469727 275.05509033 423.74469727 274.79248047 422.20898438 C268.0063796 384.10008549 254.1325203 346.74845694 231.3125 315.25 C230.17167969 313.67025391 230.17167969 313.67025391 229.0078125 312.05859375 C213.15899641 290.58865777 194.56449956 269.51837702 173.3125 253.25 C172.07445912 252.26174527 170.83756713 251.27205028 169.6015625 250.28125 C130.79454528 219.48498364 84.3701582 201.73936723 35.3125 196.25 C34.47307861 196.15428711 33.63365723 196.05857422 32.76879883 195.95996094 C22.62200287 194.95723143 12.43632128 195.00633391 2.25 195 C1.27340424 194.99932526 0.29680847 194.99865051 -0.7093811 194.99795532 C-16.55689923 195.01530159 -32.02004729 195.66840221 -47.6875 198.25 Z " fill="#1EDBCF" transform="translate(3358.6875,809.75)"/>
<path d="M0 0 C0.54333984 0.41717285 1.08667969 0.8343457 1.64648438 1.26416016 C14.41734894 11.0898624 26.59674617 21.52945859 38.39013672 32.5078125 C40.13881609 34.12866908 41.89909309 35.73636127 43.66015625 37.34375 C51.3476702 44.39334085 58.61916535 51.66553564 65.58251953 59.4296875 C66.99809065 60.99788478 68.43091515 62.54814464 69.87109375 64.09375 C75.85271862 70.51979485 81.53938846 77.12272037 87 84 C87.49306641 84.6098877 87.98613281 85.21977539 88.49414062 85.84814453 C145.94270125 156.96418316 177.91869637 245.12842199 184 336 C184.08677002 337.27520508 184.08677002 337.27520508 184.17529297 338.57617188 C189.5841031 421.84295814 175.22284914 506.40601052 136.06103516 582.93554688 C135.32681524 584.3641165 134.59764969 585.79529096 133.87255859 587.22851562 C118.90108338 616.8101071 99.62814958 643.92872924 78 669 C77.36191406 669.73992188 76.72382812 670.47984375 76.06640625 671.2421875 C74.38878363 673.17164723 72.6952028 675.08597349 71 677 C70.39889404 677.68594238 69.79778809 678.37188477 69.1784668 679.07861328 C63.10223493 685.93589851 56.71324322 692.44030388 50.22485352 698.90551758 C48.4332405 700.6917467 46.64706945 702.48329347 44.86132812 704.27539062 C39.07684485 710.06358669 33.26295444 715.72485969 27 721 C25.8697369 721.9841209 24.74080374 722.96977157 23.61328125 723.95703125 C15.95540255 730.60096281 8.14298372 736.95793675 0 743 C-0.6595166 743.49081055 -1.3190332 743.98162109 -1.99853516 744.48730469 C-81.32608036 803.28236821 -178.45071327 837.8581504 -277.609375 838.203125 C-278.97671033 838.21014632 -280.34404533 838.21723315 -281.71138 838.22438049 C-286.05759146 838.24378446 -290.4037496 838.24881453 -294.75 838.25 C-295.49019756 838.25044186 -296.23039513 838.25088371 -296.99302292 838.25133896 C-319.138012 838.25827392 -341.01112926 837.97775036 -363 835 C-364.34773178 834.82598321 -365.69555367 834.65266317 -367.04345703 834.47998047 C-396.96891797 830.5997904 -426.26194405 824.26946717 -455 815 C-455.98226563 814.68450195 -456.96453125 814.36900391 -457.9765625 814.04394531 C-505.89839919 798.46288992 -551.02212544 774.6244909 -591 744 C-591.64936523 743.50371094 -592.29873047 743.00742188 -592.96777344 742.49609375 C-604.18247578 733.89014339 -615.00848383 724.82605472 -625.45874023 715.3059082 C-627.06496459 713.84843976 -628.67769243 712.39807844 -630.29931641 710.95776367 C-636.46449918 705.47682325 -642.36862494 699.78321077 -648.1875 693.9375 C-649.03763672 693.09123047 -649.88777344 692.24496094 -650.76367188 691.37304688 C-655.71880096 686.41026508 -660.44297192 681.32841985 -665 676 C-666.05691016 674.79669623 -667.1154813 673.59484916 -668.17578125 672.39453125 C-675.11344742 664.49148229 -681.74629644 656.46062484 -688 648 C-688.49999512 647.32598145 -688.99999023 646.65196289 -689.51513672 645.95751953 C-702.28916842 628.67820453 -713.6207068 610.81414517 -724 592 C-724.49113281 591.11634766 -724.98226562 590.23269531 -725.48828125 589.32226562 C-751.84340409 541.58402861 -766.83992251 488.85127156 -774 435 C-774.09087891 434.33381653 -774.18175781 433.66763306 -774.27539062 432.98126221 C-779.80077754 392.20979025 -779.55539585 348.74139221 -774 308 C-773.83371094 306.71561035 -773.66742187 305.4312207 -773.49609375 304.10791016 C-762.76368437 222.03176695 -729.61188803 143.34215952 -676 80 C-675.14261334 78.96926194 -674.28587495 77.9379844 -673.4296875 76.90625 C-662.98217676 64.36471357 -651.7680801 52.67519409 -640.25 41.125 C-639.70647888 40.57880005 -639.16295776 40.0326001 -638.60296631 39.46984863 C-632.58359028 33.42800801 -626.52151512 27.50536775 -620 22 C-618.99019563 21.12318962 -617.98104061 20.2456306 -616.97265625 19.3671875 C-608.24283555 11.89117997 -599.19031036 4.89866131 -590 -2 C-589.37367676 -2.474375 -588.74735352 -2.94875 -588.10205078 -3.4375 C-507.76593576 -64.2347319 -410.78752193 -92.11325031 0 0 Z M-426 126 C-426.65419922 126.34643555 -427.30839844 126.69287109 -427.98242188 127.04980469 C-442.71931657 134.90708561 -456.29759458 144.14815718 -469 155 C-470.0969076 155.91235917 -471.19460546 156.82376882 -472.29296875 157.734375 C-483.77645744 167.32459206 -494.60496824 177.55277619 -503.87890625 189.328125 C-505.30335018 191.12245216 -506.77091051 192.88330741 -508.27734375 194.609375 C-546.47825638 238.44445789 -567.93099254 299.98694304 -568.203125 357.9140625 C-568.21013931 358.91883636 -568.21715363 359.92361023 -568.22438049 360.95883179 C-568.24177818 364.18093403 -568.24823216 367.40285252 -568.25 370.625 C-568.25067474 371.72569824 -568.25134949 372.82639648 -568.25204468 373.96044922 C-568.23653475 389.86348542 -567.84606816 405.3158114 -565 421 C-564.83371094 421.99112793 -564.66742187 422.98225586 -564.49609375 424.00341797 C-556.59218837 470.73159933 -536.97513765 514.28994219 -507 551 C-506.34064453 551.81162598 -506.34064453 551.81162598 -505.66796875 552.63964844 C-494.4654113 566.3430585 -482.09337761 579.25308247 -468 590 C-466.80061147 590.93988755 -465.60140507 591.88000755 -464.40234375 592.8203125 C-454.71957503 600.33019076 -444.63273905 606.91643538 -434 613 C-433.24879883 613.43054687 -432.49759766 613.86109375 -431.72363281 614.3046875 C-390.84295463 637.43477546 -343.74263547 647.26706494 -297.0625 647.1875 C-296.34389801 647.18656342 -295.62529602 647.18562683 -294.88491821 647.18466187 C-232.09695611 647.00864435 -171.35141185 627.59409811 -123 587 C-122.48405273 586.57283691 -121.96810547 586.14567383 -121.43652344 585.70556641 C-109.69145139 575.96764933 -98.64433678 565.71560618 -89.1640625 553.71875 C-86.91173763 550.88911442 -84.55396395 548.17208056 -82.1875 545.4375 C-35.46120531 489.36594637 -19.21677547 414.11618387 -25.015625 342.66455078 C-30.94989572 277.61206009 -58.49497975 220.01062277 -104.671875 174.01245117 C-106.37654567 172.31095721 -108.06735611 170.59646265 -109.7578125 168.88085938 C-117.36441845 161.23090997 -125.3895889 154.4891536 -134 148 C-135.32736733 146.96945084 -136.6543199 145.93836667 -137.98046875 144.90625 C-183.17867765 110.63868413 -239.39662711 95.78779731 -295.5 95.75 C-296.85543411 95.74898788 -296.85543411 95.74898788 -298.23825073 95.74795532 C-342.9280519 95.80068752 -386.42090422 104.85254166 -426 126 Z " fill="#303AB2" transform="translate(1348,3113)"/>
<path d="M0 0 C91.01765574 -1.77451157 183.13129866 18.46414728 267.04833984 69.06640625 C268.31943604 69.83549316 268.31943604 69.83549316 269.61621094 70.62011719 C281.94153335 78.09457785 293.59600206 86.31891793 305.04833984 95.06640625 C305.70205566 95.5655957 306.35577148 96.06478516 307.02929688 96.57910156 C318.89168528 105.68301147 330.270746 115.29978522 341.23193359 125.46875 C343.72436889 127.76759809 346.25283285 130.01437005 348.79833984 132.25390625 C353.42028969 136.40392281 357.83631792 140.74602626 362.23583984 145.12890625 C362.90131836 145.78979248 363.56679687 146.45067871 364.25244141 147.1315918 C368.16176311 151.05306331 371.88347927 155.0859427 375.50073242 159.27807617 C377.38781936 161.45869012 379.34179564 163.57310052 381.29833984 165.69140625 C386.33916767 171.28570335 390.95923696 177.16445704 395.55078125 183.12744141 C397.09659388 185.12888319 398.65577426 187.11939682 400.21630859 189.109375 C418.17878936 212.13888795 432.93734594 237.0033671 446.04833984 263.06640625 C446.48388184 263.92282715 446.91942383 264.77924805 447.36816406 265.66162109 C472.65723347 315.64666754 486.2279771 372.29800622 490.04833984 428.06640625 C490.13446533 429.2565332 490.22059082 430.44666016 490.30932617 431.67285156 C491.1100545 443.3867594 491.24920795 455.07809158 491.23583984 466.81640625 C491.23493347 468.29574142 491.23493347 468.29574142 491.23400879 469.80496216 C491.05432038 578.35319543 455.32867783 680.53069047 372.75146484 778.453125 C371.45223828 779.7347264 370.14791184 781.01118832 368.83740234 782.28125 C366.99673719 784.11789624 365.30278888 786.02996571 363.61083984 788.00390625 C357.99007715 794.51888119 351.86347301 800.46723151 345.33349609 806.0625 C342.98402621 808.12280436 340.69883168 810.24013044 338.41577148 812.37329102 C332.16197456 818.21083463 325.76403937 823.75965374 319.04833984 829.06640625 C318.41863281 829.56865723 317.78892578 830.0709082 317.14013672 830.58837891 C246.62188871 886.76084034 162.83495843 921.32647315 28.43896484 934.26953125 C27.07162951 934.27655257 25.70429452 934.2836394 24.33695984 934.29078674 C19.99074839 934.31019071 15.64459024 934.31522078 11.29833984 934.31640625 C10.55814228 934.31684811 9.81794472 934.31728996 9.05531693 934.31774521 C-13.08817744 934.3246797 -34.96500944 934.0522477 -56.95166016 931.06640625 C-58.32627052 930.88720282 -59.70094729 930.70850816 -61.07568359 930.53027344 C-114.00192868 923.58428504 -166.54593905 909.0520214 -213.93017578 884.12207031 C-216.2240889 882.92413791 -218.53263464 881.75713436 -220.84228516 880.58984375 C-258.63741929 861.33990735 -296.53182509 835.43018429 -326.17431641 804.84765625 C-327.96790016 803.05013055 -329.83273446 801.40164165 -331.76416016 799.75390625 C-339.06208354 793.46160223 -345.84537017 786.5358133 -352.09228516 779.203125 C-353.94645231 777.07239089 -355.86356479 775.00938117 -357.79467773 772.94848633 C-363.73996196 766.58023376 -369.15046496 759.90678939 -374.45214844 752.99853516 C-376.02235124 750.97532041 -377.62223251 748.97864806 -379.22900391 746.984375 C-431.17452136 682.10967065 -460.41155686 601.19733636 -468.95166016 519.06640625 C-469.05607422 518.11797852 -469.16048828 517.16955078 -469.26806641 516.19238281 C-478.58821953 428.62423527 -463.72306575 335.32828728 -422.98339844 257.06054688 C-421.89195873 254.95101552 -420.8258045 252.82974594 -419.76025391 250.70703125 C-402.81160535 217.31125764 -380.26145718 187.06300035 -355.09619141 159.4296875 C-353.72529199 157.91895135 -352.3671227 156.39650024 -351.02587891 154.859375 C-345.86577782 148.97786172 -340.41139446 143.41966213 -334.88916016 137.87890625 C-334.13320557 137.11835938 -333.37725098 136.3578125 -332.59838867 135.57421875 C-328.42739052 131.41456346 -324.16891753 127.42230162 -319.70483398 123.57885742 C-317.53375739 121.70588436 -315.43287101 119.76177918 -313.32666016 117.81640625 C-307.69034847 112.73166023 -301.7405139 108.1011925 -295.73974609 103.46044922 C-294.02926776 102.12691136 -292.33558014 100.77514271 -290.64697266 99.4140625 C-218.93260734 41.76175458 -129.56524479 9.95716282 0 0 Z M-82.95166016 206.06640625 C-83.61327148 206.28345215 -84.27488281 206.50049805 -84.95654297 206.72412109 C-124.54777525 219.89757204 -164.52837719 245.83037412 -191.36962891 278.17578125 C-193.21608347 280.38240844 -195.17736028 282.46173995 -197.13916016 284.56640625 C-218.66580864 308.53760634 -235.12931862 337.82040654 -245.95166016 368.06640625 C-246.25410645 368.90397461 -246.55655273 369.74154297 -246.86816406 370.60449219 C-271.48588346 439.95424891 -268.00559098 523.10202536 -236.74169922 589.78491211 C-226.54147111 611.14664818 -214.10420629 630.87248885 -198.95166016 649.06640625 C-198.5162793 649.59202148 -198.08089844 650.11763672 -197.63232422 650.65917969 C-187.38742194 662.98540734 -176.63419813 674.19685199 -163.95166016 684.06640625 C-162.68469246 685.0741677 -161.41776826 686.08198382 -160.15087891 687.08984375 C-149.87695943 695.1829727 -139.19722261 702.39208866 -127.95166016 709.06640625 C-127.32114746 709.44104004 -126.69063477 709.81567383 -126.04101562 710.20166016 C-108.65960962 720.35789163 -89.32253701 727.73257171 -69.95166016 733.06640625 C-68.7615332 733.39632568 -68.7615332 733.39632568 -67.54736328 733.73291016 C-42.57297223 740.50301656 -16.72026728 743.29461408 9.11083984 743.31640625 C10.20826004 743.31741837 10.20826004 743.31741837 11.32785034 743.31845093 C85.36223335 743.21144893 152.54212823 715.50059043 204.92333984 663.44140625 C211.05831356 657.26821266 216.75788799 650.98468944 222.04833984 644.06640625 C222.84240234 643.06609375 223.63646484 642.06578125 224.45458984 641.03515625 C234.62808888 628.16333103 243.31641029 614.52731957 251.04833984 600.06640625 C251.38575195 599.44217773 251.72316406 598.81794922 252.07080078 598.17480469 C287.26017774 532.56807359 290.84952407 450.50412858 269.90991211 379.88256836 C258.63813016 343.51918371 239.53295101 310.29543688 213.42724609 282.59375 C211.40207012 280.44220837 209.46272709 278.25319812 207.54833984 276.00390625 C200.68565961 268.10441821 193.10074871 260.74268433 185.04833984 254.06640625 C184.56510254 253.65874023 184.08186523 253.25107422 183.58398438 252.83105469 C145.19401375 220.56456691 100.43137639 201.65053752 51.04833984 194.06640625 C50.19900879 193.93363281 49.34967773 193.80085938 48.47460938 193.6640625 C5.24189264 187.29499684 -41.70755725 192.24844608 -82.95166016 206.06640625 Z " fill="#303AB2" transform="translate(2636.95166015625,3016.93359375)"/>
<path d="M0 0 C0.51079102 0.45439453 1.02158203 0.90878906 1.54785156 1.37695312 C12.26333544 10.93084831 22.86320679 20.90393691 32 32 C32.45745605 32.53302734 32.91491211 33.06605469 33.38623047 33.61523438 C34.96404549 35.45742926 36.51464672 37.32009147 38.0625 39.1875 C38.83424561 40.07973267 38.83424561 40.07973267 39.62158203 40.98999023 C43.07442542 45.24134092 43.07442542 45.24134092 42.7578125 48.46875 C40.1780727 52.18357531 37.0727824 55.19310125 33.8125 58.3125 C32.4382786 59.65438298 31.0658559 60.99811068 29.6953125 62.34375 C29.04594727 62.98054688 28.39658203 63.61734375 27.72753906 64.2734375 C25.22911569 66.77044853 22.94411002 69.41584905 20.66796875 72.11328125 C17.74495391 75.4196423 14.54838376 78.45823324 11.41015625 81.55859375 C8.73145468 84.27202727 6.25391882 87.10777023 3.77734375 90.00390625 C1.04900715 93.06803813 -1.89667908 95.90481832 -4.81640625 98.78515625 C-6.77974671 100.77659461 -8.62079669 102.81302578 -10.4375 104.9375 C-13.15619248 108.1103592 -16.02751675 111.06338382 -19 114 C-21.95183025 116.91626603 -24.80388859 119.84605835 -27.5 123 C-30.98452107 127.07623219 -34.78081981 130.79550873 -38.59375 134.5625 C-40.65449345 136.65000635 -42.59515626 138.77169223 -44.5 141 C-47.98332542 145.0748335 -51.77818708 148.79292992 -55.58984375 152.55859375 C-58.25880863 155.26216433 -60.72828788 158.08659156 -63.1953125 160.97265625 C-66.61943288 164.81923304 -70.3225033 168.39755425 -74 172 C-76.7678773 169.28366603 -79.45570985 166.52749925 -82.05859375 163.65234375 C-94.04539791 150.43183914 -106.7596065 139.32226416 -122 130 C-122.67482422 129.58508301 -123.34964844 129.17016602 -124.04492188 128.74267578 C-170.26225473 100.7344552 -233.73480035 90.95634982 -286.33276367 103.83520508 C-304.01205154 108.4730192 -318.86202155 116.13290771 -332 129 C-332.62648437 129.59039063 -333.25296875 130.18078125 -333.8984375 130.7890625 C-344.26763085 141.43977242 -349.8255205 157.43645416 -351 172 C-351.05285156 172.63679688 -351.10570313 173.27359375 -351.16015625 173.9296875 C-351.85612768 189.96728997 -346.48379029 205.5184437 -335.6875 217.375 C-318.34044403 235.48507992 -295.76025129 245.44539333 -273 255 C-272.34114807 255.27732971 -271.68229614 255.55465942 -271.003479 255.84039307 C-254.36508637 262.82569164 -237.65221518 268.92938894 -220.33398438 273.99438477 C-199.99726434 279.96367884 -180.01565703 287.0441528 -160 294 C-158.51430511 294.5152121 -158.51430511 294.5152121 -156.99859619 295.04083252 C-123.67997973 306.59826385 -90.84793848 318.77669666 -59 334 C-58.1023291 334.4242627 -57.2046582 334.84852539 -56.27978516 335.28564453 C-29.77124649 347.87060325 -4.43207679 363.128763 18.3515625 381.66015625 C19.92484008 382.93891031 21.50904387 384.20418652 23.09375 385.46875 C37.40327376 397.17654217 50.91561934 410.36433753 61.796875 425.34814453 C63.02084766 427.02862323 64.27365188 428.68442414 65.53125 430.33984375 C103.24675532 480.68761407 112.68764601 548.57988654 104.03125 609.7109375 C96.99376743 654.1559911 81.35213929 695.722826 53 731 C52.58137695 731.53286621 52.16275391 732.06573242 51.73144531 732.61474609 C40.04831959 747.44476322 26.19261696 761.76616863 11 773 C10.38044434 773.46889648 9.76088867 773.93779297 9.12255859 774.42089844 C-2.42244414 783.14403034 -14.41351108 790.86856961 -27 798 C-27.77424316 798.43940918 -28.54848633 798.87881836 -29.34619141 799.33154297 C-78.85760798 827.11137114 -135.7084671 839.58918416 -191.6875 845.25 C-192.50696106 845.33326538 -193.32642212 845.41653076 -194.17071533 845.50231934 C-214.33629409 847.52095776 -234.42593903 848.20887108 -254.6875 848.1875 C-255.75582062 848.18689575 -256.82414124 848.1862915 -257.92483521 848.18566895 C-331.56964818 848.07331256 -404.45957787 836.21357383 -472 806 C-472.79116211 805.65259766 -473.58232422 805.30519531 -474.39746094 804.94726562 C-503.97060646 791.93560945 -532.00195675 773.92567029 -555.78515625 752.03125 C-557.75839244 750.22158012 -559.77107813 748.48160109 -561.8125 746.75 C-571.46215911 738.31143171 -580.07036098 729.06039236 -588 719 C-588.9296089 717.88057919 -589.86205838 716.76351308 -590.796875 715.6484375 C-598.82309116 705.99253277 -605.52324905 695.74294355 -612 685 C-612.4345752 684.29262695 -612.86915039 683.58525391 -613.31689453 682.85644531 C-614.49690276 680.93357142 -615.65846254 679.00104402 -616.8125 677.0625 C-617.45832031 675.98097656 -618.10414062 674.89945313 -618.76953125 673.78515625 C-620 671 -620 671 -619.9921875 668.87109375 C-618.57414139 666.19690444 -616.70742569 664.84601571 -614.3125 663 C-613.31605469 662.21367187 -612.31960938 661.42734375 -611.29296875 660.6171875 C-610.48931885 659.98441895 -610.48931885 659.98441895 -609.66943359 659.33886719 C-606.76027967 657.00575807 -603.9466592 654.56256516 -601.125 652.125 C-599.93381645 651.10000156 -598.74240925 650.07526296 -597.55078125 649.05078125 C-596.96119629 648.54369629 -596.37161133 648.03661133 -595.76416016 647.51416016 C-589.11480163 641.80708548 -582.43124843 636.14439496 -575.625 630.625 C-570.50266476 626.45843577 -565.52582622 622.13798719 -560.54956055 617.79956055 C-556.03784637 613.87510903 -551.44674445 610.06573217 -546.80078125 606.30078125 C-543.53670217 603.61941084 -540.3274928 600.87937137 -537.125 598.125 C-536.53541504 597.61791504 -535.94583008 597.11083008 -535.33837891 596.58837891 C-534.74847168 596.08097168 -534.15856445 595.57356445 -533.55078125 595.05078125 C-526.31183876 588.82477633 -519.04134091 582.6391376 -511.625 576.625 C-506.389148 572.36702036 -501.29337158 567.95770075 -496.21337891 563.51611328 C-486.45874747 555 -486.45874747 555 -484 555 C-482.44325365 557.03199573 -480.99566187 559.07061775 -479.5625 561.1875 C-441.75531485 615.32519344 -378.90617507 647.26594737 -315 659 C-294.10077714 662.54257395 -273.61106304 664.23707473 -252.4375 664.25 C-251.44166901 664.25067474 -250.44583801 664.25134949 -249.41983032 664.25204468 C-204.34335961 664.20368373 -152.73939075 658.13690163 -119 625 C-118.2265625 624.25105469 -117.453125 623.50210938 -116.65625 622.73046875 C-102.41832939 608.02932812 -96.7027663 588.66624321 -96.68530273 568.52880859 C-96.99378712 549.35896814 -105.82900011 533.4511408 -119 520 C-127.15810608 512.20000008 -136.20085688 506.44471008 -146 501 C-146.74830078 500.57605957 -147.49660156 500.15211914 -148.26757812 499.71533203 C-186.17978211 478.36436448 -229.88069814 466.78697645 -271.1362915 453.67050171 C-296.54634685 445.59046726 -321.78044335 437.19606546 -346.57568359 427.35839844 C-348.96997569 426.40860226 -351.36570442 425.46354861 -353.76416016 424.52441406 C-373.29457193 416.86761097 -392.26451238 408.44138723 -411 399 C-411.84578613 398.5776709 -412.69157227 398.1553418 -413.56298828 397.72021484 C-438.39416713 385.26482336 -461.34595775 369.56118065 -482 351 C-482.57508301 350.48663086 -483.15016602 349.97326172 -483.74267578 349.44433594 C-490.23207465 343.63320249 -496.50837029 337.78377788 -502 331 C-502.91144285 329.90102882 -503.82290281 328.80207184 -504.734375 327.703125 C-527.31990146 300.23256774 -541.49556452 269.74275685 -549 235 C-549.16870605 234.22124512 -549.33741211 233.44249023 -549.51123047 232.64013672 C-553.46170801 213.69570461 -554.92319406 193.32113283 -554 174 C-553.95359375 172.99453125 -553.9071875 171.9890625 -553.859375 170.953125 C-550.90463479 111.58970811 -532.99827153 56.25507766 -491 13 C-490.10474609 12.06607422 -490.10474609 12.06607422 -489.19140625 11.11328125 C-480.86570445 2.45254115 -472.38732796 -5.58446509 -462.71679688 -12.72314453 C-461.01555259 -13.98843287 -459.34273697 -15.2847889 -457.671875 -16.58984375 C-446.1407062 -25.46994287 -433.58600757 -32.73295237 -421 -40 C-420.23461914 -40.44617676 -419.46923828 -40.89235352 -418.68066406 -41.35205078 C-337.08146986 -88.49436064 -229.64972515 -92.89775701 0 0 Z " fill="#303AB2" transform="translate(5832,3100)"/>
<path d="M0 0 C0.97963715 0.1308197 0.97963715 0.1308197 1.97906494 0.26428223 C50.95850924 6.80701818 98.35813919 19.61234891 143 41 C144.37236816 41.6504126 144.37236816 41.6504126 145.77246094 42.31396484 C167.583931 52.7068336 188.40918357 64.84814339 208 79 C208.73879395 79.52916016 209.47758789 80.05832031 210.23876953 80.60351562 C225.25052341 91.37991026 239.70419158 102.75682747 253.19140625 115.40234375 C255.29301496 117.34611259 257.4149051 119.21284428 259.58984375 121.0703125 C265.33443668 126.07366763 270.63870801 131.53201696 276 136.9375 C277.07137887 138.01390654 278.14299182 139.09008014 279.21484375 140.16601562 C281.81259638 142.77466745 284.40717962 145.38644471 287 148 C285.28974534 151.66434951 283.24002076 153.9345589 280.3125 156.75 C277.30485514 159.65006192 274.45110067 162.59848614 271.73046875 165.765625 C267.00110068 171.22975829 261.82163084 176.22571196 256.671875 181.2890625 C252.5234873 185.39511971 248.57700023 189.57810169 244.7734375 194.00390625 C240.84285935 198.42797108 236.536629 202.49980444 232.31640625 206.64453125 C228.9311829 209.99302523 225.63554742 213.35660669 222.53125 216.96875 C217.88053801 222.37420611 212.75310504 227.293088 207.671875 232.2890625 C204.158686 235.76640264 200.72274736 239.25002899 197.5 243 C192.86197988 248.39677457 187.74247097 253.30354364 182.671875 258.2890625 C178.47358148 262.44451629 174.466501 266.67648066 170.61669922 271.15625 C168.21705562 273.89290184 165.65831547 276.45085895 163.0625 279 C162.56943359 279.48855469 162.07636719 279.97710938 161.56835938 280.48046875 C160.38126771 281.65603525 159.19099502 282.82838826 158 284 C155.00617156 282.66130947 152.97944329 281.20221044 150.71484375 278.83984375 C150.10745361 278.21553467 149.50006348 277.59122559 148.87426758 276.94799805 C148.23513428 276.28453369 147.59600098 275.62106934 146.9375 274.9375 C141.72968864 269.63027651 136.49821266 264.69490379 130.65234375 260.09375 C127.82680519 257.86328068 125.10753308 255.53073054 122.375 253.1875 C62.27415991 203.30841405 -17.55394898 183.57359397 -94.50952148 189.77319336 C-148.63010682 194.86344618 -199.4927047 214.58280643 -241 250 C-242.14282634 250.95751224 -243.28608076 251.91451371 -244.4296875 252.87109375 C-255.37891047 262.07926897 -265.08410123 271.78275722 -274 283 C-274.9460129 284.14610531 -275.89402673 285.29056116 -276.84375 286.43359375 C-317.41916695 335.59151022 -336.19456623 399.28340009 -336.25 462.4375 C-336.25067474 463.14254669 -336.25134949 463.84759338 -336.25204468 464.57400513 C-336.16712137 521.37499791 -321.6764446 579.51612889 -288 626 C-287.31236572 626.9593042 -287.31236572 626.9593042 -286.61083984 627.93798828 C-272.68272199 647.27709743 -256.90546221 665.38010241 -238 680 C-236.72351588 681.01637165 -235.44750814 682.03334176 -234.171875 683.05078125 C-224.25188191 690.88639969 -213.99798458 697.77073433 -203 704 C-202.18547363 704.46148438 -201.37094727 704.92296875 -200.53173828 705.3984375 C-175.72546042 719.27500321 -149.15899671 728.53241954 -121.25 733.8125 C-119.70940918 734.10495605 -119.70940918 734.10495605 -118.13769531 734.40332031 C-101.16691989 737.4131513 -84.20884118 738.38311446 -67 738.3125 C-66.06834015 738.31067719 -65.1366803 738.30885437 -64.17678833 738.30697632 C16.61227645 738.04251779 91.77460881 707.47057432 148.9375 650.1875 C151.30036361 647.80008226 153.65525536 645.40521217 156 643 C159.18941149 644.51876738 161.33246836 646.08940757 163.8125 648.625 C164.43769531 649.25664062 165.06289062 649.88828125 165.70703125 650.5390625 C167.59118263 652.56123519 169.39787192 654.61620325 171.19921875 656.7109375 C175.24922414 661.36441155 179.60302778 665.67680248 184 670 C188.93933826 674.85646346 193.71151141 679.75021776 198.2265625 685.00390625 C201.48190121 688.66795488 205.00451948 692.06705043 208.5 695.5 C212.62324574 699.54948464 216.700117 703.58358948 220.46875 707.96875 C224.41187392 712.55178661 228.69110398 716.76340089 233 721 C237.92910718 725.84640404 242.68972211 730.72997619 247.1953125 735.97265625 C250.62009831 739.81998057 254.32854526 743.39014685 258 747 C262.96903519 751.88566212 267.77830461 756.80793627 272.32080078 762.09375 C275.05656675 765.19942907 277.99017424 768.09666417 280.9375 771 C281.82018555 771.87591797 281.82018555 771.87591797 282.72070312 772.76953125 C284.14479793 774.18204805 285.5720525 775.5913781 287 777 C285.7082122 779.84015307 284.35216917 781.89698388 282.14599609 784.09692383 C281.57134613 784.67465042 280.99669617 785.25237701 280.40463257 785.84761047 C279.7838382 786.46121933 279.16304382 787.07482819 278.5234375 787.70703125 C277.87935944 788.35065109 277.23528137 788.99427094 276.57168579 789.65739441 C275.20721862 791.01884298 273.84032432 792.37786275 272.47119141 793.73461914 C270.39826306 795.78944015 268.33330021 797.85199987 266.26953125 799.91601562 C264.93796785 801.24265725 263.60595051 802.56884344 262.2734375 803.89453125 C261.66478851 804.50206741 261.05613953 805.10960358 260.42904663 805.73554993 C256.10719928 810.01094433 251.60682591 814.03500136 247 818 C246.03578125 818.845625 245.0715625 819.69125 244.078125 820.5625 C234.42946281 828.87847405 224.27345829 836.47643591 214 844 C213.2673291 844.53802246 212.5346582 845.07604492 211.77978516 845.63037109 C124.77615133 909.2122794 16.8644509 934.94039312 -149.80682373 925.34368896 C-162.61991013 923.33577174 -175.3248313 920.73279376 -188 918 C-189.09924805 917.76587402 -190.19849609 917.53174805 -191.33105469 917.29052734 C-238.74987475 906.97304277 -284.7210324 887.27465353 -326 862 C-326.86334961 861.47664063 -327.72669922 860.95328125 -328.61621094 860.4140625 C-339.24271899 853.955375 -349.3517381 847.03022911 -359.17724609 839.40966797 C-360.91751989 838.06378786 -362.66892685 836.73428789 -364.42578125 835.41015625 C-372.18764214 829.54075914 -379.63353761 823.35480156 -387 817 C-388.10988281 816.04287109 -388.10988281 816.04287109 -389.2421875 815.06640625 C-391.17164964 813.38878154 -393.08607379 811.69532137 -395 810 C-395.69174316 809.39309326 -396.38348633 808.78618652 -397.09619141 808.16088867 C-403.7948382 802.22072569 -410.16200447 795.99196527 -416.47827148 789.65209961 C-418.19207233 787.9329133 -419.91119082 786.21917417 -421.63085938 784.50585938 C-427.3006762 778.83972631 -432.82894447 773.13166175 -438 767 C-438.845625 766.03578125 -439.69125 765.0715625 -440.5625 764.078125 C-459.88379179 741.66047234 -476.82148607 716.96814433 -491 691 C-491.47888672 690.12585449 -491.95777344 689.25170898 -492.45117188 688.35107422 C-529.85278913 619.59094887 -546.28759195 542.23923646 -546.1875 464.25 C-546.18689575 463.36603546 -546.1862915 462.48207092 -546.18566895 461.57131958 C-546.06022617 393.26237274 -533.21343986 327.32648604 -505 265 C-504.34879408 263.53132282 -503.69774093 262.06257788 -503.046875 260.59375 C-491.41085021 234.72811023 -476.07809193 210.06696201 -458.47119141 187.86816406 C-457.08829506 186.11211978 -455.73193256 184.33969268 -454.38671875 182.5546875 C-448.24814744 174.41314375 -441.74773113 166.64117451 -435 159 C-434.15824219 158.04480469 -433.31648438 157.08960937 -432.44921875 156.10546875 C-425.30400153 148.19809502 -417.7736579 140.66962237 -410.25 133.125 C-409.70638824 132.57870941 -409.16277649 132.03241882 -408.60269165 131.46957397 C-402.58340758 125.42782523 -396.52141568 119.50528381 -390 114 C-388.99019563 113.12318962 -387.98104061 112.2456306 -386.97265625 111.3671875 C-378.24283555 103.89117997 -369.19031036 96.89866131 -360 90 C-359.37367676 89.525625 -358.74735352 89.05125 -358.10205078 88.5625 C-318.87173703 58.87355522 -274.54124033 36.62897529 -228 21 C-226.94796387 20.64309082 -225.89592773 20.28618164 -224.81201172 19.91845703 C-195.69715436 10.14618345 -165.40501938 4.08133267 -134.96618652 0.25 C-133.07822645 0.00994647 -131.19189363 -0.24280149 -129.30566406 -0.49609375 C-87.51443956 -5.92032348 -41.73424006 -5.72247768 0 0 Z " fill="#303AB2" transform="translate(3759,3019)"/>
<path d="M0 0 C69.63 0 139.26 0 211 0 C211 111.54 211 223.08 211 338 C275.02 338 339.04 338 405 338 C405 401.03 405 464.06 405 529 C340.98 529 276.96 529 211 529 C211.11970632 601.13185623 211.11970632 601.13185623 211.2578125 673.26367188 C211.2778186 683.00252249 211.29770273 692.74137333 211.31738281 702.48022461 C211.31985425 703.7007228 211.32232569 704.92122098 211.32487202 706.17870396 C211.36452176 725.84709443 211.39729465 745.51549059 211.42749982 765.18389756 C211.4586845 785.38977738 211.49732356 805.59563318 211.54279006 825.80148596 C211.5705818 838.25564112 211.59265491 850.70977885 211.60726251 863.16395658 C211.61785699 871.7202952 211.63573405 880.27659993 211.65916704 888.83291293 C211.6724488 893.75919493 211.68268393 898.68542972 211.68421364 903.61173058 C211.51935913 938.96919103 211.51935913 938.96919103 216.25 973.9375 C216.46543457 974.97616211 216.68086914 976.01482422 216.90283203 977.08496094 C220.63165312 994.25512925 227.3445276 1010.62660083 239 1024 C239.74443359 1024.88558594 239.74443359 1024.88558594 240.50390625 1025.7890625 C256.38576797 1043.22328665 282.47439089 1050.0432551 305.29574585 1051.10700989 C307.69234968 1051.16328764 310.08714606 1051.19036537 312.484375 1051.203125 C313.81317688 1051.21351051 313.81317688 1051.21351051 315.16882324 1051.22410583 C318.02926082 1051.24134923 320.88951281 1051.24769904 323.75 1051.25 C325.21681213 1051.25200912 325.21681213 1051.25200912 326.71325684 1051.25405884 C347.79774596 1051.24780756 368.54495059 1049.92487488 389.2265625 1045.55078125 C392 1045 392 1045 395 1045 C395 1107.04 395 1169.08 395 1233 C387.55757164 1235.02975319 380.44569301 1236.80281205 372.875 1238 C371.81732422 1238.16733643 370.75964844 1238.33467285 369.66992188 1238.50708008 C346.97956423 1241.93053182 323.93105861 1243.56638402 301 1244 C299.39656738 1244.03287109 299.39656738 1244.03287109 297.76074219 1244.06640625 C216.22774746 1245.50058382 135.35010467 1229.78284936 74.31640625 1172.48046875 C67.65614489 1166.02804533 61.87517287 1159.17575051 56.32324219 1151.76318359 C55.06551966 1150.08730314 53.7876937 1148.42850494 52.5078125 1146.76953125 C2.70549726 1080.95223704 -0.19994029 992.93738122 -0.11606562 914.02000058 C-0.11168673 908.83637766 -0.11321274 903.65275572 -0.1139679 898.46913147 C-0.11448848 889.52015696 -0.11139072 880.57118983 -0.10573006 871.62221718 C-0.0975514 858.6840146 -0.09499336 845.74581554 -0.09374207 832.80761065 C-0.09156147 811.80866876 -0.08492848 790.80973079 -0.07543945 769.81079102 C-0.06623953 749.43025736 -0.05917136 729.04972477 -0.05493164 708.66918945 C-0.05466892 707.40979686 -0.05440619 706.15040427 -0.05413551 704.85284827 C-0.05283033 698.53390919 -0.05156666 692.21497011 -0.05032361 685.89603102 C-0.03998195 633.59735053 -0.02156045 581.2986773 0 529 C-36.3 529 -72.6 529 -110 529 C-110 465.97 -110 402.94 -110 338 C-73.7 338 -37.4 338 0 338 C0 226.46 0 114.92 0 0 Z " fill="#303AB2" transform="translate(1699,2706)"/>
<path d="M0 0 C1.63175674 0.00090637 1.63175674 0.00090637 3.29647827 0.00183105 C69.49065005 0.10105002 69.49065005 0.10105002 90.75 7.1875 C90.75 66.9175 90.75 126.6475 90.75 188.1875 C87.45 187.5275 84.15 186.8675 80.75 186.1875 C36.27069001 177.88680907 -23.63960233 171.10574419 -63.375 197.66992188 C-85.1670485 212.8590801 -95.8459572 235.11955 -100.734375 260.72460938 C-101.19197473 263.35383541 -101.60797616 265.98522546 -102 268.625 C-102.11569336 269.39739014 -102.23138672 270.16978027 -102.35058594 270.96557617 C-106.30156692 300.54689503 -104.80147129 333.48166265 -105.25 362.1875 C-50.47 362.1875 4.31 362.1875 60.75 362.1875 C60.75 425.2175 60.75 488.2475 60.75 553.1875 C5.97 553.1875 -48.81 553.1875 -105.25 553.1875 C-105.25 780.8875 -105.25 1008.5875 -105.25 1243.1875 C-174.55 1243.1875 -243.85 1243.1875 -315.25 1243.1875 C-315.25 1015.4875 -315.25 787.7875 -315.25 553.1875 C-362.44 553.1875 -409.63 553.1875 -458.25 553.1875 C-458.25 490.1575 -458.25 427.1275 -458.25 362.1875 C-411.06 362.1875 -363.87 362.1875 -315.25 362.1875 C-315.32851459 337.58479219 -315.32851459 337.58479219 -315.43017578 312.98217773 C-315.50164769 287.17893867 -314.84213753 261.49303744 -311.4375 235.875 C-311.35385193 235.22936096 -311.27020386 234.58372192 -311.184021 233.91851807 C-303.83547086 177.40999488 -285.96458732 122.56711688 -245.25 81.1875 C-244.65541992 80.57390625 -244.06083984 79.9603125 -243.44824219 79.328125 C-235.77851337 71.41711023 -228.03449458 63.87240384 -219.25 57.1875 C-218.71503906 56.77081055 -218.18007812 56.35412109 -217.62890625 55.92480469 C-156.72070271 8.58628595 -74.66249467 -0.07731186 0 0 Z " fill="#303AB2" transform="translate(458.25,2706.8125)"/>
<path d="M0 0 C199.32 0 398.64 0 604 0 C604 62.04 604 124.08 604 188 C404.68 188 205.36 188 0 188 C0 125.96 0 63.92 0 0 Z " fill="#1EDBCF" transform="translate(3058,497)"/>
</svg>
